<svg width="628" height="382" viewBox="0 0 628 382" fill="none" xmlns="http://www.w3.org/2000/svg">
<path d="M109.283 159.167C132.693 145.388 171.605 135.827 216.156 131.735C260.691 127.644 310.796 129.024 356.552 137.082C402.319 145.142 443.675 159.874 470.766 182.441C484.306 193.719 494.27 206.944 499.455 222.262C504.615 237.508 505.053 254.863 499.523 274.493C315.602 325.653 194.612 310.415 131.362 275.582C99.7186 258.155 82.584 235.861 79.1485 214.572C75.7187 193.319 85.9195 172.918 109.283 159.167Z" fill="#161A1E" stroke="#1C2126"/>
<path d="M272 68V60.5L303 29H314L354 69.5L393.5 29H405L432.5 57V64.5L399 31L359.5 71.5H348L308 31L272 68Z" fill="#5F6163" stroke="#878787"/>
<rect x="271.5" y="23.5" width="161" height="5" fill="#5F6163"/>
<rect x="271.5" y="23.5" width="161" height="5" stroke="#878787"/>
<rect x="271.5" y="71.5" width="161" height="5" fill="#5F6163"/>
<rect x="271.5" y="71.5" width="161" height="5" stroke="#878787"/>
<rect x="434.5" y="23.5" width="14" height="211" fill="#5F6163"/>
<rect x="434.5" y="23.5" width="14" height="211" stroke="#878787"/>
<rect x="104.5" y="0.5" width="165" height="99" fill="#737373"/>
<path d="M131.5 24.0001V13.5001C132.834 10.0439 133.446 10.8663 134.5 13.5001V24.0001L147 31.0001V34.5001L134.5 30.0001V37.0001L137 38.5001V41.5001H135L133 40.0001L130.5 41.5001H128.5V39.5001L131.5 37.0001V30.5001L119 34.5001V31.0001L131.5 24.0001Z" stroke="#161A1E"/>
<path d="M241 75.5L247 69.5L251.5 73.5L255.5 69.5L258 87L241 84.5L245 80L241 75.5Z" stroke="#161A1E"/>
<path d="M127.846 57.83H123.59L122.806 60H121.462L124.99 50.298H126.46L129.974 60H128.63L127.846 57.83ZM127.482 56.794L125.718 51.866L123.954 56.794H127.482ZM133.486 53.574C133.71 53.1353 134.027 52.7947 134.438 52.552C134.858 52.3093 135.366 52.188 135.964 52.188V53.504H135.628C134.2 53.504 133.486 54.2787 133.486 55.828V60H132.212V52.328H133.486V53.574ZM139.408 53.574C139.632 53.1353 139.95 52.7947 140.36 52.552C140.78 52.3093 141.289 52.188 141.886 52.188V53.504H141.55C140.122 53.504 139.408 54.2787 139.408 55.828V60H138.134V52.328H139.408V53.574ZM144.715 51.082C144.472 51.082 144.267 50.998 144.099 50.83C143.931 50.662 143.847 50.4567 143.847 50.214C143.847 49.9713 143.931 49.766 144.099 49.598C144.267 49.43 144.472 49.346 144.715 49.346C144.948 49.346 145.144 49.43 145.303 49.598C145.471 49.766 145.555 49.9713 145.555 50.214C145.555 50.4567 145.471 50.662 145.303 50.83C145.144 50.998 144.948 51.082 144.715 51.082ZM145.331 52.328V60H144.057V52.328H145.331ZM151.058 58.824L153.438 52.328H154.796L151.786 60H150.302L147.292 52.328H148.664L151.058 58.824ZM156.274 56.136C156.274 55.352 156.433 54.666 156.75 54.078C157.067 53.4807 157.501 53.0187 158.052 52.692C158.612 52.3653 159.233 52.202 159.914 52.202C160.586 52.202 161.169 52.3467 161.664 52.636C162.159 52.9253 162.527 53.2893 162.77 53.728V52.328H164.058V60H162.77V58.572C162.518 59.02 162.14 59.3933 161.636 59.692C161.141 59.9813 160.563 60.126 159.9 60.126C159.219 60.126 158.603 59.958 158.052 59.622C157.501 59.286 157.067 58.8147 156.75 58.208C156.433 57.6013 156.274 56.9107 156.274 56.136ZM162.77 56.15C162.77 55.5713 162.653 55.0673 162.42 54.638C162.187 54.2087 161.869 53.882 161.468 53.658C161.076 53.4247 160.642 53.308 160.166 53.308C159.69 53.308 159.256 53.42 158.864 53.644C158.472 53.868 158.159 54.1947 157.926 54.624C157.693 55.0533 157.576 55.5573 157.576 56.136C157.576 56.724 157.693 57.2373 157.926 57.676C158.159 58.1053 158.472 58.4367 158.864 58.67C159.256 58.894 159.69 59.006 160.166 59.006C160.642 59.006 161.076 58.894 161.468 58.67C161.869 58.4367 162.187 58.1053 162.42 57.676C162.653 57.2373 162.77 56.7287 162.77 56.15ZM168.185 49.64V60H166.911V49.64H168.185ZM175.816 46.812L171.98 62.38H170.72L174.542 46.812H175.816ZM177.938 56.136C177.938 55.352 178.097 54.666 178.414 54.078C178.732 53.4807 179.166 53.0187 179.716 52.692C180.276 52.3653 180.902 52.202 181.592 52.202C182.19 52.202 182.745 52.342 183.258 52.622C183.772 52.8927 184.164 53.252 184.434 53.7V49.64H185.722V60H184.434V58.558C184.182 59.0153 183.809 59.3933 183.314 59.692C182.82 59.9813 182.241 60.126 181.578 60.126C180.897 60.126 180.276 59.958 179.716 59.622C179.166 59.286 178.732 58.8147 178.414 58.208C178.097 57.6013 177.938 56.9107 177.938 56.136ZM184.434 56.15C184.434 55.5713 184.318 55.0673 184.084 54.638C183.851 54.2087 183.534 53.882 183.132 53.658C182.74 53.4247 182.306 53.308 181.83 53.308C181.354 53.308 180.92 53.42 180.528 53.644C180.136 53.868 179.824 54.1947 179.59 54.624C179.357 55.0533 179.24 55.5573 179.24 56.136C179.24 56.724 179.357 57.2373 179.59 57.676C179.824 58.1053 180.136 58.4367 180.528 58.67C180.92 58.894 181.354 59.006 181.83 59.006C182.306 59.006 182.74 58.894 183.132 58.67C183.534 58.4367 183.851 58.1053 184.084 57.676C184.318 57.2373 184.434 56.7287 184.434 56.15ZM195.575 55.87C195.575 56.1127 195.561 56.3693 195.533 56.64H189.401C189.448 57.396 189.705 57.9887 190.171 58.418C190.647 58.838 191.221 59.048 191.893 59.048C192.444 59.048 192.901 58.922 193.265 58.67C193.639 58.4087 193.9 58.0633 194.049 57.634H195.421C195.216 58.3713 194.805 58.9733 194.189 59.44C193.573 59.8973 192.808 60.126 191.893 60.126C191.165 60.126 190.512 59.9627 189.933 59.636C189.364 59.3093 188.916 58.8473 188.589 58.25C188.263 57.6433 188.099 56.9433 188.099 56.15C188.099 55.3567 188.258 54.6613 188.575 54.064C188.893 53.4667 189.336 53.0093 189.905 52.692C190.484 52.3653 191.147 52.202 191.893 52.202C192.621 52.202 193.265 52.3607 193.825 52.678C194.385 52.9953 194.815 53.434 195.113 53.994C195.421 54.5447 195.575 55.17 195.575 55.87ZM194.259 55.604C194.259 55.1187 194.152 54.7033 193.937 54.358C193.723 54.0033 193.429 53.7373 193.055 53.56C192.691 53.3733 192.285 53.28 191.837 53.28C191.193 53.28 190.643 53.4853 190.185 53.896C189.737 54.3067 189.481 54.876 189.415 55.604H194.259ZM199.231 53.742C199.483 53.3033 199.856 52.9393 200.351 52.65C200.855 52.3513 201.438 52.202 202.101 52.202C202.782 52.202 203.398 52.3653 203.949 52.692C204.509 53.0187 204.948 53.4807 205.265 54.078C205.582 54.666 205.741 55.352 205.741 56.136C205.741 56.9107 205.582 57.6013 205.265 58.208C204.948 58.8147 204.509 59.286 203.949 59.622C203.398 59.958 202.782 60.126 202.101 60.126C201.448 60.126 200.869 59.9813 200.365 59.692C199.87 59.3933 199.492 59.0247 199.231 58.586V63.64H197.957V52.328H199.231V53.742ZM204.439 56.136C204.439 55.5573 204.322 55.0533 204.089 54.624C203.856 54.1947 203.538 53.868 203.137 53.644C202.745 53.42 202.311 53.308 201.835 53.308C201.368 53.308 200.934 53.4247 200.533 53.658C200.141 53.882 199.824 54.2133 199.581 54.652C199.348 55.0813 199.231 55.5807 199.231 56.15C199.231 56.7287 199.348 57.2373 199.581 57.676C199.824 58.1053 200.141 58.4367 200.533 58.67C200.934 58.894 201.368 59.006 201.835 59.006C202.311 59.006 202.745 58.894 203.137 58.67C203.538 58.4367 203.856 58.1053 204.089 57.676C204.322 57.2373 204.439 56.724 204.439 56.136ZM207.642 56.136C207.642 55.352 207.801 54.666 208.118 54.078C208.435 53.4807 208.869 53.0187 209.42 52.692C209.98 52.3653 210.601 52.202 211.282 52.202C211.954 52.202 212.537 52.3467 213.032 52.636C213.527 52.9253 213.895 53.2893 214.138 53.728V52.328H215.426V60H214.138V58.572C213.886 59.02 213.508 59.3933 213.004 59.692C212.509 59.9813 211.931 60.126 211.268 60.126C210.587 60.126 209.971 59.958 209.42 59.622C208.869 59.286 208.435 58.8147 208.118 58.208C207.801 57.6013 207.642 56.9107 207.642 56.136ZM214.138 56.15C214.138 55.5713 214.021 55.0673 213.788 54.638C213.555 54.2087 213.237 53.882 212.836 53.658C212.444 53.4247 212.01 53.308 211.534 53.308C211.058 53.308 210.624 53.42 210.232 53.644C209.84 53.868 209.527 54.1947 209.294 54.624C209.061 55.0533 208.944 55.5573 208.944 56.136C208.944 56.724 209.061 57.2373 209.294 57.676C209.527 58.1053 209.84 58.4367 210.232 58.67C210.624 58.894 211.058 59.006 211.534 59.006C212.01 59.006 212.444 58.894 212.836 58.67C213.237 58.4367 213.555 58.1053 213.788 57.676C214.021 57.2373 214.138 56.7287 214.138 56.15ZM219.553 53.574C219.777 53.1353 220.094 52.7947 220.505 52.552C220.925 52.3093 221.433 52.188 222.031 52.188V53.504H221.695C220.267 53.504 219.553 54.2787 219.553 55.828V60H218.279V52.328H219.553V53.574ZM225.755 53.378V57.9C225.755 58.2733 225.835 58.5393 225.993 58.698C226.152 58.8473 226.427 58.922 226.819 58.922H227.757V60H226.609C225.9 60 225.368 59.8367 225.013 59.51C224.659 59.1833 224.481 58.6467 224.481 57.9V53.378H223.487V52.328H224.481V50.396H225.755V52.328H227.757V53.378H225.755ZM236.805 52.328V60H235.531V58.866C235.288 59.258 234.948 59.566 234.509 59.79C234.08 60.0047 233.604 60.112 233.081 60.112C232.484 60.112 231.947 59.9907 231.471 59.748C230.995 59.496 230.617 59.1227 230.337 58.628C230.066 58.1333 229.931 57.5313 229.931 56.822V52.328H231.191V56.654C231.191 57.41 231.382 57.9933 231.765 58.404C232.148 58.8053 232.67 59.006 233.333 59.006C234.014 59.006 234.551 58.796 234.943 58.376C235.335 57.956 235.531 57.3447 235.531 56.542V52.328H236.805ZM240.93 53.574C241.154 53.1353 241.471 52.7947 241.882 52.552C242.302 52.3093 242.811 52.188 243.408 52.188V53.504H243.072C241.644 53.504 240.93 54.2787 240.93 55.828V60H239.656V52.328H240.93V53.574ZM252.579 55.87C252.579 56.1127 252.565 56.3693 252.537 56.64H246.405C246.451 57.396 246.708 57.9887 247.175 58.418C247.651 58.838 248.225 59.048 248.897 59.048C249.447 59.048 249.905 58.922 250.269 58.67C250.642 58.4087 250.903 58.0633 251.053 57.634H252.425C252.219 58.3713 251.809 58.9733 251.193 59.44C250.577 59.8973 249.811 60.126 248.897 60.126C248.169 60.126 247.515 59.9627 246.937 59.636C246.367 59.3093 245.919 58.8473 245.593 58.25C245.266 57.6433 245.103 56.9433 245.103 56.15C245.103 55.3567 245.261 54.6613 245.579 54.064C245.896 53.4667 246.339 53.0093 246.909 52.692C247.487 52.3653 248.15 52.202 248.897 52.202C249.625 52.202 250.269 52.3607 250.829 52.678C251.389 52.9953 251.818 53.434 252.117 53.994C252.425 54.5447 252.579 55.17 252.579 55.87ZM251.263 55.604C251.263 55.1187 251.155 54.7033 250.941 54.358C250.726 54.0033 250.432 53.7373 250.059 53.56C249.695 53.3733 249.289 53.28 248.841 53.28C248.197 53.28 247.646 53.4853 247.189 53.896C246.741 54.3067 246.484 54.876 246.419 55.604H251.263Z" fill="#161A1E"/>
<rect x="108.5" y="4.5" width="158" height="91" rx="2.5" stroke="#878787"/>
<rect x="104.5" y="0.5" width="165" height="99" stroke="#878787"/>
</svg>
