<svg width="946" height="796" viewBox="0 0 946 796" fill="none" xmlns="http://www.w3.org/2000/svg">
<path d="M125.216 486.228C173.952 457.533 254.886 437.653 347.465 429.146C440.029 420.641 544.168 423.51 639.275 440.265C734.393 457.023 820.417 487.66 876.803 534.647C904.99 558.135 925.758 585.698 936.568 617.646C947.353 649.521 948.236 685.797 936.636 726.803C554.318 833.24 302.707 801.607 171.099 729.101C105.276 692.838 69.5272 646.387 62.3541 601.923C55.1868 557.493 76.5266 514.897 125.216 486.228Z" fill="url(#paint0_linear_83_1209)" stroke="#878787"/>
<g opacity="0.5">
<rect x="254.5" y="72.5" width="484" height="200" fill="url(#paint1_linear_83_1209)"/>
<path d="M303.938 96.172V98.09H301.334V106H298.94V98.09H296.336V96.172H303.938ZM308.233 96.172V106H305.839V96.172H308.233ZM321.798 96.172V106H319.404V100.106L317.206 106H315.274L313.062 100.092V106H310.668V96.172H313.496L316.254 102.976L318.984 96.172H321.798ZM326.614 98.09V100.078H329.82V101.926H326.614V104.082H330.24V106H324.22V96.172H330.24V98.09H326.614Z" fill="#080B0D"/>
<path d="M296.63 135.75C296.63 134.145 296.938 132.88 297.554 131.956C298.179 131.032 299.183 130.57 300.564 130.57C301.945 130.57 302.944 131.032 303.56 131.956C304.185 132.88 304.498 134.145 304.498 135.75C304.498 137.374 304.185 138.648 303.56 139.572C302.944 140.496 301.945 140.958 300.564 140.958C299.183 140.958 298.179 140.496 297.554 139.572C296.938 138.648 296.63 137.374 296.63 135.75ZM302.146 135.75C302.146 134.807 302.043 134.084 301.838 133.58C301.633 133.067 301.208 132.81 300.564 132.81C299.92 132.81 299.495 133.067 299.29 133.58C299.085 134.084 298.982 134.807 298.982 135.75C298.982 136.385 299.019 136.912 299.094 137.332C299.169 137.743 299.318 138.079 299.542 138.34C299.775 138.592 300.116 138.718 300.564 138.718C301.012 138.718 301.348 138.592 301.572 138.34C301.805 138.079 301.959 137.743 302.034 137.332C302.109 136.912 302.146 136.385 302.146 135.75ZM311.517 133.538C311.442 133.193 311.311 132.936 311.125 132.768C310.938 132.591 310.672 132.502 310.327 132.502C309.795 132.502 309.412 132.735 309.179 133.202C308.945 133.659 308.824 134.387 308.815 135.386C309.02 135.059 309.314 134.803 309.697 134.616C310.089 134.429 310.518 134.336 310.985 134.336C311.899 134.336 312.632 134.625 313.183 135.204C313.743 135.783 314.023 136.59 314.023 137.626C314.023 138.307 313.883 138.905 313.603 139.418C313.332 139.931 312.931 140.333 312.399 140.622C311.876 140.911 311.255 141.056 310.537 141.056C309.099 141.056 308.101 140.608 307.541 139.712C306.981 138.807 306.701 137.509 306.701 135.82C306.701 134.047 306.995 132.731 307.583 131.872C308.18 131.004 309.132 130.57 310.439 130.57C311.139 130.57 311.727 130.71 312.203 130.99C312.688 131.261 313.052 131.62 313.295 132.068C313.547 132.516 313.696 133.006 313.743 133.538H311.517ZM310.411 136.226C310.009 136.226 309.673 136.347 309.403 136.59C309.141 136.823 309.011 137.159 309.011 137.598C309.011 138.046 309.132 138.396 309.375 138.648C309.627 138.9 309.981 139.026 310.439 139.026C310.849 139.026 311.171 138.905 311.405 138.662C311.647 138.41 311.769 138.069 311.769 137.64C311.769 137.201 311.652 136.856 311.419 136.604C311.185 136.352 310.849 136.226 310.411 136.226ZM317.435 141.112C317.015 141.112 316.67 140.991 316.399 140.748C316.138 140.496 316.007 140.188 316.007 139.824C316.007 139.451 316.138 139.138 316.399 138.886C316.67 138.634 317.015 138.508 317.435 138.508C317.846 138.508 318.182 138.634 318.443 138.886C318.714 139.138 318.849 139.451 318.849 139.824C318.849 140.188 318.714 140.496 318.443 140.748C318.182 140.991 317.846 141.112 317.435 141.112ZM317.435 135.414C317.015 135.414 316.67 135.293 316.399 135.05C316.138 134.798 316.007 134.49 316.007 134.126C316.007 133.753 316.138 133.44 316.399 133.188C316.67 132.936 317.015 132.81 317.435 132.81C317.846 132.81 318.182 132.936 318.443 133.188C318.714 133.44 318.849 133.753 318.849 134.126C318.849 134.49 318.714 134.798 318.443 135.05C318.182 135.293 317.846 135.414 317.435 135.414ZM320.839 133.664C320.877 132.665 321.203 131.895 321.819 131.354C322.435 130.813 323.271 130.542 324.325 130.542C325.025 130.542 325.623 130.663 326.117 130.906C326.621 131.149 326.999 131.48 327.251 131.9C327.513 132.32 327.643 132.791 327.643 133.314C327.643 133.93 327.489 134.434 327.181 134.826C326.873 135.209 326.514 135.47 326.103 135.61V135.666C326.635 135.843 327.055 136.137 327.363 136.548C327.671 136.959 327.825 137.486 327.825 138.13C327.825 138.709 327.69 139.222 327.419 139.67C327.158 140.109 326.771 140.454 326.257 140.706C325.753 140.958 325.151 141.084 324.451 141.084C323.331 141.084 322.435 140.809 321.763 140.258C321.101 139.707 320.751 138.877 320.713 137.766H323.037C323.047 138.177 323.163 138.503 323.387 138.746C323.611 138.979 323.938 139.096 324.367 139.096C324.731 139.096 325.011 138.993 325.207 138.788C325.413 138.573 325.515 138.293 325.515 137.948C325.515 137.5 325.371 137.178 325.081 136.982C324.801 136.777 324.349 136.674 323.723 136.674H323.275V134.728H323.723C324.199 134.728 324.582 134.649 324.871 134.49C325.17 134.322 325.319 134.028 325.319 133.608C325.319 133.272 325.226 133.011 325.039 132.824C324.853 132.637 324.596 132.544 324.269 132.544C323.915 132.544 323.649 132.651 323.471 132.866C323.303 133.081 323.205 133.347 323.177 133.664H320.839ZM329.848 139.082C330.165 138.83 330.31 138.713 330.282 138.732C331.197 137.976 331.915 137.355 332.438 136.87C332.97 136.385 333.418 135.876 333.782 135.344C334.146 134.812 334.328 134.294 334.328 133.79C334.328 133.407 334.239 133.109 334.062 132.894C333.885 132.679 333.619 132.572 333.264 132.572C332.909 132.572 332.629 132.707 332.424 132.978C332.228 133.239 332.13 133.613 332.13 134.098H329.82C329.839 133.305 330.007 132.642 330.324 132.11C330.651 131.578 331.075 131.186 331.598 130.934C332.13 130.682 332.718 130.556 333.362 130.556C334.473 130.556 335.308 130.841 335.868 131.41C336.437 131.979 336.722 132.721 336.722 133.636C336.722 134.635 336.381 135.563 335.7 136.422C335.019 137.271 334.151 138.102 333.096 138.914H336.876V140.86H329.848V139.082Z" fill="#43484B"/>
<path d="M395.516 139.098C394.592 139.098 393.743 138.883 392.968 138.454C392.203 138.025 391.591 137.427 391.134 136.662C390.686 135.887 390.462 135.019 390.462 134.058C390.462 133.097 390.686 132.233 391.134 131.468C391.591 130.703 392.203 130.105 392.968 129.676C393.743 129.247 394.592 129.032 395.516 129.032C396.44 129.032 397.285 129.247 398.05 129.676C398.825 130.105 399.431 130.703 399.87 131.468C400.318 132.233 400.542 133.097 400.542 134.058C400.542 135.019 400.318 135.887 399.87 136.662C399.422 137.427 398.815 138.025 398.05 138.454C397.285 138.883 396.44 139.098 395.516 139.098ZM395.516 136.914C396.3 136.914 396.925 136.653 397.392 136.13C397.868 135.607 398.106 134.917 398.106 134.058C398.106 133.19 397.868 132.499 397.392 131.986C396.925 131.463 396.3 131.202 395.516 131.202C394.723 131.202 394.088 131.459 393.612 131.972C393.145 132.485 392.912 133.181 392.912 134.058C392.912 134.926 393.145 135.621 393.612 136.144C394.088 136.657 394.723 136.914 395.516 136.914ZM406.13 139.098C405.411 139.098 404.767 138.981 404.198 138.748C403.629 138.515 403.171 138.169 402.826 137.712C402.49 137.255 402.313 136.704 402.294 136.06H404.842C404.879 136.424 405.005 136.704 405.22 136.9C405.435 137.087 405.715 137.18 406.06 137.18C406.415 137.18 406.695 137.101 406.9 136.942C407.105 136.774 407.208 136.545 407.208 136.256C407.208 136.013 407.124 135.813 406.956 135.654C406.797 135.495 406.597 135.365 406.354 135.262C406.121 135.159 405.785 135.043 405.346 134.912C404.711 134.716 404.193 134.52 403.792 134.324C403.391 134.128 403.045 133.839 402.756 133.456C402.467 133.073 402.322 132.574 402.322 131.958C402.322 131.043 402.653 130.329 403.316 129.816C403.979 129.293 404.842 129.032 405.906 129.032C406.989 129.032 407.861 129.293 408.524 129.816C409.187 130.329 409.541 131.048 409.588 131.972H406.998C406.979 131.655 406.863 131.407 406.648 131.23C406.433 131.043 406.158 130.95 405.822 130.95C405.533 130.95 405.299 131.029 405.122 131.188C404.945 131.337 404.856 131.557 404.856 131.846C404.856 132.163 405.005 132.411 405.304 132.588C405.603 132.765 406.069 132.957 406.704 133.162C407.339 133.377 407.852 133.582 408.244 133.778C408.645 133.974 408.991 134.259 409.28 134.632C409.569 135.005 409.714 135.486 409.714 136.074C409.714 136.634 409.569 137.143 409.28 137.6C409 138.057 408.589 138.421 408.048 138.692C407.507 138.963 406.867 139.098 406.13 139.098ZM414.281 137.152H417.417V139H411.887V129.172H414.281V137.152ZM423.907 139.098C422.983 139.098 422.134 138.883 421.359 138.454C420.594 138.025 419.982 137.427 419.525 136.662C419.077 135.887 418.853 135.019 418.853 134.058C418.853 133.097 419.077 132.233 419.525 131.468C419.982 130.703 420.594 130.105 421.359 129.676C422.134 129.247 422.983 129.032 423.907 129.032C424.831 129.032 425.676 129.247 426.441 129.676C427.216 130.105 427.822 130.703 428.261 131.468C428.709 132.233 428.933 133.097 428.933 134.058C428.933 135.019 428.709 135.887 428.261 136.662C427.813 137.427 427.206 138.025 426.441 138.454C425.676 138.883 424.831 139.098 423.907 139.098ZM423.907 136.914C424.691 136.914 425.316 136.653 425.783 136.13C426.259 135.607 426.497 134.917 426.497 134.058C426.497 133.19 426.259 132.499 425.783 131.986C425.316 131.463 424.691 131.202 423.907 131.202C423.114 131.202 422.479 131.459 422.003 131.972C421.536 132.485 421.303 133.181 421.303 134.058C421.303 134.926 421.536 135.621 422.003 136.144C422.479 136.657 423.114 136.914 423.907 136.914Z" fill="#43484B"/>
<path d="M396.818 154.96C397.387 155.081 397.845 155.366 398.19 155.814C398.535 156.253 398.708 156.757 398.708 157.326C398.708 158.147 398.419 158.801 397.84 159.286C397.271 159.762 396.473 160 395.446 160H390.868V150.172H395.292C396.291 150.172 397.07 150.401 397.63 150.858C398.199 151.315 398.484 151.936 398.484 152.72C398.484 153.299 398.33 153.779 398.022 154.162C397.723 154.545 397.322 154.811 396.818 154.96ZM393.262 154.148H394.83C395.222 154.148 395.521 154.064 395.726 153.896C395.941 153.719 396.048 153.462 396.048 153.126C396.048 152.79 395.941 152.533 395.726 152.356C395.521 152.179 395.222 152.09 394.83 152.09H393.262V154.148ZM395.026 158.068C395.427 158.068 395.735 157.979 395.95 157.802C396.174 157.615 396.286 157.349 396.286 157.004C396.286 156.659 396.169 156.388 395.936 156.192C395.712 155.996 395.399 155.898 394.998 155.898H393.262V158.068H395.026ZM403.191 152.09V154.078H406.397V155.926H403.191V158.082H406.817V160H400.797V150.172H406.817V152.09H403.191ZM414.083 160L412.039 156.29H411.465V160H409.071V150.172H413.089C413.863 150.172 414.521 150.307 415.063 150.578C415.613 150.849 416.024 151.222 416.295 151.698C416.565 152.165 416.701 152.687 416.701 153.266C416.701 153.919 416.514 154.503 416.141 155.016C415.777 155.529 415.235 155.893 414.517 156.108L416.785 160H414.083ZM411.465 154.596H412.949C413.387 154.596 413.714 154.489 413.929 154.274C414.153 154.059 414.265 153.756 414.265 153.364C414.265 152.991 414.153 152.697 413.929 152.482C413.714 152.267 413.387 152.16 412.949 152.16H411.465V154.596ZM425.428 153.28C425.25 152.953 424.994 152.706 424.658 152.538C424.331 152.361 423.944 152.272 423.496 152.272C422.721 152.272 422.1 152.529 421.634 153.042C421.167 153.546 420.934 154.223 420.934 155.072C420.934 155.977 421.176 156.687 421.662 157.2C422.156 157.704 422.833 157.956 423.692 157.956C424.28 157.956 424.774 157.807 425.176 157.508C425.586 157.209 425.885 156.78 426.072 156.22H423.034V154.456H428.242V156.682C428.064 157.279 427.761 157.835 427.332 158.348C426.912 158.861 426.375 159.277 425.722 159.594C425.068 159.911 424.331 160.07 423.51 160.07C422.539 160.07 421.671 159.86 420.906 159.44C420.15 159.011 419.557 158.418 419.128 157.662C418.708 156.906 418.498 156.043 418.498 155.072C418.498 154.101 418.708 153.238 419.128 152.482C419.557 151.717 420.15 151.124 420.906 150.704C421.662 150.275 422.525 150.06 423.496 150.06C424.672 150.06 425.661 150.345 426.464 150.914C427.276 151.483 427.812 152.272 428.074 153.28H425.428ZM432.662 152.09V154.078H435.868V155.926H432.662V158.082H436.288V160H430.268V150.172H436.288V152.09H432.662ZM447.334 160H444.94L440.936 153.938V160H438.542V150.172H440.936L444.94 156.262V150.172H447.334V160Z" fill="#43484B"/>
<path d="M397.938 171.172V173.09H395.334V181H392.94V173.09H390.336V171.172H397.938ZM404.851 181L402.807 177.29H402.233V181H399.839V171.172H403.857C404.632 171.172 405.29 171.307 405.831 171.578C406.382 171.849 406.793 172.222 407.063 172.698C407.334 173.165 407.469 173.687 407.469 174.266C407.469 174.919 407.283 175.503 406.909 176.016C406.545 176.529 406.004 176.893 405.285 177.108L407.553 181H404.851ZM402.233 175.596H403.717C404.156 175.596 404.483 175.489 404.697 175.274C404.921 175.059 405.033 174.756 405.033 174.364C405.033 173.991 404.921 173.697 404.697 173.482C404.483 173.267 404.156 173.16 403.717 173.16H402.233V175.596ZM414.32 181.098C413.396 181.098 412.547 180.883 411.772 180.454C411.007 180.025 410.396 179.427 409.938 178.662C409.49 177.887 409.266 177.019 409.266 176.058C409.266 175.097 409.49 174.233 409.938 173.468C410.396 172.703 411.007 172.105 411.772 171.676C412.547 171.247 413.396 171.032 414.32 171.032C415.244 171.032 416.089 171.247 416.854 171.676C417.629 172.105 418.236 172.703 418.674 173.468C419.122 174.233 419.346 175.097 419.346 176.058C419.346 177.019 419.122 177.887 418.674 178.662C418.226 179.427 417.62 180.025 416.854 180.454C416.089 180.883 415.244 181.098 414.32 181.098ZM414.32 178.914C415.104 178.914 415.73 178.653 416.196 178.13C416.672 177.607 416.91 176.917 416.91 176.058C416.91 175.19 416.672 174.499 416.196 173.986C415.73 173.463 415.104 173.202 414.32 173.202C413.527 173.202 412.892 173.459 412.416 173.972C411.95 174.485 411.716 175.181 411.716 176.058C411.716 176.926 411.95 177.621 412.416 178.144C412.892 178.657 413.527 178.914 414.32 178.914ZM425.06 171.172C426.096 171.172 427.001 171.377 427.776 171.788C428.551 172.199 429.148 172.777 429.568 173.524C429.997 174.261 430.212 175.115 430.212 176.086C430.212 177.047 429.997 177.901 429.568 178.648C429.148 179.395 428.546 179.973 427.762 180.384C426.987 180.795 426.087 181 425.06 181H421.378V171.172H425.06ZM424.906 178.928C425.811 178.928 426.516 178.681 427.02 178.186C427.524 177.691 427.776 176.991 427.776 176.086C427.776 175.181 427.524 174.476 427.02 173.972C426.516 173.468 425.811 173.216 424.906 173.216H423.772V178.928H424.906ZM440.762 171.172V181H438.368V176.954H434.644V181H432.25V171.172H434.644V175.022H438.368V171.172H440.762ZM445.584 173.09V175.078H448.79V176.926H445.584V179.082H449.21V181H443.19V171.172H449.21V173.09H445.584ZM453.858 171.172V181H451.464V171.172H453.858ZM467.423 171.172V181H465.029V175.106L462.831 181H460.899L458.687 175.092V181H456.293V171.172H459.121L461.879 177.976L464.609 171.172H467.423Z" fill="#43484B"/>
<path d="M396.986 200.264H393.318L392.73 202H390.224L393.78 192.172H396.552L400.108 202H397.574L396.986 200.264ZM396.37 198.416L395.152 194.818L393.948 198.416H396.37ZM404.284 200.152H407.42V202H401.89V192.172H404.284V200.152ZM416.332 192.172V194.09H413.728V202H411.334V194.09H408.73V192.172H416.332ZM417.758 198.08C417.758 197.277 417.907 196.573 418.206 195.966C418.514 195.359 418.929 194.893 419.452 194.566C419.974 194.239 420.558 194.076 421.202 194.076C421.752 194.076 422.233 194.188 422.644 194.412C423.064 194.636 423.386 194.93 423.61 195.294V194.188H426.004V202H423.61V200.894C423.376 201.258 423.05 201.552 422.63 201.776C422.219 202 421.738 202.112 421.188 202.112C420.553 202.112 419.974 201.949 419.452 201.622C418.929 201.286 418.514 200.815 418.206 200.208C417.907 199.592 417.758 198.883 417.758 198.08ZM423.61 198.094C423.61 197.497 423.442 197.025 423.106 196.68C422.779 196.335 422.378 196.162 421.902 196.162C421.426 196.162 421.02 196.335 420.684 196.68C420.357 197.016 420.194 197.483 420.194 198.08C420.194 198.677 420.357 199.153 420.684 199.508C421.02 199.853 421.426 200.026 421.902 200.026C422.378 200.026 422.779 199.853 423.106 199.508C423.442 199.163 423.61 198.691 423.61 198.094Z" fill="#43484B"/>
<path d="M395.516 223.098C394.592 223.098 393.743 222.883 392.968 222.454C392.203 222.025 391.591 221.427 391.134 220.662C390.686 219.887 390.462 219.019 390.462 218.058C390.462 217.097 390.686 216.233 391.134 215.468C391.591 214.703 392.203 214.105 392.968 213.676C393.743 213.247 394.592 213.032 395.516 213.032C396.44 213.032 397.285 213.247 398.05 213.676C398.825 214.105 399.431 214.703 399.87 215.468C400.318 216.233 400.542 217.097 400.542 218.058C400.542 219.019 400.318 219.887 399.87 220.662C399.422 221.427 398.815 222.025 398.05 222.454C397.285 222.883 396.44 223.098 395.516 223.098ZM395.516 220.914C396.3 220.914 396.925 220.653 397.392 220.13C397.868 219.607 398.106 218.917 398.106 218.058C398.106 217.19 397.868 216.499 397.392 215.986C396.925 215.463 396.3 215.202 395.516 215.202C394.723 215.202 394.088 215.459 393.612 215.972C393.145 216.485 392.912 217.181 392.912 218.058C392.912 218.926 393.145 219.621 393.612 220.144C394.088 220.657 394.723 220.914 395.516 220.914ZM406.13 223.098C405.411 223.098 404.767 222.981 404.198 222.748C403.629 222.515 403.171 222.169 402.826 221.712C402.49 221.255 402.313 220.704 402.294 220.06H404.842C404.879 220.424 405.005 220.704 405.22 220.9C405.435 221.087 405.715 221.18 406.06 221.18C406.415 221.18 406.695 221.101 406.9 220.942C407.105 220.774 407.208 220.545 407.208 220.256C407.208 220.013 407.124 219.813 406.956 219.654C406.797 219.495 406.597 219.365 406.354 219.262C406.121 219.159 405.785 219.043 405.346 218.912C404.711 218.716 404.193 218.52 403.792 218.324C403.391 218.128 403.045 217.839 402.756 217.456C402.467 217.073 402.322 216.574 402.322 215.958C402.322 215.043 402.653 214.329 403.316 213.816C403.979 213.293 404.842 213.032 405.906 213.032C406.989 213.032 407.861 213.293 408.524 213.816C409.187 214.329 409.541 215.048 409.588 215.972H406.998C406.979 215.655 406.863 215.407 406.648 215.23C406.433 215.043 406.158 214.95 405.822 214.95C405.533 214.95 405.299 215.029 405.122 215.188C404.945 215.337 404.856 215.557 404.856 215.846C404.856 216.163 405.005 216.411 405.304 216.588C405.603 216.765 406.069 216.957 406.704 217.162C407.339 217.377 407.852 217.582 408.244 217.778C408.645 217.974 408.991 218.259 409.28 218.632C409.569 219.005 409.714 219.486 409.714 220.074C409.714 220.634 409.569 221.143 409.28 221.6C409 222.057 408.589 222.421 408.048 222.692C407.507 222.963 406.867 223.098 406.13 223.098ZM414.281 221.152H417.417V223H411.887V213.172H414.281V221.152ZM423.907 223.098C422.983 223.098 422.134 222.883 421.359 222.454C420.594 222.025 419.982 221.427 419.525 220.662C419.077 219.887 418.853 219.019 418.853 218.058C418.853 217.097 419.077 216.233 419.525 215.468C419.982 214.703 420.594 214.105 421.359 213.676C422.134 213.247 422.983 213.032 423.907 213.032C424.831 213.032 425.676 213.247 426.441 213.676C427.216 214.105 427.822 214.703 428.261 215.468C428.709 216.233 428.933 217.097 428.933 218.058C428.933 219.019 428.709 219.887 428.261 220.662C427.813 221.427 427.206 222.025 426.441 222.454C425.676 222.883 424.831 223.098 423.907 223.098ZM423.907 220.914C424.691 220.914 425.316 220.653 425.783 220.13C426.259 219.607 426.497 218.917 426.497 218.058C426.497 217.19 426.259 216.499 425.783 215.986C425.316 215.463 424.691 215.202 423.907 215.202C423.114 215.202 422.479 215.459 422.003 215.972C421.536 216.485 421.303 217.181 421.303 218.058C421.303 218.926 421.536 219.621 422.003 220.144C422.479 220.657 423.114 220.914 423.907 220.914Z" fill="#43484B"/>
<path d="M395.516 244.098C394.592 244.098 393.743 243.883 392.968 243.454C392.203 243.025 391.591 242.427 391.134 241.662C390.686 240.887 390.462 240.019 390.462 239.058C390.462 238.097 390.686 237.233 391.134 236.468C391.591 235.703 392.203 235.105 392.968 234.676C393.743 234.247 394.592 234.032 395.516 234.032C396.44 234.032 397.285 234.247 398.05 234.676C398.825 235.105 399.431 235.703 399.87 236.468C400.318 237.233 400.542 238.097 400.542 239.058C400.542 240.019 400.318 240.887 399.87 241.662C399.422 242.427 398.815 243.025 398.05 243.454C397.285 243.883 396.44 244.098 395.516 244.098ZM395.516 241.914C396.3 241.914 396.925 241.653 397.392 241.13C397.868 240.607 398.106 239.917 398.106 239.058C398.106 238.19 397.868 237.499 397.392 236.986C396.925 236.463 396.3 236.202 395.516 236.202C394.723 236.202 394.088 236.459 393.612 236.972C393.145 237.485 392.912 238.181 392.912 239.058C392.912 239.926 393.145 240.621 393.612 241.144C394.088 241.657 394.723 241.914 395.516 241.914ZM406.13 244.098C405.411 244.098 404.767 243.981 404.198 243.748C403.629 243.515 403.171 243.169 402.826 242.712C402.49 242.255 402.313 241.704 402.294 241.06H404.842C404.879 241.424 405.005 241.704 405.22 241.9C405.435 242.087 405.715 242.18 406.06 242.18C406.415 242.18 406.695 242.101 406.9 241.942C407.105 241.774 407.208 241.545 407.208 241.256C407.208 241.013 407.124 240.813 406.956 240.654C406.797 240.495 406.597 240.365 406.354 240.262C406.121 240.159 405.785 240.043 405.346 239.912C404.711 239.716 404.193 239.52 403.792 239.324C403.391 239.128 403.045 238.839 402.756 238.456C402.467 238.073 402.322 237.574 402.322 236.958C402.322 236.043 402.653 235.329 403.316 234.816C403.979 234.293 404.842 234.032 405.906 234.032C406.989 234.032 407.861 234.293 408.524 234.816C409.187 235.329 409.541 236.048 409.588 236.972H406.998C406.979 236.655 406.863 236.407 406.648 236.23C406.433 236.043 406.158 235.95 405.822 235.95C405.533 235.95 405.299 236.029 405.122 236.188C404.945 236.337 404.856 236.557 404.856 236.846C404.856 237.163 405.005 237.411 405.304 237.588C405.603 237.765 406.069 237.957 406.704 238.162C407.339 238.377 407.852 238.582 408.244 238.778C408.645 238.974 408.991 239.259 409.28 239.632C409.569 240.005 409.714 240.486 409.714 241.074C409.714 241.634 409.569 242.143 409.28 242.6C409 243.057 408.589 243.421 408.048 243.692C407.507 243.963 406.867 244.098 406.13 244.098ZM414.281 242.152H417.417V244H411.887V234.172H414.281V242.152ZM423.907 244.098C422.983 244.098 422.134 243.883 421.359 243.454C420.594 243.025 419.982 242.427 419.525 241.662C419.077 240.887 418.853 240.019 418.853 239.058C418.853 238.097 419.077 237.233 419.525 236.468C419.982 235.703 420.594 235.105 421.359 234.676C422.134 234.247 422.983 234.032 423.907 234.032C424.831 234.032 425.676 234.247 426.441 234.676C427.216 235.105 427.822 235.703 428.261 236.468C428.709 237.233 428.933 238.097 428.933 239.058C428.933 240.019 428.709 240.887 428.261 241.662C427.813 242.427 427.206 243.025 426.441 243.454C425.676 243.883 424.831 244.098 423.907 244.098ZM423.907 241.914C424.691 241.914 425.316 241.653 425.783 241.13C426.259 240.607 426.497 239.917 426.497 239.058C426.497 238.19 426.259 237.499 425.783 236.986C425.316 236.463 424.691 236.202 423.907 236.202C423.114 236.202 422.479 236.459 422.003 236.972C421.536 237.485 421.303 238.181 421.303 239.058C421.303 239.926 421.536 240.621 422.003 241.144C422.479 241.657 423.114 241.914 423.907 241.914Z" fill="#43484B"/>
<path d="M557.986 137.264H554.318L553.73 139H551.224L554.78 129.172H557.552L561.108 139H558.574L557.986 137.264ZM557.37 135.416L556.152 131.818L554.948 135.416H557.37ZM565.284 137.152H568.42V139H562.89V129.172H565.284V137.152ZM577.332 129.172V131.09H574.728V139H572.334V131.09H569.73V129.172H577.332ZM585.352 137.264H581.684L581.096 139H578.59L582.146 129.172H584.918L588.474 139H585.94L585.352 137.264ZM584.736 135.416L583.518 131.818L582.314 135.416H584.736Z" fill="#43484B"/>
<path d="M558.938 150.172V152.09H556.334V160H553.94V152.09H551.336V150.172H558.938ZM565.851 160L563.807 156.29H563.233V160H560.839V150.172H564.857C565.632 150.172 566.29 150.307 566.831 150.578C567.382 150.849 567.793 151.222 568.063 151.698C568.334 152.165 568.469 152.687 568.469 153.266C568.469 153.919 568.283 154.503 567.909 155.016C567.545 155.529 567.004 155.893 566.285 156.108L568.553 160H565.851ZM563.233 154.596H564.717C565.156 154.596 565.483 154.489 565.697 154.274C565.921 154.059 566.033 153.756 566.033 153.364C566.033 152.991 565.921 152.697 565.697 152.482C565.483 152.267 565.156 152.16 564.717 152.16H563.233V154.596ZM575.32 160.098C574.396 160.098 573.547 159.883 572.772 159.454C572.007 159.025 571.396 158.427 570.938 157.662C570.49 156.887 570.266 156.019 570.266 155.058C570.266 154.097 570.49 153.233 570.938 152.468C571.396 151.703 572.007 151.105 572.772 150.676C573.547 150.247 574.396 150.032 575.32 150.032C576.244 150.032 577.089 150.247 577.854 150.676C578.629 151.105 579.236 151.703 579.674 152.468C580.122 153.233 580.346 154.097 580.346 155.058C580.346 156.019 580.122 156.887 579.674 157.662C579.226 158.427 578.62 159.025 577.854 159.454C577.089 159.883 576.244 160.098 575.32 160.098ZM575.32 157.914C576.104 157.914 576.73 157.653 577.196 157.13C577.672 156.607 577.91 155.917 577.91 155.058C577.91 154.19 577.672 153.499 577.196 152.986C576.73 152.463 576.104 152.202 575.32 152.202C574.527 152.202 573.892 152.459 573.416 152.972C572.95 153.485 572.716 154.181 572.716 155.058C572.716 155.926 572.95 156.621 573.416 157.144C573.892 157.657 574.527 157.914 575.32 157.914ZM586.06 150.172C587.096 150.172 588.001 150.377 588.776 150.788C589.551 151.199 590.148 151.777 590.568 152.524C590.997 153.261 591.212 154.115 591.212 155.086C591.212 156.047 590.997 156.901 590.568 157.648C590.148 158.395 589.546 158.973 588.762 159.384C587.987 159.795 587.087 160 586.06 160H582.378V150.172H586.06ZM585.906 157.928C586.811 157.928 587.516 157.681 588.02 157.186C588.524 156.691 588.776 155.991 588.776 155.086C588.776 154.181 588.524 153.476 588.02 152.972C587.516 152.468 586.811 152.216 585.906 152.216H584.772V157.928H585.906ZM601.762 150.172V160H599.368V155.954H595.644V160H593.25V150.172H595.644V154.022H599.368V150.172H601.762ZM606.584 152.09V154.078H609.79V155.926H606.584V158.082H610.21V160H604.19V150.172H610.21V152.09H606.584ZM614.858 150.172V160H612.464V150.172H614.858ZM628.423 150.172V160H626.029V154.106L623.831 160H621.899L619.687 154.092V160H617.293V150.172H620.121L622.879 156.976L625.609 150.172H628.423Z" fill="#43484B"/>
<path d="M556.516 181.098C555.592 181.098 554.743 180.883 553.968 180.454C553.203 180.025 552.591 179.427 552.134 178.662C551.686 177.887 551.462 177.019 551.462 176.058C551.462 175.097 551.686 174.233 552.134 173.468C552.591 172.703 553.203 172.105 553.968 171.676C554.743 171.247 555.592 171.032 556.516 171.032C557.44 171.032 558.285 171.247 559.05 171.676C559.825 172.105 560.431 172.703 560.87 173.468C561.318 174.233 561.542 175.097 561.542 176.058C561.542 177.019 561.318 177.887 560.87 178.662C560.422 179.427 559.815 180.025 559.05 180.454C558.285 180.883 557.44 181.098 556.516 181.098ZM556.516 178.914C557.3 178.914 557.925 178.653 558.392 178.13C558.868 177.607 559.106 176.917 559.106 176.058C559.106 175.19 558.868 174.499 558.392 173.986C557.925 173.463 557.3 173.202 556.516 173.202C555.723 173.202 555.088 173.459 554.612 173.972C554.145 174.485 553.912 175.181 553.912 176.058C553.912 176.926 554.145 177.621 554.612 178.144C555.088 178.657 555.723 178.914 556.516 178.914ZM567.13 181.098C566.411 181.098 565.767 180.981 565.198 180.748C564.629 180.515 564.171 180.169 563.826 179.712C563.49 179.255 563.313 178.704 563.294 178.06H565.842C565.879 178.424 566.005 178.704 566.22 178.9C566.435 179.087 566.715 179.18 567.06 179.18C567.415 179.18 567.695 179.101 567.9 178.942C568.105 178.774 568.208 178.545 568.208 178.256C568.208 178.013 568.124 177.813 567.956 177.654C567.797 177.495 567.597 177.365 567.354 177.262C567.121 177.159 566.785 177.043 566.346 176.912C565.711 176.716 565.193 176.52 564.792 176.324C564.391 176.128 564.045 175.839 563.756 175.456C563.467 175.073 563.322 174.574 563.322 173.958C563.322 173.043 563.653 172.329 564.316 171.816C564.979 171.293 565.842 171.032 566.906 171.032C567.989 171.032 568.861 171.293 569.524 171.816C570.187 172.329 570.541 173.048 570.588 173.972H567.998C567.979 173.655 567.863 173.407 567.648 173.23C567.433 173.043 567.158 172.95 566.822 172.95C566.533 172.95 566.299 173.029 566.122 173.188C565.945 173.337 565.856 173.557 565.856 173.846C565.856 174.163 566.005 174.411 566.304 174.588C566.603 174.765 567.069 174.957 567.704 175.162C568.339 175.377 568.852 175.582 569.244 175.778C569.645 175.974 569.991 176.259 570.28 176.632C570.569 177.005 570.714 177.486 570.714 178.074C570.714 178.634 570.569 179.143 570.28 179.6C570 180.057 569.589 180.421 569.048 180.692C568.507 180.963 567.867 181.098 567.13 181.098ZM575.281 179.152H578.417V181H572.887V171.172H575.281V179.152ZM584.907 181.098C583.983 181.098 583.134 180.883 582.359 180.454C581.594 180.025 580.982 179.427 580.525 178.662C580.077 177.887 579.853 177.019 579.853 176.058C579.853 175.097 580.077 174.233 580.525 173.468C580.982 172.703 581.594 172.105 582.359 171.676C583.134 171.247 583.983 171.032 584.907 171.032C585.831 171.032 586.676 171.247 587.441 171.676C588.216 172.105 588.822 172.703 589.261 173.468C589.709 174.233 589.933 175.097 589.933 176.058C589.933 177.019 589.709 177.887 589.261 178.662C588.813 179.427 588.206 180.025 587.441 180.454C586.676 180.883 585.831 181.098 584.907 181.098ZM584.907 178.914C585.691 178.914 586.316 178.653 586.783 178.13C587.259 177.607 587.497 176.917 587.497 176.058C587.497 175.19 587.259 174.499 586.783 173.986C586.316 173.463 585.691 173.202 584.907 173.202C584.114 173.202 583.479 173.459 583.003 173.972C582.536 174.485 582.303 175.181 582.303 176.058C582.303 176.926 582.536 177.621 583.003 178.144C583.479 178.657 584.114 178.914 584.907 178.914Z" fill="#43484B"/>
<path d="M556.516 202.098C555.592 202.098 554.743 201.883 553.968 201.454C553.203 201.025 552.591 200.427 552.134 199.662C551.686 198.887 551.462 198.019 551.462 197.058C551.462 196.097 551.686 195.233 552.134 194.468C552.591 193.703 553.203 193.105 553.968 192.676C554.743 192.247 555.592 192.032 556.516 192.032C557.44 192.032 558.285 192.247 559.05 192.676C559.825 193.105 560.431 193.703 560.87 194.468C561.318 195.233 561.542 196.097 561.542 197.058C561.542 198.019 561.318 198.887 560.87 199.662C560.422 200.427 559.815 201.025 559.05 201.454C558.285 201.883 557.44 202.098 556.516 202.098ZM556.516 199.914C557.3 199.914 557.925 199.653 558.392 199.13C558.868 198.607 559.106 197.917 559.106 197.058C559.106 196.19 558.868 195.499 558.392 194.986C557.925 194.463 557.3 194.202 556.516 194.202C555.723 194.202 555.088 194.459 554.612 194.972C554.145 195.485 553.912 196.181 553.912 197.058C553.912 197.926 554.145 198.621 554.612 199.144C555.088 199.657 555.723 199.914 556.516 199.914ZM567.13 202.098C566.411 202.098 565.767 201.981 565.198 201.748C564.629 201.515 564.171 201.169 563.826 200.712C563.49 200.255 563.313 199.704 563.294 199.06H565.842C565.879 199.424 566.005 199.704 566.22 199.9C566.435 200.087 566.715 200.18 567.06 200.18C567.415 200.18 567.695 200.101 567.9 199.942C568.105 199.774 568.208 199.545 568.208 199.256C568.208 199.013 568.124 198.813 567.956 198.654C567.797 198.495 567.597 198.365 567.354 198.262C567.121 198.159 566.785 198.043 566.346 197.912C565.711 197.716 565.193 197.52 564.792 197.324C564.391 197.128 564.045 196.839 563.756 196.456C563.467 196.073 563.322 195.574 563.322 194.958C563.322 194.043 563.653 193.329 564.316 192.816C564.979 192.293 565.842 192.032 566.906 192.032C567.989 192.032 568.861 192.293 569.524 192.816C570.187 193.329 570.541 194.048 570.588 194.972H567.998C567.979 194.655 567.863 194.407 567.648 194.23C567.433 194.043 567.158 193.95 566.822 193.95C566.533 193.95 566.299 194.029 566.122 194.188C565.945 194.337 565.856 194.557 565.856 194.846C565.856 195.163 566.005 195.411 566.304 195.588C566.603 195.765 567.069 195.957 567.704 196.162C568.339 196.377 568.852 196.582 569.244 196.778C569.645 196.974 569.991 197.259 570.28 197.632C570.569 198.005 570.714 198.486 570.714 199.074C570.714 199.634 570.569 200.143 570.28 200.6C570 201.057 569.589 201.421 569.048 201.692C568.507 201.963 567.867 202.098 567.13 202.098ZM575.281 200.152H578.417V202H572.887V192.172H575.281V200.152ZM584.907 202.098C583.983 202.098 583.134 201.883 582.359 201.454C581.594 201.025 580.982 200.427 580.525 199.662C580.077 198.887 579.853 198.019 579.853 197.058C579.853 196.097 580.077 195.233 580.525 194.468C580.982 193.703 581.594 193.105 582.359 192.676C583.134 192.247 583.983 192.032 584.907 192.032C585.831 192.032 586.676 192.247 587.441 192.676C588.216 193.105 588.822 193.703 589.261 194.468C589.709 195.233 589.933 196.097 589.933 197.058C589.933 198.019 589.709 198.887 589.261 199.662C588.813 200.427 588.206 201.025 587.441 201.454C586.676 201.883 585.831 202.098 584.907 202.098ZM584.907 199.914C585.691 199.914 586.316 199.653 586.783 199.13C587.259 198.607 587.497 197.917 587.497 197.058C587.497 196.19 587.259 195.499 586.783 194.986C586.316 194.463 585.691 194.202 584.907 194.202C584.114 194.202 583.479 194.459 583.003 194.972C582.536 195.485 582.303 196.181 582.303 197.058C582.303 197.926 582.536 198.621 583.003 199.144C583.479 199.657 584.114 199.914 584.907 199.914Z" fill="#43484B"/>
<path d="M557.818 217.96C558.387 218.081 558.845 218.366 559.19 218.814C559.535 219.253 559.708 219.757 559.708 220.326C559.708 221.147 559.419 221.801 558.84 222.286C558.271 222.762 557.473 223 556.446 223H551.868V213.172H556.292C557.291 213.172 558.07 213.401 558.63 213.858C559.199 214.315 559.484 214.936 559.484 215.72C559.484 216.299 559.33 216.779 559.022 217.162C558.723 217.545 558.322 217.811 557.818 217.96ZM554.262 217.148H555.83C556.222 217.148 556.521 217.064 556.726 216.896C556.941 216.719 557.048 216.462 557.048 216.126C557.048 215.79 556.941 215.533 556.726 215.356C556.521 215.179 556.222 215.09 555.83 215.09H554.262V217.148ZM556.026 221.068C556.427 221.068 556.735 220.979 556.95 220.802C557.174 220.615 557.286 220.349 557.286 220.004C557.286 219.659 557.169 219.388 556.936 219.192C556.712 218.996 556.399 218.898 555.998 218.898H554.262V221.068H556.026ZM564.191 215.09V217.078H567.397V218.926H564.191V221.082H567.817V223H561.797V213.172H567.817V215.09H564.191ZM575.083 223L573.039 219.29H572.465V223H570.071V213.172H574.089C574.863 213.172 575.521 213.307 576.063 213.578C576.613 213.849 577.024 214.222 577.295 214.698C577.565 215.165 577.701 215.687 577.701 216.266C577.701 216.919 577.514 217.503 577.141 218.016C576.777 218.529 576.235 218.893 575.517 219.108L577.785 223H575.083ZM572.465 217.596H573.949C574.387 217.596 574.714 217.489 574.929 217.274C575.153 217.059 575.265 216.756 575.265 216.364C575.265 215.991 575.153 215.697 574.929 215.482C574.714 215.267 574.387 215.16 573.949 215.16H572.465V217.596ZM586.428 216.28C586.25 215.953 585.994 215.706 585.658 215.538C585.331 215.361 584.944 215.272 584.496 215.272C583.721 215.272 583.1 215.529 582.634 216.042C582.167 216.546 581.934 217.223 581.934 218.072C581.934 218.977 582.176 219.687 582.662 220.2C583.156 220.704 583.833 220.956 584.692 220.956C585.28 220.956 585.774 220.807 586.176 220.508C586.586 220.209 586.885 219.78 587.072 219.22H584.034V217.456H589.242V219.682C589.064 220.279 588.761 220.835 588.332 221.348C587.912 221.861 587.375 222.277 586.722 222.594C586.068 222.911 585.331 223.07 584.51 223.07C583.539 223.07 582.671 222.86 581.906 222.44C581.15 222.011 580.557 221.418 580.128 220.662C579.708 219.906 579.498 219.043 579.498 218.072C579.498 217.101 579.708 216.238 580.128 215.482C580.557 214.717 581.15 214.124 581.906 213.704C582.662 213.275 583.525 213.06 584.496 213.06C585.672 213.06 586.661 213.345 587.464 213.914C588.276 214.483 588.812 215.272 589.074 216.28H586.428ZM593.662 215.09V217.078H596.868V218.926H593.662V221.082H597.288V223H591.268V213.172H597.288V215.09H593.662ZM608.334 223H605.94L601.936 216.938V223H599.542V213.172H601.936L605.94 219.262V213.172H608.334V223Z" fill="#43484B"/>
<path d="M557.818 238.96C558.387 239.081 558.845 239.366 559.19 239.814C559.535 240.253 559.708 240.757 559.708 241.326C559.708 242.147 559.419 242.801 558.84 243.286C558.271 243.762 557.473 244 556.446 244H551.868V234.172H556.292C557.291 234.172 558.07 234.401 558.63 234.858C559.199 235.315 559.484 235.936 559.484 236.72C559.484 237.299 559.33 237.779 559.022 238.162C558.723 238.545 558.322 238.811 557.818 238.96ZM554.262 238.148H555.83C556.222 238.148 556.521 238.064 556.726 237.896C556.941 237.719 557.048 237.462 557.048 237.126C557.048 236.79 556.941 236.533 556.726 236.356C556.521 236.179 556.222 236.09 555.83 236.09H554.262V238.148ZM556.026 242.068C556.427 242.068 556.735 241.979 556.95 241.802C557.174 241.615 557.286 241.349 557.286 241.004C557.286 240.659 557.169 240.388 556.936 240.192C556.712 239.996 556.399 239.898 555.998 239.898H554.262V242.068H556.026ZM564.191 236.09V238.078H567.397V239.926H564.191V242.082H567.817V244H561.797V234.172H567.817V236.09H564.191ZM575.083 244L573.039 240.29H572.465V244H570.071V234.172H574.089C574.863 234.172 575.521 234.307 576.063 234.578C576.613 234.849 577.024 235.222 577.295 235.698C577.565 236.165 577.701 236.687 577.701 237.266C577.701 237.919 577.514 238.503 577.141 239.016C576.777 239.529 576.235 239.893 575.517 240.108L577.785 244H575.083ZM572.465 238.596H573.949C574.387 238.596 574.714 238.489 574.929 238.274C575.153 238.059 575.265 237.756 575.265 237.364C575.265 236.991 575.153 236.697 574.929 236.482C574.714 236.267 574.387 236.16 573.949 236.16H572.465V238.596ZM586.428 237.28C586.25 236.953 585.994 236.706 585.658 236.538C585.331 236.361 584.944 236.272 584.496 236.272C583.721 236.272 583.1 236.529 582.634 237.042C582.167 237.546 581.934 238.223 581.934 239.072C581.934 239.977 582.176 240.687 582.662 241.2C583.156 241.704 583.833 241.956 584.692 241.956C585.28 241.956 585.774 241.807 586.176 241.508C586.586 241.209 586.885 240.78 587.072 240.22H584.034V238.456H589.242V240.682C589.064 241.279 588.761 241.835 588.332 242.348C587.912 242.861 587.375 243.277 586.722 243.594C586.068 243.911 585.331 244.07 584.51 244.07C583.539 244.07 582.671 243.86 581.906 243.44C581.15 243.011 580.557 242.418 580.128 241.662C579.708 240.906 579.498 240.043 579.498 239.072C579.498 238.101 579.708 237.238 580.128 236.482C580.557 235.717 581.15 235.124 581.906 234.704C582.662 234.275 583.525 234.06 584.496 234.06C585.672 234.06 586.661 234.345 587.464 234.914C588.276 235.483 588.812 236.272 589.074 237.28H586.428ZM593.662 236.09V238.078H596.868V239.926H593.662V242.082H597.288V244H591.268V234.172H597.288V236.09H593.662ZM608.334 244H605.94L601.936 237.938V244H599.542V234.172H601.936L605.94 240.262V234.172H608.334V244Z" fill="#43484B"/>
<path d="M662.546 137.082C662.863 136.83 663.008 136.713 662.98 136.732C663.895 135.976 664.613 135.355 665.136 134.87C665.668 134.385 666.116 133.876 666.48 133.344C666.844 132.812 667.026 132.294 667.026 131.79C667.026 131.407 666.937 131.109 666.76 130.894C666.583 130.679 666.317 130.572 665.962 130.572C665.607 130.572 665.327 130.707 665.122 130.978C664.926 131.239 664.828 131.613 664.828 132.098H662.518C662.537 131.305 662.705 130.642 663.022 130.11C663.349 129.578 663.773 129.186 664.296 128.934C664.828 128.682 665.416 128.556 666.06 128.556C667.171 128.556 668.006 128.841 668.566 129.41C669.135 129.979 669.42 130.721 669.42 131.636C669.42 132.635 669.079 133.563 668.398 134.422C667.717 135.271 666.849 136.102 665.794 136.914H669.574V138.86H662.546V137.082ZM671.384 137.18V135.248L675.808 128.92H678.482V135.108H679.63V137.18H678.482V139H676.088V137.18H671.384ZM676.256 131.552L673.904 135.108H676.256V131.552ZM687.859 137.264H684.191L683.603 139H681.097L684.653 129.172H687.425L690.981 139H688.447L687.859 137.264ZM687.243 135.416L686.025 131.818L684.821 135.416H687.243Z" fill="#43484B"/>
<path d="M662.378 152.006V149.78H666.256V160H663.764V152.006H662.378ZM671.226 152.09V154.078H674.432V155.926H671.226V158.082H674.852V160H668.832V150.172H674.852V152.09H671.226Z" fill="#43484B"/>
<path d="M662.546 179.082C662.863 178.83 663.008 178.713 662.98 178.732C663.895 177.976 664.613 177.355 665.136 176.87C665.668 176.385 666.116 175.876 666.48 175.344C666.844 174.812 667.026 174.294 667.026 173.79C667.026 173.407 666.937 173.109 666.76 172.894C666.583 172.679 666.317 172.572 665.962 172.572C665.607 172.572 665.327 172.707 665.122 172.978C664.926 173.239 664.828 173.613 664.828 174.098H662.518C662.537 173.305 662.705 172.642 663.022 172.11C663.349 171.578 663.773 171.186 664.296 170.934C664.828 170.682 665.416 170.556 666.06 170.556C667.171 170.556 668.006 170.841 668.566 171.41C669.135 171.979 669.42 172.721 669.42 173.636C669.42 174.635 669.079 175.563 668.398 176.422C667.717 177.271 666.849 178.102 665.794 178.914H669.574V180.86H662.546V179.082ZM671.244 179.082C671.561 178.83 671.706 178.713 671.678 178.732C672.593 177.976 673.311 177.355 673.834 176.87C674.366 176.385 674.814 175.876 675.178 175.344C675.542 174.812 675.724 174.294 675.724 173.79C675.724 173.407 675.635 173.109 675.458 172.894C675.281 172.679 675.015 172.572 674.66 172.572C674.305 172.572 674.025 172.707 673.82 172.978C673.624 173.239 673.526 173.613 673.526 174.098H671.216C671.235 173.305 671.403 172.642 671.72 172.11C672.047 171.578 672.471 171.186 672.994 170.934C673.526 170.682 674.114 170.556 674.758 170.556C675.869 170.556 676.704 170.841 677.264 171.41C677.833 171.979 678.118 172.721 678.118 173.636C678.118 174.635 677.777 175.563 677.096 176.422C676.415 177.271 675.547 178.102 674.492 178.914H678.272V180.86H671.244V179.082ZM679.858 176.072C679.858 175.101 680.068 174.238 680.488 173.482C680.908 172.717 681.491 172.124 682.238 171.704C682.994 171.275 683.848 171.06 684.8 171.06C685.967 171.06 686.965 171.368 687.796 171.984C688.627 172.6 689.182 173.44 689.462 174.504H686.83C686.634 174.093 686.354 173.781 685.99 173.566C685.635 173.351 685.229 173.244 684.772 173.244C684.035 173.244 683.437 173.501 682.98 174.014C682.523 174.527 682.294 175.213 682.294 176.072C682.294 176.931 682.523 177.617 682.98 178.13C683.437 178.643 684.035 178.9 684.772 178.9C685.229 178.9 685.635 178.793 685.99 178.578C686.354 178.363 686.634 178.051 686.83 177.64H689.462C689.182 178.704 688.627 179.544 687.796 180.16C686.965 180.767 685.967 181.07 684.8 181.07C683.848 181.07 682.994 180.86 682.238 180.44C681.491 180.011 680.908 179.418 680.488 178.662C680.068 177.906 679.858 177.043 679.858 176.072Z" fill="#43484B"/>
<path d="M662.686 200.18V198.248L667.11 191.92H669.784V198.108H670.932V200.18H669.784V202H667.39V200.18H662.686ZM667.558 194.552L665.206 198.108H667.558V194.552ZM672.861 200.18V198.248L677.285 191.92H679.959V198.108H681.107V200.18H679.959V202H677.565V200.18H672.861ZM677.733 194.552L675.381 198.108H677.733V194.552ZM686.899 192.172C687.935 192.172 688.841 192.377 689.615 192.788C690.39 193.199 690.987 193.777 691.407 194.524C691.837 195.261 692.051 196.115 692.051 197.086C692.051 198.047 691.837 198.901 691.407 199.648C690.987 200.395 690.385 200.973 689.601 201.384C688.827 201.795 687.926 202 686.899 202H683.217V192.172H686.899ZM686.745 199.928C687.651 199.928 688.355 199.681 688.859 199.186C689.363 198.691 689.615 197.991 689.615 197.086C689.615 196.181 689.363 195.476 688.859 194.972C688.355 194.468 687.651 194.216 686.745 194.216H685.611V199.928H686.745Z" fill="#43484B"/>
<path d="M662.546 221.082C662.863 220.83 663.008 220.713 662.98 220.732C663.895 219.976 664.613 219.355 665.136 218.87C665.668 218.385 666.116 217.876 666.48 217.344C666.844 216.812 667.026 216.294 667.026 215.79C667.026 215.407 666.937 215.109 666.76 214.894C666.583 214.679 666.317 214.572 665.962 214.572C665.607 214.572 665.327 214.707 665.122 214.978C664.926 215.239 664.828 215.613 664.828 216.098H662.518C662.537 215.305 662.705 214.642 663.022 214.11C663.349 213.578 663.773 213.186 664.296 212.934C664.828 212.682 665.416 212.556 666.06 212.556C667.171 212.556 668.006 212.841 668.566 213.41C669.135 213.979 669.42 214.721 669.42 215.636C669.42 216.635 669.079 217.563 668.398 218.422C667.717 219.271 666.849 220.102 665.794 220.914H669.574V222.86H662.546V221.082ZM677.516 217.96C678.085 218.081 678.543 218.366 678.888 218.814C679.233 219.253 679.406 219.757 679.406 220.326C679.406 221.147 679.117 221.801 678.538 222.286C677.969 222.762 677.171 223 676.144 223H671.566V213.172H675.99C676.989 213.172 677.768 213.401 678.328 213.858C678.897 214.315 679.182 214.936 679.182 215.72C679.182 216.299 679.028 216.779 678.72 217.162C678.421 217.545 678.02 217.811 677.516 217.96ZM673.96 217.148H675.528C675.92 217.148 676.219 217.064 676.424 216.896C676.639 216.719 676.746 216.462 676.746 216.126C676.746 215.79 676.639 215.533 676.424 215.356C676.219 215.179 675.92 215.09 675.528 215.09H673.96V217.148ZM675.724 221.068C676.125 221.068 676.433 220.979 676.648 220.802C676.872 220.615 676.984 220.349 676.984 220.004C676.984 219.659 676.867 219.388 676.634 219.192C676.41 218.996 676.097 218.898 675.696 218.898H673.96V221.068H675.724Z" fill="#43484B"/>
<path d="M662.686 242.18V240.248L667.11 233.92H669.784V240.108H670.932V242.18H669.784V244H667.39V242.18H662.686ZM667.558 236.552L665.206 240.108H667.558V236.552ZM678.993 238.96C679.562 239.081 680.019 239.366 680.365 239.814C680.71 240.253 680.883 240.757 680.883 241.326C680.883 242.147 680.593 242.801 680.015 243.286C679.445 243.762 678.647 244 677.621 244H673.043V234.172H677.467C678.465 234.172 679.245 234.401 679.805 234.858C680.374 235.315 680.659 235.936 680.659 236.72C680.659 237.299 680.505 237.779 680.197 238.162C679.898 238.545 679.497 238.811 678.993 238.96ZM675.437 238.148H677.005C677.397 238.148 677.695 238.064 677.901 237.896C678.115 237.719 678.223 237.462 678.223 237.126C678.223 236.79 678.115 236.533 677.901 236.356C677.695 236.179 677.397 236.09 677.005 236.09H675.437V238.148ZM677.201 242.068C677.602 242.068 677.91 241.979 678.125 241.802C678.349 241.615 678.461 241.349 678.461 241.004C678.461 240.659 678.344 240.388 678.111 240.192C677.887 239.996 677.574 239.898 677.173 239.898H675.437V242.068H677.201Z" fill="#43484B"/>
<path d="M296.378 154.006V151.78H300.256V162H297.764V154.006H296.378ZM302.51 160.082C302.827 159.83 302.972 159.713 302.944 159.732C303.858 158.976 304.577 158.355 305.1 157.87C305.632 157.385 306.08 156.876 306.444 156.344C306.808 155.812 306.99 155.294 306.99 154.79C306.99 154.407 306.901 154.109 306.724 153.894C306.546 153.679 306.28 153.572 305.926 153.572C305.571 153.572 305.291 153.707 305.086 153.978C304.89 154.239 304.792 154.613 304.792 155.098H302.482C302.5 154.305 302.668 153.642 302.986 153.11C303.312 152.578 303.737 152.186 304.26 151.934C304.792 151.682 305.38 151.556 306.024 151.556C307.134 151.556 307.97 151.841 308.53 152.41C309.099 152.979 309.384 153.721 309.384 154.636C309.384 155.635 309.043 156.563 308.362 157.422C307.68 158.271 306.812 159.102 305.758 159.914H309.538V161.86H302.51V160.082ZM312.65 162.112C312.23 162.112 311.884 161.991 311.614 161.748C311.352 161.496 311.222 161.188 311.222 160.824C311.222 160.451 311.352 160.138 311.614 159.886C311.884 159.634 312.23 159.508 312.65 159.508C313.06 159.508 313.396 159.634 313.658 159.886C313.928 160.138 314.064 160.451 314.064 160.824C314.064 161.188 313.928 161.496 313.658 161.748C313.396 161.991 313.06 162.112 312.65 162.112ZM312.65 156.414C312.23 156.414 311.884 156.293 311.614 156.05C311.352 155.798 311.222 155.49 311.222 155.126C311.222 154.753 311.352 154.44 311.614 154.188C311.884 153.936 312.23 153.81 312.65 153.81C313.06 153.81 313.396 153.936 313.658 154.188C313.928 154.44 314.064 154.753 314.064 155.126C314.064 155.49 313.928 155.798 313.658 156.05C313.396 156.293 313.06 156.414 312.65 156.414ZM323.166 153.866H318.798V155.798C318.985 155.593 319.246 155.425 319.582 155.294C319.918 155.163 320.282 155.098 320.674 155.098C321.374 155.098 321.953 155.257 322.41 155.574C322.877 155.891 323.218 156.302 323.432 156.806C323.647 157.31 323.754 157.856 323.754 158.444C323.754 159.536 323.446 160.404 322.83 161.048C322.214 161.683 321.346 162 320.226 162C319.48 162 318.831 161.874 318.28 161.622C317.73 161.361 317.305 161.001 317.006 160.544C316.708 160.087 316.544 159.559 316.516 158.962H318.854C318.91 159.251 319.046 159.494 319.26 159.69C319.475 159.877 319.769 159.97 320.142 159.97C320.581 159.97 320.908 159.83 321.122 159.55C321.337 159.27 321.444 158.897 321.444 158.43C321.444 157.973 321.332 157.623 321.108 157.38C320.884 157.137 320.558 157.016 320.128 157.016C319.811 157.016 319.55 157.095 319.344 157.254C319.139 157.403 319.004 157.604 318.938 157.856H316.628V151.766H323.166V153.866ZM325.692 160.082C326.009 159.83 326.154 159.713 326.126 159.732C327.04 158.976 327.759 158.355 328.282 157.87C328.814 157.385 329.262 156.876 329.626 156.344C329.99 155.812 330.172 155.294 330.172 154.79C330.172 154.407 330.083 154.109 329.906 153.894C329.728 153.679 329.462 153.572 329.108 153.572C328.753 153.572 328.473 153.707 328.268 153.978C328.072 154.239 327.974 154.613 327.974 155.098H325.664C325.682 154.305 325.85 153.642 326.168 153.11C326.494 152.578 326.919 152.186 327.442 151.934C327.974 151.682 328.562 151.556 329.206 151.556C330.316 151.556 331.152 151.841 331.712 152.41C332.281 152.979 332.566 153.721 332.566 154.636C332.566 155.635 332.225 156.563 331.544 157.422C330.862 158.271 329.994 159.102 328.94 159.914H332.72V161.86H325.692V160.082Z" fill="#43484B"/>
<path d="M296.378 175.006V172.78H300.256V183H297.764V175.006H296.378ZM302.65 181.18V179.248L307.074 172.92H309.748V179.108H310.896V181.18H309.748V183H307.354V181.18H302.65ZM307.522 175.552L305.17 179.108H307.522V175.552ZM314.126 183.112C313.706 183.112 313.361 182.991 313.09 182.748C312.829 182.496 312.698 182.188 312.698 181.824C312.698 181.451 312.829 181.138 313.09 180.886C313.361 180.634 313.706 180.508 314.126 180.508C314.537 180.508 314.873 180.634 315.134 180.886C315.405 181.138 315.54 181.451 315.54 181.824C315.54 182.188 315.405 182.496 315.134 182.748C314.873 182.991 314.537 183.112 314.126 183.112ZM317.503 175.664C317.541 174.665 317.867 173.895 318.483 173.354C319.099 172.813 319.935 172.542 320.989 172.542C321.689 172.542 322.287 172.663 322.781 172.906C323.285 173.149 323.663 173.48 323.915 173.9C324.177 174.32 324.307 174.791 324.307 175.314C324.307 175.93 324.153 176.434 323.845 176.826C323.537 177.209 323.178 177.47 322.767 177.61V177.666C323.299 177.843 323.719 178.137 324.027 178.548C324.335 178.959 324.489 179.486 324.489 180.13C324.489 180.709 324.354 181.222 324.083 181.67C323.822 182.109 323.435 182.454 322.921 182.706C322.417 182.958 321.815 183.084 321.115 183.084C319.995 183.084 319.099 182.809 318.427 182.258C317.765 181.707 317.415 180.877 317.377 179.766H319.701C319.711 180.177 319.827 180.503 320.051 180.746C320.275 180.979 320.602 181.096 321.031 181.096C321.395 181.096 321.675 180.993 321.871 180.788C322.077 180.573 322.179 180.293 322.179 179.948C322.179 179.5 322.035 179.178 321.745 178.982C321.465 178.777 321.013 178.674 320.387 178.674H319.939V176.728H320.387C320.863 176.728 321.246 176.649 321.535 176.49C321.834 176.322 321.983 176.028 321.983 175.608C321.983 175.272 321.89 175.011 321.703 174.824C321.517 174.637 321.26 174.544 320.933 174.544C320.579 174.544 320.313 174.651 320.135 174.866C319.967 175.081 319.869 175.347 319.841 175.664H317.503ZM326.512 181.082C326.829 180.83 326.974 180.713 326.946 180.732C327.861 179.976 328.579 179.355 329.102 178.87C329.634 178.385 330.082 177.876 330.446 177.344C330.81 176.812 330.992 176.294 330.992 175.79C330.992 175.407 330.903 175.109 330.726 174.894C330.549 174.679 330.283 174.572 329.928 174.572C329.573 174.572 329.293 174.707 329.088 174.978C328.892 175.239 328.794 175.613 328.794 176.098H326.484C326.503 175.305 326.671 174.642 326.988 174.11C327.315 173.578 327.739 173.186 328.262 172.934C328.794 172.682 329.382 172.556 330.026 172.556C331.137 172.556 331.972 172.841 332.532 173.41C333.101 173.979 333.386 174.721 333.386 175.636C333.386 176.635 333.045 177.563 332.364 178.422C331.683 179.271 330.815 180.102 329.76 180.914H333.54V182.86H326.512V181.082Z" fill="#43484B"/>
<path d="M296.378 196.006V193.78H300.256V204H297.764V196.006H296.378ZM307.648 196.538C307.573 196.193 307.442 195.936 307.256 195.768C307.069 195.591 306.803 195.502 306.458 195.502C305.926 195.502 305.543 195.735 305.31 196.202C305.076 196.659 304.955 197.387 304.946 198.386C305.151 198.059 305.445 197.803 305.828 197.616C306.22 197.429 306.649 197.336 307.116 197.336C308.03 197.336 308.763 197.625 309.314 198.204C309.874 198.783 310.154 199.59 310.154 200.626C310.154 201.307 310.014 201.905 309.734 202.418C309.463 202.931 309.062 203.333 308.53 203.622C308.007 203.911 307.386 204.056 306.668 204.056C305.23 204.056 304.232 203.608 303.672 202.712C303.112 201.807 302.832 200.509 302.832 198.82C302.832 197.047 303.126 195.731 303.714 194.872C304.311 194.004 305.263 193.57 306.57 193.57C307.27 193.57 307.858 193.71 308.334 193.99C308.819 194.261 309.183 194.62 309.426 195.068C309.678 195.516 309.827 196.006 309.874 196.538H307.648ZM306.542 199.226C306.14 199.226 305.804 199.347 305.534 199.59C305.272 199.823 305.142 200.159 305.142 200.598C305.142 201.046 305.263 201.396 305.506 201.648C305.758 201.9 306.112 202.026 306.57 202.026C306.98 202.026 307.302 201.905 307.536 201.662C307.778 201.41 307.9 201.069 307.9 200.64C307.9 200.201 307.783 199.856 307.55 199.604C307.316 199.352 306.98 199.226 306.542 199.226ZM313.566 204.112C313.146 204.112 312.8 203.991 312.53 203.748C312.268 203.496 312.138 203.188 312.138 202.824C312.138 202.451 312.268 202.138 312.53 201.886C312.8 201.634 313.146 201.508 313.566 201.508C313.976 201.508 314.312 201.634 314.574 201.886C314.844 202.138 314.98 202.451 314.98 202.824C314.98 203.188 314.844 203.496 314.574 203.748C314.312 203.991 313.976 204.112 313.566 204.112ZM313.566 198.414C313.146 198.414 312.8 198.293 312.53 198.05C312.268 197.798 312.138 197.49 312.138 197.126C312.138 196.753 312.268 196.44 312.53 196.188C312.8 195.936 313.146 195.81 313.566 195.81C313.976 195.81 314.312 195.936 314.574 196.188C314.844 196.44 314.98 196.753 314.98 197.126C314.98 197.49 314.844 197.798 314.574 198.05C314.312 198.293 313.976 198.414 313.566 198.414ZM316.97 196.664C317.008 195.665 317.334 194.895 317.95 194.354C318.566 193.813 319.402 193.542 320.456 193.542C321.156 193.542 321.754 193.663 322.248 193.906C322.752 194.149 323.13 194.48 323.382 194.9C323.644 195.32 323.774 195.791 323.774 196.314C323.774 196.93 323.62 197.434 323.312 197.826C323.004 198.209 322.645 198.47 322.234 198.61V198.666C322.766 198.843 323.186 199.137 323.494 199.548C323.802 199.959 323.956 200.486 323.956 201.13C323.956 201.709 323.821 202.222 323.55 202.67C323.289 203.109 322.902 203.454 322.388 203.706C321.884 203.958 321.282 204.084 320.582 204.084C319.462 204.084 318.566 203.809 317.894 203.258C317.232 202.707 316.882 201.877 316.844 200.766H319.168C319.178 201.177 319.294 201.503 319.518 201.746C319.742 201.979 320.069 202.096 320.498 202.096C320.862 202.096 321.142 201.993 321.338 201.788C321.544 201.573 321.646 201.293 321.646 200.948C321.646 200.5 321.502 200.178 321.212 199.982C320.932 199.777 320.48 199.674 319.854 199.674H319.406V197.728H319.854C320.33 197.728 320.713 197.649 321.002 197.49C321.301 197.322 321.45 197.028 321.45 196.608C321.45 196.272 321.357 196.011 321.17 195.824C320.984 195.637 320.727 195.544 320.4 195.544C320.046 195.544 319.78 195.651 319.602 195.866C319.434 196.081 319.336 196.347 319.308 196.664H316.97ZM325.979 202.082C326.296 201.83 326.441 201.713 326.413 201.732C327.327 200.976 328.046 200.355 328.569 199.87C329.101 199.385 329.549 198.876 329.913 198.344C330.277 197.812 330.459 197.294 330.459 196.79C330.459 196.407 330.37 196.109 330.193 195.894C330.015 195.679 329.749 195.572 329.395 195.572C329.04 195.572 328.76 195.707 328.555 195.978C328.359 196.239 328.261 196.613 328.261 197.098H325.951C325.969 196.305 326.137 195.642 326.455 195.11C326.781 194.578 327.206 194.186 327.729 193.934C328.261 193.682 328.849 193.556 329.493 193.556C330.603 193.556 331.439 193.841 331.999 194.41C332.568 194.979 332.853 195.721 332.853 196.636C332.853 197.635 332.512 198.563 331.831 199.422C331.149 200.271 330.281 201.102 329.227 201.914H333.007V203.86H325.979V202.082Z" fill="#43484B"/>
<path d="M296.546 223.082C296.863 222.83 297.008 222.713 296.98 222.732C297.895 221.976 298.613 221.355 299.136 220.87C299.668 220.385 300.116 219.876 300.48 219.344C300.844 218.812 301.026 218.294 301.026 217.79C301.026 217.407 300.937 217.109 300.76 216.894C300.583 216.679 300.317 216.572 299.962 216.572C299.607 216.572 299.327 216.707 299.122 216.978C298.926 217.239 298.828 217.613 298.828 218.098H296.518C296.537 217.305 296.705 216.642 297.022 216.11C297.349 215.578 297.773 215.186 298.296 214.934C298.828 214.682 299.416 214.556 300.06 214.556C301.171 214.556 302.006 214.841 302.566 215.41C303.135 215.979 303.42 216.721 303.42 217.636C303.42 218.635 303.079 219.563 302.398 220.422C301.717 221.271 300.849 222.102 299.794 222.914H303.574V224.86H296.546V223.082ZM305.328 219.75C305.328 218.145 305.636 216.88 306.252 215.956C306.877 215.032 307.881 214.57 309.262 214.57C310.643 214.57 311.642 215.032 312.258 215.956C312.883 216.88 313.196 218.145 313.196 219.75C313.196 221.374 312.883 222.648 312.258 223.572C311.642 224.496 310.643 224.958 309.262 224.958C307.881 224.958 306.877 224.496 306.252 223.572C305.636 222.648 305.328 221.374 305.328 219.75ZM310.844 219.75C310.844 218.807 310.741 218.084 310.536 217.58C310.331 217.067 309.906 216.81 309.262 216.81C308.618 216.81 308.193 217.067 307.988 217.58C307.783 218.084 307.68 218.807 307.68 219.75C307.68 220.385 307.717 220.912 307.792 221.332C307.867 221.743 308.016 222.079 308.24 222.34C308.473 222.592 308.814 222.718 309.262 222.718C309.71 222.718 310.046 222.592 310.27 222.34C310.503 222.079 310.657 221.743 310.732 221.332C310.807 220.912 310.844 220.385 310.844 219.75ZM316.519 225.112C316.099 225.112 315.754 224.991 315.483 224.748C315.222 224.496 315.091 224.188 315.091 223.824C315.091 223.451 315.222 223.138 315.483 222.886C315.754 222.634 316.099 222.508 316.519 222.508C316.93 222.508 317.266 222.634 317.527 222.886C317.798 223.138 317.933 223.451 317.933 223.824C317.933 224.188 317.798 224.496 317.527 224.748C317.266 224.991 316.93 225.112 316.519 225.112ZM319.896 217.664C319.933 216.665 320.26 215.895 320.876 215.354C321.492 214.813 322.327 214.542 323.382 214.542C324.082 214.542 324.679 214.663 325.174 214.906C325.678 215.149 326.056 215.48 326.308 215.9C326.569 216.32 326.7 216.791 326.7 217.314C326.7 217.93 326.546 218.434 326.238 218.826C325.93 219.209 325.571 219.47 325.16 219.61V219.666C325.692 219.843 326.112 220.137 326.42 220.548C326.728 220.959 326.882 221.486 326.882 222.13C326.882 222.709 326.747 223.222 326.476 223.67C326.215 224.109 325.827 224.454 325.314 224.706C324.81 224.958 324.208 225.084 323.508 225.084C322.388 225.084 321.492 224.809 320.82 224.258C320.157 223.707 319.807 222.877 319.77 221.766H322.094C322.103 222.177 322.22 222.503 322.444 222.746C322.668 222.979 322.995 223.096 323.424 223.096C323.788 223.096 324.068 222.993 324.264 222.788C324.469 222.573 324.572 222.293 324.572 221.948C324.572 221.5 324.427 221.178 324.138 220.982C323.858 220.777 323.405 220.674 322.78 220.674H322.332V218.728H322.78C323.256 218.728 323.639 218.649 323.928 218.49C324.227 218.322 324.376 218.028 324.376 217.608C324.376 217.272 324.283 217.011 324.096 216.824C323.909 216.637 323.653 216.544 323.326 216.544C322.971 216.544 322.705 216.651 322.528 216.866C322.36 217.081 322.262 217.347 322.234 217.664H319.896ZM328.905 223.082C329.222 222.83 329.367 222.713 329.339 222.732C330.253 221.976 330.972 221.355 331.495 220.87C332.027 220.385 332.475 219.876 332.839 219.344C333.203 218.812 333.385 218.294 333.385 217.79C333.385 217.407 333.296 217.109 333.119 216.894C332.941 216.679 332.675 216.572 332.321 216.572C331.966 216.572 331.686 216.707 331.481 216.978C331.285 217.239 331.187 217.613 331.187 218.098H328.877C328.895 217.305 329.063 216.642 329.381 216.11C329.707 215.578 330.132 215.186 330.655 214.934C331.187 214.682 331.775 214.556 332.419 214.556C333.529 214.556 334.365 214.841 334.925 215.41C335.494 215.979 335.779 216.721 335.779 217.636C335.779 218.635 335.438 219.563 334.757 220.422C334.075 221.271 333.207 222.102 332.153 222.914H335.933V224.86H328.905V223.082Z" fill="#43484B"/>
<path d="M296.546 244.082C296.863 243.83 297.008 243.713 296.98 243.732C297.895 242.976 298.613 242.355 299.136 241.87C299.668 241.385 300.116 240.876 300.48 240.344C300.844 239.812 301.026 239.294 301.026 238.79C301.026 238.407 300.937 238.109 300.76 237.894C300.583 237.679 300.317 237.572 299.962 237.572C299.607 237.572 299.327 237.707 299.122 237.978C298.926 238.239 298.828 238.613 298.828 239.098H296.518C296.537 238.305 296.705 237.642 297.022 237.11C297.349 236.578 297.773 236.186 298.296 235.934C298.828 235.682 299.416 235.556 300.06 235.556C301.171 235.556 302.006 235.841 302.566 236.41C303.135 236.979 303.42 237.721 303.42 238.636C303.42 239.635 303.079 240.563 302.398 241.422C301.717 242.271 300.849 243.102 299.794 243.914H303.574V245.86H296.546V244.082ZM305.244 244.082C305.561 243.83 305.706 243.713 305.678 243.732C306.593 242.976 307.311 242.355 307.834 241.87C308.366 241.385 308.814 240.876 309.178 240.344C309.542 239.812 309.724 239.294 309.724 238.79C309.724 238.407 309.635 238.109 309.458 237.894C309.281 237.679 309.015 237.572 308.66 237.572C308.305 237.572 308.025 237.707 307.82 237.978C307.624 238.239 307.526 238.613 307.526 239.098H305.216C305.235 238.305 305.403 237.642 305.72 237.11C306.047 236.578 306.471 236.186 306.994 235.934C307.526 235.682 308.114 235.556 308.758 235.556C309.869 235.556 310.704 235.841 311.264 236.41C311.833 236.979 312.118 237.721 312.118 238.636C312.118 239.635 311.777 240.563 311.096 241.422C310.415 242.271 309.547 243.102 308.492 243.914H312.272V245.86H305.244V244.082ZM315.384 246.112C314.964 246.112 314.619 245.991 314.348 245.748C314.087 245.496 313.956 245.188 313.956 244.824C313.956 244.451 314.087 244.138 314.348 243.886C314.619 243.634 314.964 243.508 315.384 243.508C315.795 243.508 316.131 243.634 316.392 243.886C316.663 244.138 316.798 244.451 316.798 244.824C316.798 245.188 316.663 245.496 316.392 245.748C316.131 245.991 315.795 246.112 315.384 246.112ZM318.761 238.664C318.799 237.665 319.125 236.895 319.741 236.354C320.357 235.813 321.193 235.542 322.247 235.542C322.947 235.542 323.545 235.663 324.039 235.906C324.543 236.149 324.921 236.48 325.173 236.9C325.435 237.32 325.565 237.791 325.565 238.314C325.565 238.93 325.411 239.434 325.103 239.826C324.795 240.209 324.436 240.47 324.025 240.61V240.666C324.557 240.843 324.977 241.137 325.285 241.548C325.593 241.959 325.747 242.486 325.747 243.13C325.747 243.709 325.612 244.222 325.341 244.67C325.08 245.109 324.693 245.454 324.179 245.706C323.675 245.958 323.073 246.084 322.373 246.084C321.253 246.084 320.357 245.809 319.685 245.258C319.023 244.707 318.673 243.877 318.635 242.766H320.959C320.969 243.177 321.085 243.503 321.309 243.746C321.533 243.979 321.86 244.096 322.289 244.096C322.653 244.096 322.933 243.993 323.129 243.788C323.335 243.573 323.437 243.293 323.437 242.948C323.437 242.5 323.293 242.178 323.003 241.982C322.723 241.777 322.271 241.674 321.645 241.674H321.197V239.728H321.645C322.121 239.728 322.504 239.649 322.793 239.49C323.092 239.322 323.241 239.028 323.241 238.608C323.241 238.272 323.148 238.011 322.961 237.824C322.775 237.637 322.518 237.544 322.191 237.544C321.837 237.544 321.571 237.651 321.393 237.866C321.225 238.081 321.127 238.347 321.099 238.664H318.761ZM327.77 244.082C328.087 243.83 328.232 243.713 328.204 243.732C329.118 242.976 329.837 242.355 330.36 241.87C330.892 241.385 331.34 240.876 331.704 240.344C332.068 239.812 332.25 239.294 332.25 238.79C332.25 238.407 332.161 238.109 331.984 237.894C331.806 237.679 331.54 237.572 331.186 237.572C330.831 237.572 330.551 237.707 330.346 237.978C330.15 238.239 330.052 238.613 330.052 239.098H327.742C327.76 238.305 327.928 237.642 328.246 237.11C328.572 236.578 328.997 236.186 329.52 235.934C330.052 235.682 330.64 235.556 331.284 235.556C332.394 235.556 333.23 235.841 333.79 236.41C334.359 236.979 334.644 237.721 334.644 238.636C334.644 239.635 334.303 240.563 333.622 241.422C332.94 242.271 332.072 243.102 331.018 243.914H334.798V245.86H327.77V244.082Z" fill="#43484B"/>
<path d="M391.55 96.172C392.586 96.172 393.491 96.3773 394.266 96.788C395.041 97.1987 395.638 97.7773 396.058 98.524C396.487 99.2613 396.702 100.115 396.702 101.086C396.702 102.047 396.487 102.901 396.058 103.648C395.638 104.395 395.036 104.973 394.252 105.384C393.477 105.795 392.577 106 391.55 106H387.868V96.172H391.55ZM391.396 103.928C392.301 103.928 393.006 103.681 393.51 103.186C394.014 102.691 394.266 101.991 394.266 101.086C394.266 100.181 394.014 99.476 393.51 98.972C393.006 98.468 392.301 98.216 391.396 98.216H390.262V103.928H391.396ZM401.134 98.09V100.078H404.34V101.926H401.134V104.082H404.76V106H398.74V96.172H404.76V98.09H401.134ZM410.57 106.098C409.851 106.098 409.207 105.981 408.638 105.748C408.069 105.515 407.611 105.169 407.266 104.712C406.93 104.255 406.753 103.704 406.734 103.06H409.282C409.319 103.424 409.445 103.704 409.66 103.9C409.875 104.087 410.155 104.18 410.5 104.18C410.855 104.18 411.135 104.101 411.34 103.942C411.545 103.774 411.648 103.545 411.648 103.256C411.648 103.013 411.564 102.813 411.396 102.654C411.237 102.495 411.037 102.365 410.794 102.262C410.561 102.159 410.225 102.043 409.786 101.912C409.151 101.716 408.633 101.52 408.232 101.324C407.831 101.128 407.485 100.839 407.196 100.456C406.907 100.073 406.762 99.574 406.762 98.958C406.762 98.0433 407.093 97.3293 407.756 96.816C408.419 96.2933 409.282 96.032 410.346 96.032C411.429 96.032 412.301 96.2933 412.964 96.816C413.627 97.3293 413.981 98.048 414.028 98.972H411.438C411.419 98.6547 411.303 98.4073 411.088 98.23C410.873 98.0433 410.598 97.95 410.262 97.95C409.973 97.95 409.739 98.0293 409.562 98.188C409.385 98.3373 409.296 98.5567 409.296 98.846C409.296 99.1633 409.445 99.4107 409.744 99.588C410.043 99.7653 410.509 99.9567 411.144 100.162C411.779 100.377 412.292 100.582 412.684 100.778C413.085 100.974 413.431 101.259 413.72 101.632C414.009 102.005 414.154 102.486 414.154 103.074C414.154 103.634 414.009 104.143 413.72 104.6C413.44 105.057 413.029 105.421 412.488 105.692C411.947 105.963 411.307 106.098 410.57 106.098ZM423.397 96.172V98.09H420.793V106H418.399V98.09H415.795V96.172H423.397ZM427.693 96.172V106H425.299V96.172H427.693ZM438.92 106H436.526L432.522 99.938V106H430.128V96.172H432.522L436.526 102.262V96.172H438.92V106ZM447.473 104.264H443.805L443.217 106H440.711L444.267 96.172H447.039L450.595 106H448.061L447.473 104.264ZM446.857 102.416L445.639 98.818L444.435 102.416H446.857ZM459.447 96.172V98.09H456.843V106H454.449V98.09H451.845V96.172H459.447ZM463.743 96.172V106H461.349V96.172H463.743ZM470.826 106.098C469.902 106.098 469.052 105.883 468.278 105.454C467.512 105.025 466.901 104.427 466.444 103.662C465.996 102.887 465.772 102.019 465.772 101.058C465.772 100.097 465.996 99.2333 466.444 98.468C466.901 97.7027 467.512 97.1053 468.278 96.676C469.052 96.2467 469.902 96.032 470.826 96.032C471.75 96.032 472.594 96.2467 473.36 96.676C474.134 97.1053 474.741 97.7027 475.18 98.468C475.628 99.2333 475.852 100.097 475.852 101.058C475.852 102.019 475.628 102.887 475.18 103.662C474.732 104.427 474.125 105.025 473.36 105.454C472.594 105.883 471.75 106.098 470.826 106.098ZM470.826 103.914C471.61 103.914 472.235 103.653 472.702 103.13C473.178 102.607 473.416 101.917 473.416 101.058C473.416 100.19 473.178 99.4993 472.702 98.986C472.235 98.4633 471.61 98.202 470.826 98.202C470.032 98.202 469.398 98.4587 468.922 98.972C468.455 99.4853 468.222 100.181 468.222 101.058C468.222 101.926 468.455 102.621 468.922 103.144C469.398 103.657 470.032 103.914 470.826 103.914ZM486.676 106H484.282L480.278 99.938V106H477.884V96.172H480.278L484.282 102.262V96.172H486.676V106Z" fill="#080B0D"/>
<path d="M555.266 96.172V98.09H551.262V100.162H554.258V102.024H551.262V106H548.868V96.172H555.266ZM559.618 104.152H562.754V106H557.224V96.172H559.618V104.152ZM566.99 96.172V106H564.596V96.172H566.99ZM575.949 99.28C575.772 98.9533 575.515 98.706 575.179 98.538C574.852 98.3607 574.465 98.272 574.017 98.272C573.242 98.272 572.622 98.5287 572.155 99.042C571.688 99.546 571.455 100.223 571.455 101.072C571.455 101.977 571.698 102.687 572.183 103.2C572.678 103.704 573.354 103.956 574.213 103.956C574.801 103.956 575.296 103.807 575.697 103.508C576.108 103.209 576.406 102.78 576.593 102.22H573.555V100.456H578.763V102.682C578.586 103.279 578.282 103.835 577.853 104.348C577.433 104.861 576.896 105.277 576.243 105.594C575.59 105.911 574.852 106.07 574.031 106.07C573.06 106.07 572.192 105.86 571.427 105.44C570.671 105.011 570.078 104.418 569.649 103.662C569.229 102.906 569.019 102.043 569.019 101.072C569.019 100.101 569.229 99.238 569.649 98.482C570.078 97.7167 570.671 97.124 571.427 96.704C572.183 96.2747 573.046 96.06 574.017 96.06C575.193 96.06 576.182 96.3447 576.985 96.914C577.797 97.4833 578.334 98.272 578.595 99.28H575.949ZM589.301 96.172V106H586.907V101.954H583.183V106H580.789V96.172H583.183V100.022H586.907V96.172H589.301ZM598.799 96.172V98.09H596.195V106H593.801V98.09H591.197V96.172H598.799Z" fill="#080B0D"/>
<path d="M663.392 99.28C663.215 98.9533 662.958 98.706 662.622 98.538C662.295 98.3607 661.908 98.272 661.46 98.272C660.685 98.272 660.065 98.5287 659.598 99.042C659.131 99.546 658.898 100.223 658.898 101.072C658.898 101.977 659.141 102.687 659.626 103.2C660.121 103.704 660.797 103.956 661.656 103.956C662.244 103.956 662.739 103.807 663.14 103.508C663.551 103.209 663.849 102.78 664.036 102.22H660.998V100.456H666.206V102.682C666.029 103.279 665.725 103.835 665.296 104.348C664.876 104.861 664.339 105.277 663.686 105.594C663.033 105.911 662.295 106.07 661.474 106.07C660.503 106.07 659.635 105.86 658.87 105.44C658.114 105.011 657.521 104.418 657.092 103.662C656.672 102.906 656.462 102.043 656.462 101.072C656.462 100.101 656.672 99.238 657.092 98.482C657.521 97.7167 658.114 97.124 658.87 96.704C659.626 96.2747 660.489 96.06 661.46 96.06C662.636 96.06 663.625 96.3447 664.428 96.914C665.24 97.4833 665.777 98.272 666.038 99.28H663.392ZM674.35 104.264H670.682L670.094 106H667.588L671.144 96.172H673.916L677.472 106H674.938L674.35 104.264ZM673.734 102.416L672.516 98.818L671.312 102.416H673.734ZM686.324 96.172V98.09H683.72V106H681.326V98.09H678.722V96.172H686.324ZM690.62 98.09V100.078H693.826V101.926H690.62V104.082H694.246V106H688.226V96.172H694.246V98.09H690.62Z" fill="#080B0D"/>
<rect x="254.5" y="72.5" width="484" height="200" stroke="#878787"/>
</g>
<path d="M751.5 217.5L750.5 228L740.5 221.5V209.5L740 205.5L738.5 195.5H759.5V203L763 209.5H759.5V217.5H751.5Z" fill="#D9C9CB"/>
<path d="M751.5 217.5L750.5 228L740.5 221.5V209.5L740 205.5L738.5 195.5H759.5V203L763 209.5H759.5V217.5H751.5ZM751.5 217.5L747 216L745.5 214.5" stroke="#878787"/>
<path d="M716.5 325.5V336L714 336.5L713.5 330.5H710.5L711.5 336.5L707.5 337.5L703 330L710 321L713.5 276L729 235L740 221.5L751.5 228.5C757.312 231.823 757.142 247.48 755.851 271C755.829 271.4 758.275 284.5 759.5 291L769.5 317.5L775.5 328.5L763.5 335.5L762.5 321L750 294.645L723.5 295.5L723.121 291L716.5 325.5Z" fill="#D9C9CB"/>
<path d="M746 240.5L726 276L723.121 291M723.121 291L716.5 325.5V336L714 336.5L713.5 330.5H710.5L711.5 336.5L707.5 337.5L703 330L710 321L713.5 276L729 235L740 221.5L751.5 228.5C757.312 231.823 757.142 247.48 755.851 271M723.121 291L723.5 295.5L750 294.645M755.851 271C755.459 278.149 754.963 286.024 754.5 294.5L750 294.645M755.851 271C755.829 271.4 758.275 284.5 759.5 291L769.5 317.5L775.5 328.5L763.5 335.5L762.5 321L750 294.645" stroke="#878787"/>
<path d="M724 314.5V296H749.5V306.5L780.5 495H755L724 314.5Z" fill="#32373A" stroke="#878787"/>
<path d="M683 489.5L664.5 473.5L713.5 398.5L725 314.5L737.5 386L735.5 406.5L683 489.5Z" fill="#32373A" stroke="#878787"/>
<path d="M664.5 481L668.5 477L680 487L686 502L664.5 481Z" fill="#C4C4C4" stroke="#32373A"/>
<path d="M758.5 502.967L759.034 495.4L774.273 495.495L788.597 502.967L758.5 502.967Z" fill="#C4C4C4" stroke="#32373A"/>
<circle cx="712" cy="333" r="4" fill="white"/>
<circle cx="625" cy="495" r="6" fill="#C4C4C4"/>
<circle cx="712" cy="333" r="4" fill="#878787"/>
<rect x="667.355" y="391.673" width="17" height="107.916" transform="rotate(27.1818 667.355 391.673)" fill="#767676"/>
<rect x="667.355" y="391.673" width="17" height="107.916" transform="rotate(27.1818 667.355 391.673)" stroke="#878787"/>
<rect width="2.7933" height="69.9288" transform="translate(710.281 334.946) rotate(27.1818)" fill="#878787"/>
<rect x="300.5" y="64.5" width="51" height="7" fill="#737373"/>
<rect x="300.5" y="64.5" width="51" height="7" stroke="#878787"/>
<rect x="313.5" y="50.5" width="24" height="13" fill="#737373"/>
<rect x="313.5" y="50.5" width="24" height="13" stroke="#878787"/>
<rect x="322.5" y="0.5" width="6" height="49" fill="#737373"/>
<rect x="322.5" y="0.5" width="6" height="49" stroke="#878787"/>
<rect x="649.5" y="64.5" width="51" height="7" fill="#737373"/>
<rect x="649.5" y="64.5" width="51" height="7" stroke="#878787"/>
<rect x="662.5" y="50.5" width="24" height="13" fill="#737373"/>
<rect x="662.5" y="50.5" width="24" height="13" stroke="#878787"/>
<rect x="671.5" y="0.5" width="6" height="49" fill="#737373"/>
<rect x="671.5" y="0.5" width="6" height="49" stroke="#878787"/>
<path d="M743.006 214.5H740.006C733.9 200.227 731.966 193.577 742.006 194C742.431 185.899 751.849 189.111 763.506 190.5C762.778 194.796 761.736 195.883 759.006 196H749.006V202L751.506 205V207.5H746.506L747.006 204L745.006 201.5L742.006 202L741.506 206L745.506 210.5L743.006 214.5Z" fill="#31C9C9" stroke="#878787"/>
<path d="M713.501 276L729.001 235L740.001 221.5L751.501 228.5C757.313 231.823 757.143 247.48 755.852 271C755.83 271.4 758.275 284.5 759.501 291L754.59 292.884C754.56 293.42 754.53 293.959 754.501 294.5L750.001 294.645L723.501 295.5L723.122 291H712.334L713.501 276Z" fill="white"/>
<path d="M746.001 240.5L726.001 276L723.122 291M723.122 291L723.501 295.5L750.001 294.645M723.122 291H712.334L713.501 276L729.001 235L740.001 221.5L751.501 228.5C757.313 231.823 757.143 247.48 755.852 271M755.852 271C755.46 278.149 754.964 286.024 754.501 294.5L750.001 294.645M755.852 271C755.83 271.4 758.275 284.5 759.501 291L750.001 294.645" stroke="#878787"/>
<path d="M710 293.5V288.5L724.5 289.5V293.5H710Z" fill="#C4C4C4" stroke="#878787"/>
<path d="M762 292V287L755 288V292H762Z" fill="#C4C4C4" stroke="#878787"/>
<path d="M736 221.5H740.5L750.5 228.5L755 232.5L754.125 232.625C758.957 245.3 758.915 259.152 758 286L755 293.5L750.5 286C756.558 266.086 757.638 254.519 753.25 232.75L751.5 233L750.5 228.5L747 234.5L736 221.5Z" fill="#C4C4C4"/>
<path d="M750.5 228.5L747 234.5L736 221.5H740.5L750.5 228.5ZM750.5 228.5L751.5 233L753.25 232.75M750.5 228.5L755 232.5L754.125 232.625M753.25 232.75C757.638 254.519 756.558 266.086 750.5 286L755 293.5L758 286C758.915 259.152 758.957 245.3 754.125 232.625M753.25 232.75L754.125 232.625" stroke="#878787"/>
<path d="M217.013 484C212.44 532.717 214.803 558.075 233.092 597.705H251.469C254.681 530.726 243.335 510.973 217.013 484Z" fill="#31C9C9"/>
<path d="M217.013 484C212.44 532.717 214.803 558.075 233.092 597.705H251.469C254.681 530.726 243.335 510.973 217.013 484Z" stroke="black" stroke-width="1.14854"/>
<path d="M217.013 484C212.44 532.717 214.803 558.075 233.092 597.705H251.469C254.681 530.726 243.335 510.973 217.013 484Z" stroke="black" stroke-opacity="0.2" stroke-width="1.14854"/>
<path d="M225.628 519.03C234.623 548.119 237.995 565.343 239.985 598.28H241.705C240.687 570.96 236.487 553.16 225.628 519.03Z" fill="#C4C4C4" stroke="black" stroke-width="1.14854"/>
<path d="M249.769 502.705C254.341 551.422 251.978 576.78 233.689 616.41H215.312C212.1 549.431 223.446 529.678 249.769 502.705Z" fill="#C4C4C4"/>
<path d="M249.769 502.705C254.341 551.422 251.978 576.78 233.689 616.41H215.312C212.1 549.431 223.446 529.678 249.769 502.705Z" stroke="black" stroke-width="1.14854"/>
<path d="M249.769 502.705C254.341 551.422 251.978 576.78 233.689 616.41H215.312C212.1 549.431 223.446 529.678 249.769 502.705Z" stroke="black" stroke-opacity="0.2" stroke-width="1.14854"/>
<path d="M241.153 537.735C232.158 566.824 228.786 584.048 226.797 616.985H225.076C226.094 589.665 230.294 571.866 241.153 537.735Z" fill="#C4C4C4" stroke="black" stroke-width="1.14854"/>
<path d="M258.769 480.705C263.341 529.422 260.978 554.78 242.689 594.41H224.312C221.1 527.431 232.446 507.678 258.769 480.705Z" fill="#31C9C9"/>
<path d="M258.769 480.705C263.341 529.422 260.978 554.78 242.689 594.41H224.312C221.1 527.431 232.446 507.678 258.769 480.705Z" stroke="black" stroke-width="1.14854"/>
<path d="M258.769 480.705C263.341 529.422 260.978 554.78 242.689 594.41H224.312C221.1 527.431 232.446 507.678 258.769 480.705Z" stroke="black" stroke-opacity="0.2" stroke-width="1.14854"/>
<path d="M250.153 515.735C241.158 544.824 237.786 562.048 235.797 594.985H234.076C235.094 567.665 239.294 549.866 250.153 515.735Z" fill="#C4C4C4" stroke="black" stroke-width="1.14854"/>
<path d="M185.641 514.441C196.863 555.539 206.57 575.476 233.633 602.155L248.606 596.516C230.671 540.955 215.365 528.342 185.641 514.441Z" fill="#31C9C9"/>
<path d="M185.641 514.441C196.863 555.539 206.57 575.476 233.633 602.155L248.606 596.516C230.671 540.955 215.365 528.342 185.641 514.441Z" stroke="black"/>
<path d="M185.641 514.441C196.863 555.539 206.57 575.476 233.633 602.155L248.606 596.516C230.671 540.955 215.365 528.342 185.641 514.441Z" stroke="black" stroke-opacity="0.2"/>
<path d="M203.41 540.341C219.665 561.282 227.698 574.281 239.425 600.508L240.827 599.98C231.615 578.032 222.731 564.818 203.41 540.341Z" fill="#C4C4C4" stroke="black"/>
<path d="M181.234 537.677C192.727 578.7 202.565 598.572 229.804 625.072L244.74 619.334C226.438 563.893 211.049 551.381 181.234 537.677Z" fill="#31C9C9"/>
<path d="M181.234 537.677C192.727 578.7 202.565 598.572 229.804 625.072L244.74 619.334C226.438 563.893 211.049 551.381 181.234 537.677Z" stroke="black"/>
<path d="M181.234 537.677C192.727 578.7 202.565 598.572 229.804 625.072L244.74 619.334C226.438 563.893 211.049 551.381 181.234 537.677Z" stroke="black" stroke-opacity="0.2"/>
<path d="M199.173 563.458C215.567 584.292 223.685 597.238 235.585 623.387L236.984 622.849C227.626 600.963 218.655 587.807 199.173 563.458Z" fill="#C4C4C4" stroke="black"/>
<path d="M189.868 541.413C210.639 578.609 217.673 599.638 217.04 637.635L202.403 644.097C176.293 591.876 178.386 572.153 189.868 541.413Z" fill="#31C9C9"/>
<path d="M189.868 541.413C210.639 578.609 217.673 599.638 217.04 637.635L202.403 644.097C176.293 591.876 178.386 572.153 189.868 541.413Z" stroke="black"/>
<path d="M189.868 541.413C210.639 578.609 217.673 599.638 217.04 637.635L202.403 644.097C176.293 591.876 178.386 572.153 189.868 541.413Z" stroke="black" stroke-opacity="0.2"/>
<path d="M195.321 572.345C198.384 598.678 201.754 613.583 211.751 640.517L210.38 641.121C201.585 619.003 198.672 603.349 195.321 572.345Z" fill="#C4C4C4" stroke="black"/>
<path d="M271 498.205C274.981 540.621 272.924 562.7 257 597.205H241C238.202 538.888 248.081 521.69 271 498.205Z" fill="#31C9C9"/>
<path d="M271 498.205C274.981 540.621 272.924 562.7 257 597.205H241C238.202 538.888 248.081 521.69 271 498.205Z" stroke="black"/>
<path d="M271 498.205C274.981 540.621 272.924 562.7 257 597.205H241C238.202 538.888 248.081 521.69 271 498.205Z" stroke="black" stroke-opacity="0.2"/>
<path d="M263.498 528.705C255.666 554.032 252.73 569.028 250.998 597.705H249.5C250.387 573.919 254.043 558.421 263.498 528.705Z" fill="#C4C4C4" stroke="black"/>
<path d="M295.711 538.97C262.324 565.433 247.801 582.19 233.895 617.556L244.962 629.112C289.014 590.796 294.602 571.766 295.711 538.97Z" fill="#31C9C9"/>
<path d="M295.711 538.97C262.324 565.433 247.801 582.19 233.895 617.556L244.962 629.112C289.014 590.796 294.602 571.766 295.711 538.97Z" stroke="black"/>
<path d="M295.711 538.97C262.324 565.433 247.801 582.19 233.895 617.556L244.962 629.112C289.014 590.796 294.602 571.766 295.711 538.97Z" stroke="black" stroke-opacity="0.2"/>
<path d="M278.873 565.484C265.999 588.658 257.199 601.151 237.686 622.237L238.722 623.319C255.288 606.226 263.951 592.866 278.873 565.484Z" fill="#C4C4C4" stroke="black"/>
<path d="M280.5 592.705C244.273 598.154 221.952 597.043 181 592.705C184.763 631.309 185.594 655.209 209 659.205H218.5H257C282.858 648.243 281.201 627.563 280.5 592.705Z" fill="url(#paint2_linear_83_1209)" stroke="black"/>
<path d="M723.615 693.343V711.843H749.115V701.343L780.115 512.843H754.615L723.615 693.343Z" fill="#32373A" stroke="#878787"/>
<path d="M682.615 518.343L664.115 534.343L713.115 609.343L724.615 693.343L737.115 621.843L735.115 601.343L682.615 518.343Z" fill="#32373A" stroke="#878787"/>
<path d="M664.115 526.843L668.115 530.843L679.615 520.843L685.615 505.843L664.115 526.843Z" fill="#C4C4C4" stroke="#32373A"/>
<path d="M758.115 504.875L758.649 512.443L773.889 512.348L788.212 504.876L758.115 504.875Z" fill="#C4C4C4" stroke="#32373A"/>
<circle r="6" transform="matrix(1 -7.17359e-10 -7.17359e-10 -1 624.615 512.843)" fill="#C4C4C4"/>
<circle r="4" transform="matrix(1 0 0 -1 711.615 674.843)" fill="#878787"/>
<rect x="0.216373" y="-0.673189" width="17" height="107.916" transform="matrix(0.889561 -0.456816 -0.456816 -0.889561 666.47 615.67)" fill="#767676"/>
<rect x="0.216373" y="-0.673189" width="17" height="107.916" transform="matrix(0.889561 -0.456816 -0.456816 -0.889561 666.47 615.67)" stroke="#878787"/>
<rect width="2.7933" height="69.9288" transform="matrix(0.889561 -0.456816 -0.456816 -0.889561 709.896 672.896)" fill="#878787"/>
<rect x="607" y="503" width="202" height="221" fill="url(#paint3_linear_83_1209)"/>
<defs>
<linearGradient id="paint0_linear_83_1209" x1="540" y1="361.5" x2="616.5" y2="571" gradientUnits="userSpaceOnUse">
<stop stop-color="#434A4E"/>
<stop offset="1" stop-color="#32373A"/>
</linearGradient>
<linearGradient id="paint1_linear_83_1209" x1="496.5" y1="72" x2="496.5" y2="273" gradientUnits="userSpaceOnUse">
<stop stop-color="#A8A8A8"/>
<stop offset="1" stop-color="#A8A8A8" stop-opacity="0.57"/>
</linearGradient>
<linearGradient id="paint2_linear_83_1209" x1="230.904" y1="592.705" x2="230.904" y2="659.205" gradientUnits="userSpaceOnUse">
<stop stop-color="#C4C4C4"/>
<stop offset="1" stop-color="#C4C4C4" stop-opacity="0.9"/>
</linearGradient>
<linearGradient id="paint3_linear_83_1209" x1="708" y1="503" x2="708" y2="724" gradientUnits="userSpaceOnUse">
<stop stop-color="#32373A" stop-opacity="0.53"/>
<stop offset="0.463542" stop-color="#32373A"/>
</linearGradient>
</defs>
</svg>
