<svg width="946" height="796" viewBox="0 0 946 796" fill="none" xmlns="http://www.w3.org/2000/svg">
<path d="M125.716 486.228C174.452 457.533 255.386 437.653 347.965 429.146C440.529 420.641 544.668 423.51 639.775 440.265C734.893 457.023 820.917 487.66 877.303 534.647C905.49 558.135 926.258 585.698 937.068 617.646C947.853 649.521 948.736 685.797 937.136 726.803C554.818 833.24 303.207 801.607 171.599 729.101C105.776 692.838 70.0272 646.387 62.8541 601.923C55.6868 557.493 77.0266 514.897 125.716 486.228Z" fill="#32373A" stroke="#878787"/>
<path d="M347 334H266.5V460H347V334Z" stroke="#878787"/>
<circle cx="341.5" cy="634" r="6" fill="#C4C4C4"/>
<circle cx="275.5" cy="634" r="6" fill="#C4C4C4"/>
<rect x="285" y="329.5" width="43" height="8" fill="#767676"/>
<rect x="285" y="329.5" width="43" height="8" stroke="#878787"/>
<g clip-path="url(#clip0_52_1156)">
<rect x="248.5" y="455" width="115" height="173" fill="#767676"/>
</g>
<rect x="249" y="455.5" width="114" height="172" stroke="black"/>
<g opacity="0.5">
<rect x="255" y="72.5" width="484" height="200" fill="#A8A8A8"/>
<path d="M304.438 96.172V98.09H301.834V106H299.44V98.09H296.836V96.172H304.438ZM308.733 96.172V106H306.339V96.172H308.733ZM322.298 96.172V106H319.904V100.106L317.706 106H315.774L313.562 100.092V106H311.168V96.172H313.996L316.754 102.976L319.484 96.172H322.298ZM327.114 98.09V100.078H330.32V101.926H327.114V104.082H330.74V106H324.72V96.172H330.74V98.09H327.114Z" fill="#080B0D"/>
<path d="M297.13 135.75C297.13 134.145 297.438 132.88 298.054 131.956C298.679 131.032 299.683 130.57 301.064 130.57C302.445 130.57 303.444 131.032 304.06 131.956C304.685 132.88 304.998 134.145 304.998 135.75C304.998 137.374 304.685 138.648 304.06 139.572C303.444 140.496 302.445 140.958 301.064 140.958C299.683 140.958 298.679 140.496 298.054 139.572C297.438 138.648 297.13 137.374 297.13 135.75ZM302.646 135.75C302.646 134.807 302.543 134.084 302.338 133.58C302.133 133.067 301.708 132.81 301.064 132.81C300.42 132.81 299.995 133.067 299.79 133.58C299.585 134.084 299.482 134.807 299.482 135.75C299.482 136.385 299.519 136.912 299.594 137.332C299.669 137.743 299.818 138.079 300.042 138.34C300.275 138.592 300.616 138.718 301.064 138.718C301.512 138.718 301.848 138.592 302.072 138.34C302.305 138.079 302.459 137.743 302.534 137.332C302.609 136.912 302.646 136.385 302.646 135.75ZM312.017 133.538C311.942 133.193 311.811 132.936 311.625 132.768C311.438 132.591 311.172 132.502 310.827 132.502C310.295 132.502 309.912 132.735 309.679 133.202C309.445 133.659 309.324 134.387 309.315 135.386C309.52 135.059 309.814 134.803 310.197 134.616C310.589 134.429 311.018 134.336 311.485 134.336C312.399 134.336 313.132 134.625 313.683 135.204C314.243 135.783 314.523 136.59 314.523 137.626C314.523 138.307 314.383 138.905 314.103 139.418C313.832 139.931 313.431 140.333 312.899 140.622C312.376 140.911 311.755 141.056 311.037 141.056C309.599 141.056 308.601 140.608 308.041 139.712C307.481 138.807 307.201 137.509 307.201 135.82C307.201 134.047 307.495 132.731 308.083 131.872C308.68 131.004 309.632 130.57 310.939 130.57C311.639 130.57 312.227 130.71 312.703 130.99C313.188 131.261 313.552 131.62 313.795 132.068C314.047 132.516 314.196 133.006 314.243 133.538H312.017ZM310.911 136.226C310.509 136.226 310.173 136.347 309.903 136.59C309.641 136.823 309.511 137.159 309.511 137.598C309.511 138.046 309.632 138.396 309.875 138.648C310.127 138.9 310.481 139.026 310.939 139.026C311.349 139.026 311.671 138.905 311.905 138.662C312.147 138.41 312.269 138.069 312.269 137.64C312.269 137.201 312.152 136.856 311.919 136.604C311.685 136.352 311.349 136.226 310.911 136.226ZM317.935 141.112C317.515 141.112 317.17 140.991 316.899 140.748C316.638 140.496 316.507 140.188 316.507 139.824C316.507 139.451 316.638 139.138 316.899 138.886C317.17 138.634 317.515 138.508 317.935 138.508C318.346 138.508 318.682 138.634 318.943 138.886C319.214 139.138 319.349 139.451 319.349 139.824C319.349 140.188 319.214 140.496 318.943 140.748C318.682 140.991 318.346 141.112 317.935 141.112ZM317.935 135.414C317.515 135.414 317.17 135.293 316.899 135.05C316.638 134.798 316.507 134.49 316.507 134.126C316.507 133.753 316.638 133.44 316.899 133.188C317.17 132.936 317.515 132.81 317.935 132.81C318.346 132.81 318.682 132.936 318.943 133.188C319.214 133.44 319.349 133.753 319.349 134.126C319.349 134.49 319.214 134.798 318.943 135.05C318.682 135.293 318.346 135.414 317.935 135.414ZM321.339 133.664C321.377 132.665 321.703 131.895 322.319 131.354C322.935 130.813 323.771 130.542 324.825 130.542C325.525 130.542 326.123 130.663 326.617 130.906C327.121 131.149 327.499 131.48 327.751 131.9C328.013 132.32 328.143 132.791 328.143 133.314C328.143 133.93 327.989 134.434 327.681 134.826C327.373 135.209 327.014 135.47 326.603 135.61V135.666C327.135 135.843 327.555 136.137 327.863 136.548C328.171 136.959 328.325 137.486 328.325 138.13C328.325 138.709 328.19 139.222 327.919 139.67C327.658 140.109 327.271 140.454 326.757 140.706C326.253 140.958 325.651 141.084 324.951 141.084C323.831 141.084 322.935 140.809 322.263 140.258C321.601 139.707 321.251 138.877 321.213 137.766H323.537C323.547 138.177 323.663 138.503 323.887 138.746C324.111 138.979 324.438 139.096 324.867 139.096C325.231 139.096 325.511 138.993 325.707 138.788C325.913 138.573 326.015 138.293 326.015 137.948C326.015 137.5 325.871 137.178 325.581 136.982C325.301 136.777 324.849 136.674 324.223 136.674H323.775V134.728H324.223C324.699 134.728 325.082 134.649 325.371 134.49C325.67 134.322 325.819 134.028 325.819 133.608C325.819 133.272 325.726 133.011 325.539 132.824C325.353 132.637 325.096 132.544 324.769 132.544C324.415 132.544 324.149 132.651 323.971 132.866C323.803 133.081 323.705 133.347 323.677 133.664H321.339ZM330.348 139.082C330.665 138.83 330.81 138.713 330.782 138.732C331.697 137.976 332.415 137.355 332.938 136.87C333.47 136.385 333.918 135.876 334.282 135.344C334.646 134.812 334.828 134.294 334.828 133.79C334.828 133.407 334.739 133.109 334.562 132.894C334.385 132.679 334.119 132.572 333.764 132.572C333.409 132.572 333.129 132.707 332.924 132.978C332.728 133.239 332.63 133.613 332.63 134.098H330.32C330.339 133.305 330.507 132.642 330.824 132.11C331.151 131.578 331.575 131.186 332.098 130.934C332.63 130.682 333.218 130.556 333.862 130.556C334.973 130.556 335.808 130.841 336.368 131.41C336.937 131.979 337.222 132.721 337.222 133.636C337.222 134.635 336.881 135.563 336.2 136.422C335.519 137.271 334.651 138.102 333.596 138.914H337.376V140.86H330.348V139.082Z" fill="#43484B"/>
<path d="M396.016 139.098C395.092 139.098 394.243 138.883 393.468 138.454C392.703 138.025 392.091 137.427 391.634 136.662C391.186 135.887 390.962 135.019 390.962 134.058C390.962 133.097 391.186 132.233 391.634 131.468C392.091 130.703 392.703 130.105 393.468 129.676C394.243 129.247 395.092 129.032 396.016 129.032C396.94 129.032 397.785 129.247 398.55 129.676C399.325 130.105 399.931 130.703 400.37 131.468C400.818 132.233 401.042 133.097 401.042 134.058C401.042 135.019 400.818 135.887 400.37 136.662C399.922 137.427 399.315 138.025 398.55 138.454C397.785 138.883 396.94 139.098 396.016 139.098ZM396.016 136.914C396.8 136.914 397.425 136.653 397.892 136.13C398.368 135.607 398.606 134.917 398.606 134.058C398.606 133.19 398.368 132.499 397.892 131.986C397.425 131.463 396.8 131.202 396.016 131.202C395.223 131.202 394.588 131.459 394.112 131.972C393.645 132.485 393.412 133.181 393.412 134.058C393.412 134.926 393.645 135.621 394.112 136.144C394.588 136.657 395.223 136.914 396.016 136.914ZM406.63 139.098C405.911 139.098 405.267 138.981 404.698 138.748C404.129 138.515 403.671 138.169 403.326 137.712C402.99 137.255 402.813 136.704 402.794 136.06H405.342C405.379 136.424 405.505 136.704 405.72 136.9C405.935 137.087 406.215 137.18 406.56 137.18C406.915 137.18 407.195 137.101 407.4 136.942C407.605 136.774 407.708 136.545 407.708 136.256C407.708 136.013 407.624 135.813 407.456 135.654C407.297 135.495 407.097 135.365 406.854 135.262C406.621 135.159 406.285 135.043 405.846 134.912C405.211 134.716 404.693 134.52 404.292 134.324C403.891 134.128 403.545 133.839 403.256 133.456C402.967 133.073 402.822 132.574 402.822 131.958C402.822 131.043 403.153 130.329 403.816 129.816C404.479 129.293 405.342 129.032 406.406 129.032C407.489 129.032 408.361 129.293 409.024 129.816C409.687 130.329 410.041 131.048 410.088 131.972H407.498C407.479 131.655 407.363 131.407 407.148 131.23C406.933 131.043 406.658 130.95 406.322 130.95C406.033 130.95 405.799 131.029 405.622 131.188C405.445 131.337 405.356 131.557 405.356 131.846C405.356 132.163 405.505 132.411 405.804 132.588C406.103 132.765 406.569 132.957 407.204 133.162C407.839 133.377 408.352 133.582 408.744 133.778C409.145 133.974 409.491 134.259 409.78 134.632C410.069 135.005 410.214 135.486 410.214 136.074C410.214 136.634 410.069 137.143 409.78 137.6C409.5 138.057 409.089 138.421 408.548 138.692C408.007 138.963 407.367 139.098 406.63 139.098ZM414.781 137.152H417.917V139H412.387V129.172H414.781V137.152ZM424.407 139.098C423.483 139.098 422.634 138.883 421.859 138.454C421.094 138.025 420.482 137.427 420.025 136.662C419.577 135.887 419.353 135.019 419.353 134.058C419.353 133.097 419.577 132.233 420.025 131.468C420.482 130.703 421.094 130.105 421.859 129.676C422.634 129.247 423.483 129.032 424.407 129.032C425.331 129.032 426.176 129.247 426.941 129.676C427.716 130.105 428.322 130.703 428.761 131.468C429.209 132.233 429.433 133.097 429.433 134.058C429.433 135.019 429.209 135.887 428.761 136.662C428.313 137.427 427.706 138.025 426.941 138.454C426.176 138.883 425.331 139.098 424.407 139.098ZM424.407 136.914C425.191 136.914 425.816 136.653 426.283 136.13C426.759 135.607 426.997 134.917 426.997 134.058C426.997 133.19 426.759 132.499 426.283 131.986C425.816 131.463 425.191 131.202 424.407 131.202C423.614 131.202 422.979 131.459 422.503 131.972C422.036 132.485 421.803 133.181 421.803 134.058C421.803 134.926 422.036 135.621 422.503 136.144C422.979 136.657 423.614 136.914 424.407 136.914Z" fill="#43484B"/>
<path d="M397.318 154.96C397.887 155.081 398.345 155.366 398.69 155.814C399.035 156.253 399.208 156.757 399.208 157.326C399.208 158.147 398.919 158.801 398.34 159.286C397.771 159.762 396.973 160 395.946 160H391.368V150.172H395.792C396.791 150.172 397.57 150.401 398.13 150.858C398.699 151.315 398.984 151.936 398.984 152.72C398.984 153.299 398.83 153.779 398.522 154.162C398.223 154.545 397.822 154.811 397.318 154.96ZM393.762 154.148H395.33C395.722 154.148 396.021 154.064 396.226 153.896C396.441 153.719 396.548 153.462 396.548 153.126C396.548 152.79 396.441 152.533 396.226 152.356C396.021 152.179 395.722 152.09 395.33 152.09H393.762V154.148ZM395.526 158.068C395.927 158.068 396.235 157.979 396.45 157.802C396.674 157.615 396.786 157.349 396.786 157.004C396.786 156.659 396.669 156.388 396.436 156.192C396.212 155.996 395.899 155.898 395.498 155.898H393.762V158.068H395.526ZM403.691 152.09V154.078H406.897V155.926H403.691V158.082H407.317V160H401.297V150.172H407.317V152.09H403.691ZM414.583 160L412.539 156.29H411.965V160H409.571V150.172H413.589C414.363 150.172 415.021 150.307 415.563 150.578C416.113 150.849 416.524 151.222 416.795 151.698C417.065 152.165 417.201 152.687 417.201 153.266C417.201 153.919 417.014 154.503 416.641 155.016C416.277 155.529 415.735 155.893 415.017 156.108L417.285 160H414.583ZM411.965 154.596H413.449C413.887 154.596 414.214 154.489 414.429 154.274C414.653 154.059 414.765 153.756 414.765 153.364C414.765 152.991 414.653 152.697 414.429 152.482C414.214 152.267 413.887 152.16 413.449 152.16H411.965V154.596ZM425.928 153.28C425.75 152.953 425.494 152.706 425.158 152.538C424.831 152.361 424.444 152.272 423.996 152.272C423.221 152.272 422.6 152.529 422.134 153.042C421.667 153.546 421.434 154.223 421.434 155.072C421.434 155.977 421.676 156.687 422.162 157.2C422.656 157.704 423.333 157.956 424.192 157.956C424.78 157.956 425.274 157.807 425.676 157.508C426.086 157.209 426.385 156.78 426.572 156.22H423.534V154.456H428.742V156.682C428.564 157.279 428.261 157.835 427.832 158.348C427.412 158.861 426.875 159.277 426.222 159.594C425.568 159.911 424.831 160.07 424.01 160.07C423.039 160.07 422.171 159.86 421.406 159.44C420.65 159.011 420.057 158.418 419.628 157.662C419.208 156.906 418.998 156.043 418.998 155.072C418.998 154.101 419.208 153.238 419.628 152.482C420.057 151.717 420.65 151.124 421.406 150.704C422.162 150.275 423.025 150.06 423.996 150.06C425.172 150.06 426.161 150.345 426.964 150.914C427.776 151.483 428.312 152.272 428.574 153.28H425.928ZM433.162 152.09V154.078H436.368V155.926H433.162V158.082H436.788V160H430.768V150.172H436.788V152.09H433.162ZM447.834 160H445.44L441.436 153.938V160H439.042V150.172H441.436L445.44 156.262V150.172H447.834V160Z" fill="#43484B"/>
<path d="M398.438 171.172V173.09H395.834V181H393.44V173.09H390.836V171.172H398.438ZM405.351 181L403.307 177.29H402.733V181H400.339V171.172H404.357C405.132 171.172 405.79 171.307 406.331 171.578C406.882 171.849 407.293 172.222 407.563 172.698C407.834 173.165 407.969 173.687 407.969 174.266C407.969 174.919 407.783 175.503 407.409 176.016C407.045 176.529 406.504 176.893 405.785 177.108L408.053 181H405.351ZM402.733 175.596H404.217C404.656 175.596 404.983 175.489 405.197 175.274C405.421 175.059 405.533 174.756 405.533 174.364C405.533 173.991 405.421 173.697 405.197 173.482C404.983 173.267 404.656 173.16 404.217 173.16H402.733V175.596ZM414.82 181.098C413.896 181.098 413.047 180.883 412.272 180.454C411.507 180.025 410.896 179.427 410.438 178.662C409.99 177.887 409.766 177.019 409.766 176.058C409.766 175.097 409.99 174.233 410.438 173.468C410.896 172.703 411.507 172.105 412.272 171.676C413.047 171.247 413.896 171.032 414.82 171.032C415.744 171.032 416.589 171.247 417.354 171.676C418.129 172.105 418.736 172.703 419.174 173.468C419.622 174.233 419.846 175.097 419.846 176.058C419.846 177.019 419.622 177.887 419.174 178.662C418.726 179.427 418.12 180.025 417.354 180.454C416.589 180.883 415.744 181.098 414.82 181.098ZM414.82 178.914C415.604 178.914 416.23 178.653 416.696 178.13C417.172 177.607 417.41 176.917 417.41 176.058C417.41 175.19 417.172 174.499 416.696 173.986C416.23 173.463 415.604 173.202 414.82 173.202C414.027 173.202 413.392 173.459 412.916 173.972C412.45 174.485 412.216 175.181 412.216 176.058C412.216 176.926 412.45 177.621 412.916 178.144C413.392 178.657 414.027 178.914 414.82 178.914ZM425.56 171.172C426.596 171.172 427.501 171.377 428.276 171.788C429.051 172.199 429.648 172.777 430.068 173.524C430.497 174.261 430.712 175.115 430.712 176.086C430.712 177.047 430.497 177.901 430.068 178.648C429.648 179.395 429.046 179.973 428.262 180.384C427.487 180.795 426.587 181 425.56 181H421.878V171.172H425.56ZM425.406 178.928C426.311 178.928 427.016 178.681 427.52 178.186C428.024 177.691 428.276 176.991 428.276 176.086C428.276 175.181 428.024 174.476 427.52 173.972C427.016 173.468 426.311 173.216 425.406 173.216H424.272V178.928H425.406ZM441.262 171.172V181H438.868V176.954H435.144V181H432.75V171.172H435.144V175.022H438.868V171.172H441.262ZM446.084 173.09V175.078H449.29V176.926H446.084V179.082H449.71V181H443.69V171.172H449.71V173.09H446.084ZM454.358 171.172V181H451.964V171.172H454.358ZM467.923 171.172V181H465.529V175.106L463.331 181H461.399L459.187 175.092V181H456.793V171.172H459.621L462.379 177.976L465.109 171.172H467.923Z" fill="#43484B"/>
<path d="M397.486 200.264H393.818L393.23 202H390.724L394.28 192.172H397.052L400.608 202H398.074L397.486 200.264ZM396.87 198.416L395.652 194.818L394.448 198.416H396.87ZM404.784 200.152H407.92V202H402.39V192.172H404.784V200.152ZM416.832 192.172V194.09H414.228V202H411.834V194.09H409.23V192.172H416.832ZM418.258 198.08C418.258 197.277 418.407 196.573 418.706 195.966C419.014 195.359 419.429 194.893 419.952 194.566C420.474 194.239 421.058 194.076 421.702 194.076C422.252 194.076 422.733 194.188 423.144 194.412C423.564 194.636 423.886 194.93 424.11 195.294V194.188H426.504V202H424.11V200.894C423.876 201.258 423.55 201.552 423.13 201.776C422.719 202 422.238 202.112 421.688 202.112C421.053 202.112 420.474 201.949 419.952 201.622C419.429 201.286 419.014 200.815 418.706 200.208C418.407 199.592 418.258 198.883 418.258 198.08ZM424.11 198.094C424.11 197.497 423.942 197.025 423.606 196.68C423.279 196.335 422.878 196.162 422.402 196.162C421.926 196.162 421.52 196.335 421.184 196.68C420.857 197.016 420.694 197.483 420.694 198.08C420.694 198.677 420.857 199.153 421.184 199.508C421.52 199.853 421.926 200.026 422.402 200.026C422.878 200.026 423.279 199.853 423.606 199.508C423.942 199.163 424.11 198.691 424.11 198.094Z" fill="#43484B"/>
<path d="M396.016 223.098C395.092 223.098 394.243 222.883 393.468 222.454C392.703 222.025 392.091 221.427 391.634 220.662C391.186 219.887 390.962 219.019 390.962 218.058C390.962 217.097 391.186 216.233 391.634 215.468C392.091 214.703 392.703 214.105 393.468 213.676C394.243 213.247 395.092 213.032 396.016 213.032C396.94 213.032 397.785 213.247 398.55 213.676C399.325 214.105 399.931 214.703 400.37 215.468C400.818 216.233 401.042 217.097 401.042 218.058C401.042 219.019 400.818 219.887 400.37 220.662C399.922 221.427 399.315 222.025 398.55 222.454C397.785 222.883 396.94 223.098 396.016 223.098ZM396.016 220.914C396.8 220.914 397.425 220.653 397.892 220.13C398.368 219.607 398.606 218.917 398.606 218.058C398.606 217.19 398.368 216.499 397.892 215.986C397.425 215.463 396.8 215.202 396.016 215.202C395.223 215.202 394.588 215.459 394.112 215.972C393.645 216.485 393.412 217.181 393.412 218.058C393.412 218.926 393.645 219.621 394.112 220.144C394.588 220.657 395.223 220.914 396.016 220.914ZM406.63 223.098C405.911 223.098 405.267 222.981 404.698 222.748C404.129 222.515 403.671 222.169 403.326 221.712C402.99 221.255 402.813 220.704 402.794 220.06H405.342C405.379 220.424 405.505 220.704 405.72 220.9C405.935 221.087 406.215 221.18 406.56 221.18C406.915 221.18 407.195 221.101 407.4 220.942C407.605 220.774 407.708 220.545 407.708 220.256C407.708 220.013 407.624 219.813 407.456 219.654C407.297 219.495 407.097 219.365 406.854 219.262C406.621 219.159 406.285 219.043 405.846 218.912C405.211 218.716 404.693 218.52 404.292 218.324C403.891 218.128 403.545 217.839 403.256 217.456C402.967 217.073 402.822 216.574 402.822 215.958C402.822 215.043 403.153 214.329 403.816 213.816C404.479 213.293 405.342 213.032 406.406 213.032C407.489 213.032 408.361 213.293 409.024 213.816C409.687 214.329 410.041 215.048 410.088 215.972H407.498C407.479 215.655 407.363 215.407 407.148 215.23C406.933 215.043 406.658 214.95 406.322 214.95C406.033 214.95 405.799 215.029 405.622 215.188C405.445 215.337 405.356 215.557 405.356 215.846C405.356 216.163 405.505 216.411 405.804 216.588C406.103 216.765 406.569 216.957 407.204 217.162C407.839 217.377 408.352 217.582 408.744 217.778C409.145 217.974 409.491 218.259 409.78 218.632C410.069 219.005 410.214 219.486 410.214 220.074C410.214 220.634 410.069 221.143 409.78 221.6C409.5 222.057 409.089 222.421 408.548 222.692C408.007 222.963 407.367 223.098 406.63 223.098ZM414.781 221.152H417.917V223H412.387V213.172H414.781V221.152ZM424.407 223.098C423.483 223.098 422.634 222.883 421.859 222.454C421.094 222.025 420.482 221.427 420.025 220.662C419.577 219.887 419.353 219.019 419.353 218.058C419.353 217.097 419.577 216.233 420.025 215.468C420.482 214.703 421.094 214.105 421.859 213.676C422.634 213.247 423.483 213.032 424.407 213.032C425.331 213.032 426.176 213.247 426.941 213.676C427.716 214.105 428.322 214.703 428.761 215.468C429.209 216.233 429.433 217.097 429.433 218.058C429.433 219.019 429.209 219.887 428.761 220.662C428.313 221.427 427.706 222.025 426.941 222.454C426.176 222.883 425.331 223.098 424.407 223.098ZM424.407 220.914C425.191 220.914 425.816 220.653 426.283 220.13C426.759 219.607 426.997 218.917 426.997 218.058C426.997 217.19 426.759 216.499 426.283 215.986C425.816 215.463 425.191 215.202 424.407 215.202C423.614 215.202 422.979 215.459 422.503 215.972C422.036 216.485 421.803 217.181 421.803 218.058C421.803 218.926 422.036 219.621 422.503 220.144C422.979 220.657 423.614 220.914 424.407 220.914Z" fill="#43484B"/>
<path d="M396.016 244.098C395.092 244.098 394.243 243.883 393.468 243.454C392.703 243.025 392.091 242.427 391.634 241.662C391.186 240.887 390.962 240.019 390.962 239.058C390.962 238.097 391.186 237.233 391.634 236.468C392.091 235.703 392.703 235.105 393.468 234.676C394.243 234.247 395.092 234.032 396.016 234.032C396.94 234.032 397.785 234.247 398.55 234.676C399.325 235.105 399.931 235.703 400.37 236.468C400.818 237.233 401.042 238.097 401.042 239.058C401.042 240.019 400.818 240.887 400.37 241.662C399.922 242.427 399.315 243.025 398.55 243.454C397.785 243.883 396.94 244.098 396.016 244.098ZM396.016 241.914C396.8 241.914 397.425 241.653 397.892 241.13C398.368 240.607 398.606 239.917 398.606 239.058C398.606 238.19 398.368 237.499 397.892 236.986C397.425 236.463 396.8 236.202 396.016 236.202C395.223 236.202 394.588 236.459 394.112 236.972C393.645 237.485 393.412 238.181 393.412 239.058C393.412 239.926 393.645 240.621 394.112 241.144C394.588 241.657 395.223 241.914 396.016 241.914ZM406.63 244.098C405.911 244.098 405.267 243.981 404.698 243.748C404.129 243.515 403.671 243.169 403.326 242.712C402.99 242.255 402.813 241.704 402.794 241.06H405.342C405.379 241.424 405.505 241.704 405.72 241.9C405.935 242.087 406.215 242.18 406.56 242.18C406.915 242.18 407.195 242.101 407.4 241.942C407.605 241.774 407.708 241.545 407.708 241.256C407.708 241.013 407.624 240.813 407.456 240.654C407.297 240.495 407.097 240.365 406.854 240.262C406.621 240.159 406.285 240.043 405.846 239.912C405.211 239.716 404.693 239.52 404.292 239.324C403.891 239.128 403.545 238.839 403.256 238.456C402.967 238.073 402.822 237.574 402.822 236.958C402.822 236.043 403.153 235.329 403.816 234.816C404.479 234.293 405.342 234.032 406.406 234.032C407.489 234.032 408.361 234.293 409.024 234.816C409.687 235.329 410.041 236.048 410.088 236.972H407.498C407.479 236.655 407.363 236.407 407.148 236.23C406.933 236.043 406.658 235.95 406.322 235.95C406.033 235.95 405.799 236.029 405.622 236.188C405.445 236.337 405.356 236.557 405.356 236.846C405.356 237.163 405.505 237.411 405.804 237.588C406.103 237.765 406.569 237.957 407.204 238.162C407.839 238.377 408.352 238.582 408.744 238.778C409.145 238.974 409.491 239.259 409.78 239.632C410.069 240.005 410.214 240.486 410.214 241.074C410.214 241.634 410.069 242.143 409.78 242.6C409.5 243.057 409.089 243.421 408.548 243.692C408.007 243.963 407.367 244.098 406.63 244.098ZM414.781 242.152H417.917V244H412.387V234.172H414.781V242.152ZM424.407 244.098C423.483 244.098 422.634 243.883 421.859 243.454C421.094 243.025 420.482 242.427 420.025 241.662C419.577 240.887 419.353 240.019 419.353 239.058C419.353 238.097 419.577 237.233 420.025 236.468C420.482 235.703 421.094 235.105 421.859 234.676C422.634 234.247 423.483 234.032 424.407 234.032C425.331 234.032 426.176 234.247 426.941 234.676C427.716 235.105 428.322 235.703 428.761 236.468C429.209 237.233 429.433 238.097 429.433 239.058C429.433 240.019 429.209 240.887 428.761 241.662C428.313 242.427 427.706 243.025 426.941 243.454C426.176 243.883 425.331 244.098 424.407 244.098ZM424.407 241.914C425.191 241.914 425.816 241.653 426.283 241.13C426.759 240.607 426.997 239.917 426.997 239.058C426.997 238.19 426.759 237.499 426.283 236.986C425.816 236.463 425.191 236.202 424.407 236.202C423.614 236.202 422.979 236.459 422.503 236.972C422.036 237.485 421.803 238.181 421.803 239.058C421.803 239.926 422.036 240.621 422.503 241.144C422.979 241.657 423.614 241.914 424.407 241.914Z" fill="#43484B"/>
<path d="M558.486 137.264H554.818L554.23 139H551.724L555.28 129.172H558.052L561.608 139H559.074L558.486 137.264ZM557.87 135.416L556.652 131.818L555.448 135.416H557.87ZM565.784 137.152H568.92V139H563.39V129.172H565.784V137.152ZM577.832 129.172V131.09H575.228V139H572.834V131.09H570.23V129.172H577.832ZM585.852 137.264H582.184L581.596 139H579.09L582.646 129.172H585.418L588.974 139H586.44L585.852 137.264ZM585.236 135.416L584.018 131.818L582.814 135.416H585.236Z" fill="#43484B"/>
<path d="M559.438 150.172V152.09H556.834V160H554.44V152.09H551.836V150.172H559.438ZM566.351 160L564.307 156.29H563.733V160H561.339V150.172H565.357C566.132 150.172 566.79 150.307 567.331 150.578C567.882 150.849 568.293 151.222 568.563 151.698C568.834 152.165 568.969 152.687 568.969 153.266C568.969 153.919 568.783 154.503 568.409 155.016C568.045 155.529 567.504 155.893 566.785 156.108L569.053 160H566.351ZM563.733 154.596H565.217C565.656 154.596 565.983 154.489 566.197 154.274C566.421 154.059 566.533 153.756 566.533 153.364C566.533 152.991 566.421 152.697 566.197 152.482C565.983 152.267 565.656 152.16 565.217 152.16H563.733V154.596ZM575.82 160.098C574.896 160.098 574.047 159.883 573.272 159.454C572.507 159.025 571.896 158.427 571.438 157.662C570.99 156.887 570.766 156.019 570.766 155.058C570.766 154.097 570.99 153.233 571.438 152.468C571.896 151.703 572.507 151.105 573.272 150.676C574.047 150.247 574.896 150.032 575.82 150.032C576.744 150.032 577.589 150.247 578.354 150.676C579.129 151.105 579.736 151.703 580.174 152.468C580.622 153.233 580.846 154.097 580.846 155.058C580.846 156.019 580.622 156.887 580.174 157.662C579.726 158.427 579.12 159.025 578.354 159.454C577.589 159.883 576.744 160.098 575.82 160.098ZM575.82 157.914C576.604 157.914 577.23 157.653 577.696 157.13C578.172 156.607 578.41 155.917 578.41 155.058C578.41 154.19 578.172 153.499 577.696 152.986C577.23 152.463 576.604 152.202 575.82 152.202C575.027 152.202 574.392 152.459 573.916 152.972C573.45 153.485 573.216 154.181 573.216 155.058C573.216 155.926 573.45 156.621 573.916 157.144C574.392 157.657 575.027 157.914 575.82 157.914ZM586.56 150.172C587.596 150.172 588.501 150.377 589.276 150.788C590.051 151.199 590.648 151.777 591.068 152.524C591.497 153.261 591.712 154.115 591.712 155.086C591.712 156.047 591.497 156.901 591.068 157.648C590.648 158.395 590.046 158.973 589.262 159.384C588.487 159.795 587.587 160 586.56 160H582.878V150.172H586.56ZM586.406 157.928C587.311 157.928 588.016 157.681 588.52 157.186C589.024 156.691 589.276 155.991 589.276 155.086C589.276 154.181 589.024 153.476 588.52 152.972C588.016 152.468 587.311 152.216 586.406 152.216H585.272V157.928H586.406ZM602.262 150.172V160H599.868V155.954H596.144V160H593.75V150.172H596.144V154.022H599.868V150.172H602.262ZM607.084 152.09V154.078H610.29V155.926H607.084V158.082H610.71V160H604.69V150.172H610.71V152.09H607.084ZM615.358 150.172V160H612.964V150.172H615.358ZM628.923 150.172V160H626.529V154.106L624.331 160H622.399L620.187 154.092V160H617.793V150.172H620.621L623.379 156.976L626.109 150.172H628.923Z" fill="#43484B"/>
<path d="M557.016 181.098C556.092 181.098 555.243 180.883 554.468 180.454C553.703 180.025 553.091 179.427 552.634 178.662C552.186 177.887 551.962 177.019 551.962 176.058C551.962 175.097 552.186 174.233 552.634 173.468C553.091 172.703 553.703 172.105 554.468 171.676C555.243 171.247 556.092 171.032 557.016 171.032C557.94 171.032 558.785 171.247 559.55 171.676C560.325 172.105 560.931 172.703 561.37 173.468C561.818 174.233 562.042 175.097 562.042 176.058C562.042 177.019 561.818 177.887 561.37 178.662C560.922 179.427 560.315 180.025 559.55 180.454C558.785 180.883 557.94 181.098 557.016 181.098ZM557.016 178.914C557.8 178.914 558.425 178.653 558.892 178.13C559.368 177.607 559.606 176.917 559.606 176.058C559.606 175.19 559.368 174.499 558.892 173.986C558.425 173.463 557.8 173.202 557.016 173.202C556.223 173.202 555.588 173.459 555.112 173.972C554.645 174.485 554.412 175.181 554.412 176.058C554.412 176.926 554.645 177.621 555.112 178.144C555.588 178.657 556.223 178.914 557.016 178.914ZM567.63 181.098C566.911 181.098 566.267 180.981 565.698 180.748C565.129 180.515 564.671 180.169 564.326 179.712C563.99 179.255 563.813 178.704 563.794 178.06H566.342C566.379 178.424 566.505 178.704 566.72 178.9C566.935 179.087 567.215 179.18 567.56 179.18C567.915 179.18 568.195 179.101 568.4 178.942C568.605 178.774 568.708 178.545 568.708 178.256C568.708 178.013 568.624 177.813 568.456 177.654C568.297 177.495 568.097 177.365 567.854 177.262C567.621 177.159 567.285 177.043 566.846 176.912C566.211 176.716 565.693 176.52 565.292 176.324C564.891 176.128 564.545 175.839 564.256 175.456C563.967 175.073 563.822 174.574 563.822 173.958C563.822 173.043 564.153 172.329 564.816 171.816C565.479 171.293 566.342 171.032 567.406 171.032C568.489 171.032 569.361 171.293 570.024 171.816C570.687 172.329 571.041 173.048 571.088 173.972H568.498C568.479 173.655 568.363 173.407 568.148 173.23C567.933 173.043 567.658 172.95 567.322 172.95C567.033 172.95 566.799 173.029 566.622 173.188C566.445 173.337 566.356 173.557 566.356 173.846C566.356 174.163 566.505 174.411 566.804 174.588C567.103 174.765 567.569 174.957 568.204 175.162C568.839 175.377 569.352 175.582 569.744 175.778C570.145 175.974 570.491 176.259 570.78 176.632C571.069 177.005 571.214 177.486 571.214 178.074C571.214 178.634 571.069 179.143 570.78 179.6C570.5 180.057 570.089 180.421 569.548 180.692C569.007 180.963 568.367 181.098 567.63 181.098ZM575.781 179.152H578.917V181H573.387V171.172H575.781V179.152ZM585.407 181.098C584.483 181.098 583.634 180.883 582.859 180.454C582.094 180.025 581.482 179.427 581.025 178.662C580.577 177.887 580.353 177.019 580.353 176.058C580.353 175.097 580.577 174.233 581.025 173.468C581.482 172.703 582.094 172.105 582.859 171.676C583.634 171.247 584.483 171.032 585.407 171.032C586.331 171.032 587.176 171.247 587.941 171.676C588.716 172.105 589.322 172.703 589.761 173.468C590.209 174.233 590.433 175.097 590.433 176.058C590.433 177.019 590.209 177.887 589.761 178.662C589.313 179.427 588.706 180.025 587.941 180.454C587.176 180.883 586.331 181.098 585.407 181.098ZM585.407 178.914C586.191 178.914 586.816 178.653 587.283 178.13C587.759 177.607 587.997 176.917 587.997 176.058C587.997 175.19 587.759 174.499 587.283 173.986C586.816 173.463 586.191 173.202 585.407 173.202C584.614 173.202 583.979 173.459 583.503 173.972C583.036 174.485 582.803 175.181 582.803 176.058C582.803 176.926 583.036 177.621 583.503 178.144C583.979 178.657 584.614 178.914 585.407 178.914Z" fill="#43484B"/>
<path d="M557.016 202.098C556.092 202.098 555.243 201.883 554.468 201.454C553.703 201.025 553.091 200.427 552.634 199.662C552.186 198.887 551.962 198.019 551.962 197.058C551.962 196.097 552.186 195.233 552.634 194.468C553.091 193.703 553.703 193.105 554.468 192.676C555.243 192.247 556.092 192.032 557.016 192.032C557.94 192.032 558.785 192.247 559.55 192.676C560.325 193.105 560.931 193.703 561.37 194.468C561.818 195.233 562.042 196.097 562.042 197.058C562.042 198.019 561.818 198.887 561.37 199.662C560.922 200.427 560.315 201.025 559.55 201.454C558.785 201.883 557.94 202.098 557.016 202.098ZM557.016 199.914C557.8 199.914 558.425 199.653 558.892 199.13C559.368 198.607 559.606 197.917 559.606 197.058C559.606 196.19 559.368 195.499 558.892 194.986C558.425 194.463 557.8 194.202 557.016 194.202C556.223 194.202 555.588 194.459 555.112 194.972C554.645 195.485 554.412 196.181 554.412 197.058C554.412 197.926 554.645 198.621 555.112 199.144C555.588 199.657 556.223 199.914 557.016 199.914ZM567.63 202.098C566.911 202.098 566.267 201.981 565.698 201.748C565.129 201.515 564.671 201.169 564.326 200.712C563.99 200.255 563.813 199.704 563.794 199.06H566.342C566.379 199.424 566.505 199.704 566.72 199.9C566.935 200.087 567.215 200.18 567.56 200.18C567.915 200.18 568.195 200.101 568.4 199.942C568.605 199.774 568.708 199.545 568.708 199.256C568.708 199.013 568.624 198.813 568.456 198.654C568.297 198.495 568.097 198.365 567.854 198.262C567.621 198.159 567.285 198.043 566.846 197.912C566.211 197.716 565.693 197.52 565.292 197.324C564.891 197.128 564.545 196.839 564.256 196.456C563.967 196.073 563.822 195.574 563.822 194.958C563.822 194.043 564.153 193.329 564.816 192.816C565.479 192.293 566.342 192.032 567.406 192.032C568.489 192.032 569.361 192.293 570.024 192.816C570.687 193.329 571.041 194.048 571.088 194.972H568.498C568.479 194.655 568.363 194.407 568.148 194.23C567.933 194.043 567.658 193.95 567.322 193.95C567.033 193.95 566.799 194.029 566.622 194.188C566.445 194.337 566.356 194.557 566.356 194.846C566.356 195.163 566.505 195.411 566.804 195.588C567.103 195.765 567.569 195.957 568.204 196.162C568.839 196.377 569.352 196.582 569.744 196.778C570.145 196.974 570.491 197.259 570.78 197.632C571.069 198.005 571.214 198.486 571.214 199.074C571.214 199.634 571.069 200.143 570.78 200.6C570.5 201.057 570.089 201.421 569.548 201.692C569.007 201.963 568.367 202.098 567.63 202.098ZM575.781 200.152H578.917V202H573.387V192.172H575.781V200.152ZM585.407 202.098C584.483 202.098 583.634 201.883 582.859 201.454C582.094 201.025 581.482 200.427 581.025 199.662C580.577 198.887 580.353 198.019 580.353 197.058C580.353 196.097 580.577 195.233 581.025 194.468C581.482 193.703 582.094 193.105 582.859 192.676C583.634 192.247 584.483 192.032 585.407 192.032C586.331 192.032 587.176 192.247 587.941 192.676C588.716 193.105 589.322 193.703 589.761 194.468C590.209 195.233 590.433 196.097 590.433 197.058C590.433 198.019 590.209 198.887 589.761 199.662C589.313 200.427 588.706 201.025 587.941 201.454C587.176 201.883 586.331 202.098 585.407 202.098ZM585.407 199.914C586.191 199.914 586.816 199.653 587.283 199.13C587.759 198.607 587.997 197.917 587.997 197.058C587.997 196.19 587.759 195.499 587.283 194.986C586.816 194.463 586.191 194.202 585.407 194.202C584.614 194.202 583.979 194.459 583.503 194.972C583.036 195.485 582.803 196.181 582.803 197.058C582.803 197.926 583.036 198.621 583.503 199.144C583.979 199.657 584.614 199.914 585.407 199.914Z" fill="#43484B"/>
<path d="M558.318 217.96C558.887 218.081 559.345 218.366 559.69 218.814C560.035 219.253 560.208 219.757 560.208 220.326C560.208 221.147 559.919 221.801 559.34 222.286C558.771 222.762 557.973 223 556.946 223H552.368V213.172H556.792C557.791 213.172 558.57 213.401 559.13 213.858C559.699 214.315 559.984 214.936 559.984 215.72C559.984 216.299 559.83 216.779 559.522 217.162C559.223 217.545 558.822 217.811 558.318 217.96ZM554.762 217.148H556.33C556.722 217.148 557.021 217.064 557.226 216.896C557.441 216.719 557.548 216.462 557.548 216.126C557.548 215.79 557.441 215.533 557.226 215.356C557.021 215.179 556.722 215.09 556.33 215.09H554.762V217.148ZM556.526 221.068C556.927 221.068 557.235 220.979 557.45 220.802C557.674 220.615 557.786 220.349 557.786 220.004C557.786 219.659 557.669 219.388 557.436 219.192C557.212 218.996 556.899 218.898 556.498 218.898H554.762V221.068H556.526ZM564.691 215.09V217.078H567.897V218.926H564.691V221.082H568.317V223H562.297V213.172H568.317V215.09H564.691ZM575.583 223L573.539 219.29H572.965V223H570.571V213.172H574.589C575.363 213.172 576.021 213.307 576.563 213.578C577.113 213.849 577.524 214.222 577.795 214.698C578.065 215.165 578.201 215.687 578.201 216.266C578.201 216.919 578.014 217.503 577.641 218.016C577.277 218.529 576.735 218.893 576.017 219.108L578.285 223H575.583ZM572.965 217.596H574.449C574.887 217.596 575.214 217.489 575.429 217.274C575.653 217.059 575.765 216.756 575.765 216.364C575.765 215.991 575.653 215.697 575.429 215.482C575.214 215.267 574.887 215.16 574.449 215.16H572.965V217.596ZM586.928 216.28C586.75 215.953 586.494 215.706 586.158 215.538C585.831 215.361 585.444 215.272 584.996 215.272C584.221 215.272 583.6 215.529 583.134 216.042C582.667 216.546 582.434 217.223 582.434 218.072C582.434 218.977 582.676 219.687 583.162 220.2C583.656 220.704 584.333 220.956 585.192 220.956C585.78 220.956 586.274 220.807 586.676 220.508C587.086 220.209 587.385 219.78 587.572 219.22H584.534V217.456H589.742V219.682C589.564 220.279 589.261 220.835 588.832 221.348C588.412 221.861 587.875 222.277 587.222 222.594C586.568 222.911 585.831 223.07 585.01 223.07C584.039 223.07 583.171 222.86 582.406 222.44C581.65 222.011 581.057 221.418 580.628 220.662C580.208 219.906 579.998 219.043 579.998 218.072C579.998 217.101 580.208 216.238 580.628 215.482C581.057 214.717 581.65 214.124 582.406 213.704C583.162 213.275 584.025 213.06 584.996 213.06C586.172 213.06 587.161 213.345 587.964 213.914C588.776 214.483 589.312 215.272 589.574 216.28H586.928ZM594.162 215.09V217.078H597.368V218.926H594.162V221.082H597.788V223H591.768V213.172H597.788V215.09H594.162ZM608.834 223H606.44L602.436 216.938V223H600.042V213.172H602.436L606.44 219.262V213.172H608.834V223Z" fill="#43484B"/>
<path d="M558.318 238.96C558.887 239.081 559.345 239.366 559.69 239.814C560.035 240.253 560.208 240.757 560.208 241.326C560.208 242.147 559.919 242.801 559.34 243.286C558.771 243.762 557.973 244 556.946 244H552.368V234.172H556.792C557.791 234.172 558.57 234.401 559.13 234.858C559.699 235.315 559.984 235.936 559.984 236.72C559.984 237.299 559.83 237.779 559.522 238.162C559.223 238.545 558.822 238.811 558.318 238.96ZM554.762 238.148H556.33C556.722 238.148 557.021 238.064 557.226 237.896C557.441 237.719 557.548 237.462 557.548 237.126C557.548 236.79 557.441 236.533 557.226 236.356C557.021 236.179 556.722 236.09 556.33 236.09H554.762V238.148ZM556.526 242.068C556.927 242.068 557.235 241.979 557.45 241.802C557.674 241.615 557.786 241.349 557.786 241.004C557.786 240.659 557.669 240.388 557.436 240.192C557.212 239.996 556.899 239.898 556.498 239.898H554.762V242.068H556.526ZM564.691 236.09V238.078H567.897V239.926H564.691V242.082H568.317V244H562.297V234.172H568.317V236.09H564.691ZM575.583 244L573.539 240.29H572.965V244H570.571V234.172H574.589C575.363 234.172 576.021 234.307 576.563 234.578C577.113 234.849 577.524 235.222 577.795 235.698C578.065 236.165 578.201 236.687 578.201 237.266C578.201 237.919 578.014 238.503 577.641 239.016C577.277 239.529 576.735 239.893 576.017 240.108L578.285 244H575.583ZM572.965 238.596H574.449C574.887 238.596 575.214 238.489 575.429 238.274C575.653 238.059 575.765 237.756 575.765 237.364C575.765 236.991 575.653 236.697 575.429 236.482C575.214 236.267 574.887 236.16 574.449 236.16H572.965V238.596ZM586.928 237.28C586.75 236.953 586.494 236.706 586.158 236.538C585.831 236.361 585.444 236.272 584.996 236.272C584.221 236.272 583.6 236.529 583.134 237.042C582.667 237.546 582.434 238.223 582.434 239.072C582.434 239.977 582.676 240.687 583.162 241.2C583.656 241.704 584.333 241.956 585.192 241.956C585.78 241.956 586.274 241.807 586.676 241.508C587.086 241.209 587.385 240.78 587.572 240.22H584.534V238.456H589.742V240.682C589.564 241.279 589.261 241.835 588.832 242.348C588.412 242.861 587.875 243.277 587.222 243.594C586.568 243.911 585.831 244.07 585.01 244.07C584.039 244.07 583.171 243.86 582.406 243.44C581.65 243.011 581.057 242.418 580.628 241.662C580.208 240.906 579.998 240.043 579.998 239.072C579.998 238.101 580.208 237.238 580.628 236.482C581.057 235.717 581.65 235.124 582.406 234.704C583.162 234.275 584.025 234.06 584.996 234.06C586.172 234.06 587.161 234.345 587.964 234.914C588.776 235.483 589.312 236.272 589.574 237.28H586.928ZM594.162 236.09V238.078H597.368V239.926H594.162V242.082H597.788V244H591.768V234.172H597.788V236.09H594.162ZM608.834 244H606.44L602.436 237.938V244H600.042V234.172H602.436L606.44 240.262V234.172H608.834V244Z" fill="#43484B"/>
<path d="M663.046 137.082C663.363 136.83 663.508 136.713 663.48 136.732C664.395 135.976 665.113 135.355 665.636 134.87C666.168 134.385 666.616 133.876 666.98 133.344C667.344 132.812 667.526 132.294 667.526 131.79C667.526 131.407 667.437 131.109 667.26 130.894C667.083 130.679 666.817 130.572 666.462 130.572C666.107 130.572 665.827 130.707 665.622 130.978C665.426 131.239 665.328 131.613 665.328 132.098H663.018C663.037 131.305 663.205 130.642 663.522 130.11C663.849 129.578 664.273 129.186 664.796 128.934C665.328 128.682 665.916 128.556 666.56 128.556C667.671 128.556 668.506 128.841 669.066 129.41C669.635 129.979 669.92 130.721 669.92 131.636C669.92 132.635 669.579 133.563 668.898 134.422C668.217 135.271 667.349 136.102 666.294 136.914H670.074V138.86H663.046V137.082ZM671.884 137.18V135.248L676.308 128.92H678.982V135.108H680.13V137.18H678.982V139H676.588V137.18H671.884ZM676.756 131.552L674.404 135.108H676.756V131.552ZM688.359 137.264H684.691L684.103 139H681.597L685.153 129.172H687.925L691.481 139H688.947L688.359 137.264ZM687.743 135.416L686.525 131.818L685.321 135.416H687.743Z" fill="#43484B"/>
<path d="M662.878 152.006V149.78H666.756V160H664.264V152.006H662.878ZM671.726 152.09V154.078H674.932V155.926H671.726V158.082H675.352V160H669.332V150.172H675.352V152.09H671.726Z" fill="#43484B"/>
<path d="M663.046 179.082C663.363 178.83 663.508 178.713 663.48 178.732C664.395 177.976 665.113 177.355 665.636 176.87C666.168 176.385 666.616 175.876 666.98 175.344C667.344 174.812 667.526 174.294 667.526 173.79C667.526 173.407 667.437 173.109 667.26 172.894C667.083 172.679 666.817 172.572 666.462 172.572C666.107 172.572 665.827 172.707 665.622 172.978C665.426 173.239 665.328 173.613 665.328 174.098H663.018C663.037 173.305 663.205 172.642 663.522 172.11C663.849 171.578 664.273 171.186 664.796 170.934C665.328 170.682 665.916 170.556 666.56 170.556C667.671 170.556 668.506 170.841 669.066 171.41C669.635 171.979 669.92 172.721 669.92 173.636C669.92 174.635 669.579 175.563 668.898 176.422C668.217 177.271 667.349 178.102 666.294 178.914H670.074V180.86H663.046V179.082ZM671.744 179.082C672.061 178.83 672.206 178.713 672.178 178.732C673.093 177.976 673.811 177.355 674.334 176.87C674.866 176.385 675.314 175.876 675.678 175.344C676.042 174.812 676.224 174.294 676.224 173.79C676.224 173.407 676.135 173.109 675.958 172.894C675.781 172.679 675.515 172.572 675.16 172.572C674.805 172.572 674.525 172.707 674.32 172.978C674.124 173.239 674.026 173.613 674.026 174.098H671.716C671.735 173.305 671.903 172.642 672.22 172.11C672.547 171.578 672.971 171.186 673.494 170.934C674.026 170.682 674.614 170.556 675.258 170.556C676.369 170.556 677.204 170.841 677.764 171.41C678.333 171.979 678.618 172.721 678.618 173.636C678.618 174.635 678.277 175.563 677.596 176.422C676.915 177.271 676.047 178.102 674.992 178.914H678.772V180.86H671.744V179.082ZM680.358 176.072C680.358 175.101 680.568 174.238 680.988 173.482C681.408 172.717 681.991 172.124 682.738 171.704C683.494 171.275 684.348 171.06 685.3 171.06C686.467 171.06 687.465 171.368 688.296 171.984C689.127 172.6 689.682 173.44 689.962 174.504H687.33C687.134 174.093 686.854 173.781 686.49 173.566C686.135 173.351 685.729 173.244 685.272 173.244C684.535 173.244 683.937 173.501 683.48 174.014C683.023 174.527 682.794 175.213 682.794 176.072C682.794 176.931 683.023 177.617 683.48 178.13C683.937 178.643 684.535 178.9 685.272 178.9C685.729 178.9 686.135 178.793 686.49 178.578C686.854 178.363 687.134 178.051 687.33 177.64H689.962C689.682 178.704 689.127 179.544 688.296 180.16C687.465 180.767 686.467 181.07 685.3 181.07C684.348 181.07 683.494 180.86 682.738 180.44C681.991 180.011 681.408 179.418 680.988 178.662C680.568 177.906 680.358 177.043 680.358 176.072Z" fill="#43484B"/>
<path d="M663.186 200.18V198.248L667.61 191.92H670.284V198.108H671.432V200.18H670.284V202H667.89V200.18H663.186ZM668.058 194.552L665.706 198.108H668.058V194.552ZM673.361 200.18V198.248L677.785 191.92H680.459V198.108H681.607V200.18H680.459V202H678.065V200.18H673.361ZM678.233 194.552L675.881 198.108H678.233V194.552ZM687.399 192.172C688.435 192.172 689.341 192.377 690.115 192.788C690.89 193.199 691.487 193.777 691.907 194.524C692.337 195.261 692.551 196.115 692.551 197.086C692.551 198.047 692.337 198.901 691.907 199.648C691.487 200.395 690.885 200.973 690.101 201.384C689.327 201.795 688.426 202 687.399 202H683.717V192.172H687.399ZM687.245 199.928C688.151 199.928 688.855 199.681 689.359 199.186C689.863 198.691 690.115 197.991 690.115 197.086C690.115 196.181 689.863 195.476 689.359 194.972C688.855 194.468 688.151 194.216 687.245 194.216H686.111V199.928H687.245Z" fill="#43484B"/>
<path d="M663.046 221.082C663.363 220.83 663.508 220.713 663.48 220.732C664.395 219.976 665.113 219.355 665.636 218.87C666.168 218.385 666.616 217.876 666.98 217.344C667.344 216.812 667.526 216.294 667.526 215.79C667.526 215.407 667.437 215.109 667.26 214.894C667.083 214.679 666.817 214.572 666.462 214.572C666.107 214.572 665.827 214.707 665.622 214.978C665.426 215.239 665.328 215.613 665.328 216.098H663.018C663.037 215.305 663.205 214.642 663.522 214.11C663.849 213.578 664.273 213.186 664.796 212.934C665.328 212.682 665.916 212.556 666.56 212.556C667.671 212.556 668.506 212.841 669.066 213.41C669.635 213.979 669.92 214.721 669.92 215.636C669.92 216.635 669.579 217.563 668.898 218.422C668.217 219.271 667.349 220.102 666.294 220.914H670.074V222.86H663.046V221.082ZM678.016 217.96C678.585 218.081 679.043 218.366 679.388 218.814C679.733 219.253 679.906 219.757 679.906 220.326C679.906 221.147 679.617 221.801 679.038 222.286C678.469 222.762 677.671 223 676.644 223H672.066V213.172H676.49C677.489 213.172 678.268 213.401 678.828 213.858C679.397 214.315 679.682 214.936 679.682 215.72C679.682 216.299 679.528 216.779 679.22 217.162C678.921 217.545 678.52 217.811 678.016 217.96ZM674.46 217.148H676.028C676.42 217.148 676.719 217.064 676.924 216.896C677.139 216.719 677.246 216.462 677.246 216.126C677.246 215.79 677.139 215.533 676.924 215.356C676.719 215.179 676.42 215.09 676.028 215.09H674.46V217.148ZM676.224 221.068C676.625 221.068 676.933 220.979 677.148 220.802C677.372 220.615 677.484 220.349 677.484 220.004C677.484 219.659 677.367 219.388 677.134 219.192C676.91 218.996 676.597 218.898 676.196 218.898H674.46V221.068H676.224Z" fill="#43484B"/>
<path d="M663.186 242.18V240.248L667.61 233.92H670.284V240.108H671.432V242.18H670.284V244H667.89V242.18H663.186ZM668.058 236.552L665.706 240.108H668.058V236.552ZM679.493 238.96C680.062 239.081 680.519 239.366 680.865 239.814C681.21 240.253 681.383 240.757 681.383 241.326C681.383 242.147 681.093 242.801 680.515 243.286C679.945 243.762 679.147 244 678.121 244H673.543V234.172H677.967C678.965 234.172 679.745 234.401 680.305 234.858C680.874 235.315 681.159 235.936 681.159 236.72C681.159 237.299 681.005 237.779 680.697 238.162C680.398 238.545 679.997 238.811 679.493 238.96ZM675.937 238.148H677.505C677.897 238.148 678.195 238.064 678.401 237.896C678.615 237.719 678.723 237.462 678.723 237.126C678.723 236.79 678.615 236.533 678.401 236.356C678.195 236.179 677.897 236.09 677.505 236.09H675.937V238.148ZM677.701 242.068C678.102 242.068 678.41 241.979 678.625 241.802C678.849 241.615 678.961 241.349 678.961 241.004C678.961 240.659 678.844 240.388 678.611 240.192C678.387 239.996 678.074 239.898 677.673 239.898H675.937V242.068H677.701Z" fill="#43484B"/>
<path d="M296.878 154.006V151.78H300.756V162H298.264V154.006H296.878ZM303.01 160.082C303.327 159.83 303.472 159.713 303.444 159.732C304.358 158.976 305.077 158.355 305.6 157.87C306.132 157.385 306.58 156.876 306.944 156.344C307.308 155.812 307.49 155.294 307.49 154.79C307.49 154.407 307.401 154.109 307.224 153.894C307.046 153.679 306.78 153.572 306.426 153.572C306.071 153.572 305.791 153.707 305.586 153.978C305.39 154.239 305.292 154.613 305.292 155.098H302.982C303 154.305 303.168 153.642 303.486 153.11C303.812 152.578 304.237 152.186 304.76 151.934C305.292 151.682 305.88 151.556 306.524 151.556C307.634 151.556 308.47 151.841 309.03 152.41C309.599 152.979 309.884 153.721 309.884 154.636C309.884 155.635 309.543 156.563 308.862 157.422C308.18 158.271 307.312 159.102 306.258 159.914H310.038V161.86H303.01V160.082ZM313.15 162.112C312.73 162.112 312.384 161.991 312.114 161.748C311.852 161.496 311.722 161.188 311.722 160.824C311.722 160.451 311.852 160.138 312.114 159.886C312.384 159.634 312.73 159.508 313.15 159.508C313.56 159.508 313.896 159.634 314.158 159.886C314.428 160.138 314.564 160.451 314.564 160.824C314.564 161.188 314.428 161.496 314.158 161.748C313.896 161.991 313.56 162.112 313.15 162.112ZM313.15 156.414C312.73 156.414 312.384 156.293 312.114 156.05C311.852 155.798 311.722 155.49 311.722 155.126C311.722 154.753 311.852 154.44 312.114 154.188C312.384 153.936 312.73 153.81 313.15 153.81C313.56 153.81 313.896 153.936 314.158 154.188C314.428 154.44 314.564 154.753 314.564 155.126C314.564 155.49 314.428 155.798 314.158 156.05C313.896 156.293 313.56 156.414 313.15 156.414ZM323.666 153.866H319.298V155.798C319.485 155.593 319.746 155.425 320.082 155.294C320.418 155.163 320.782 155.098 321.174 155.098C321.874 155.098 322.453 155.257 322.91 155.574C323.377 155.891 323.718 156.302 323.932 156.806C324.147 157.31 324.254 157.856 324.254 158.444C324.254 159.536 323.946 160.404 323.33 161.048C322.714 161.683 321.846 162 320.726 162C319.98 162 319.331 161.874 318.78 161.622C318.23 161.361 317.805 161.001 317.506 160.544C317.208 160.087 317.044 159.559 317.016 158.962H319.354C319.41 159.251 319.546 159.494 319.76 159.69C319.975 159.877 320.269 159.97 320.642 159.97C321.081 159.97 321.408 159.83 321.622 159.55C321.837 159.27 321.944 158.897 321.944 158.43C321.944 157.973 321.832 157.623 321.608 157.38C321.384 157.137 321.058 157.016 320.628 157.016C320.311 157.016 320.05 157.095 319.844 157.254C319.639 157.403 319.504 157.604 319.438 157.856H317.128V151.766H323.666V153.866ZM326.192 160.082C326.509 159.83 326.654 159.713 326.626 159.732C327.54 158.976 328.259 158.355 328.782 157.87C329.314 157.385 329.762 156.876 330.126 156.344C330.49 155.812 330.672 155.294 330.672 154.79C330.672 154.407 330.583 154.109 330.406 153.894C330.228 153.679 329.962 153.572 329.608 153.572C329.253 153.572 328.973 153.707 328.768 153.978C328.572 154.239 328.474 154.613 328.474 155.098H326.164C326.182 154.305 326.35 153.642 326.668 153.11C326.994 152.578 327.419 152.186 327.942 151.934C328.474 151.682 329.062 151.556 329.706 151.556C330.816 151.556 331.652 151.841 332.212 152.41C332.781 152.979 333.066 153.721 333.066 154.636C333.066 155.635 332.725 156.563 332.044 157.422C331.362 158.271 330.494 159.102 329.44 159.914H333.22V161.86H326.192V160.082Z" fill="#43484B"/>
<path d="M296.878 175.006V172.78H300.756V183H298.264V175.006H296.878ZM303.15 181.18V179.248L307.574 172.92H310.248V179.108H311.396V181.18H310.248V183H307.854V181.18H303.15ZM308.022 175.552L305.67 179.108H308.022V175.552ZM314.626 183.112C314.206 183.112 313.861 182.991 313.59 182.748C313.329 182.496 313.198 182.188 313.198 181.824C313.198 181.451 313.329 181.138 313.59 180.886C313.861 180.634 314.206 180.508 314.626 180.508C315.037 180.508 315.373 180.634 315.634 180.886C315.905 181.138 316.04 181.451 316.04 181.824C316.04 182.188 315.905 182.496 315.634 182.748C315.373 182.991 315.037 183.112 314.626 183.112ZM318.003 175.664C318.041 174.665 318.367 173.895 318.983 173.354C319.599 172.813 320.435 172.542 321.489 172.542C322.189 172.542 322.787 172.663 323.281 172.906C323.785 173.149 324.163 173.48 324.415 173.9C324.677 174.32 324.807 174.791 324.807 175.314C324.807 175.93 324.653 176.434 324.345 176.826C324.037 177.209 323.678 177.47 323.267 177.61V177.666C323.799 177.843 324.219 178.137 324.527 178.548C324.835 178.959 324.989 179.486 324.989 180.13C324.989 180.709 324.854 181.222 324.583 181.67C324.322 182.109 323.935 182.454 323.421 182.706C322.917 182.958 322.315 183.084 321.615 183.084C320.495 183.084 319.599 182.809 318.927 182.258C318.265 181.707 317.915 180.877 317.877 179.766H320.201C320.211 180.177 320.327 180.503 320.551 180.746C320.775 180.979 321.102 181.096 321.531 181.096C321.895 181.096 322.175 180.993 322.371 180.788C322.577 180.573 322.679 180.293 322.679 179.948C322.679 179.5 322.535 179.178 322.245 178.982C321.965 178.777 321.513 178.674 320.887 178.674H320.439V176.728H320.887C321.363 176.728 321.746 176.649 322.035 176.49C322.334 176.322 322.483 176.028 322.483 175.608C322.483 175.272 322.39 175.011 322.203 174.824C322.017 174.637 321.76 174.544 321.433 174.544C321.079 174.544 320.813 174.651 320.635 174.866C320.467 175.081 320.369 175.347 320.341 175.664H318.003ZM327.012 181.082C327.329 180.83 327.474 180.713 327.446 180.732C328.361 179.976 329.079 179.355 329.602 178.87C330.134 178.385 330.582 177.876 330.946 177.344C331.31 176.812 331.492 176.294 331.492 175.79C331.492 175.407 331.403 175.109 331.226 174.894C331.049 174.679 330.783 174.572 330.428 174.572C330.073 174.572 329.793 174.707 329.588 174.978C329.392 175.239 329.294 175.613 329.294 176.098H326.984C327.003 175.305 327.171 174.642 327.488 174.11C327.815 173.578 328.239 173.186 328.762 172.934C329.294 172.682 329.882 172.556 330.526 172.556C331.637 172.556 332.472 172.841 333.032 173.41C333.601 173.979 333.886 174.721 333.886 175.636C333.886 176.635 333.545 177.563 332.864 178.422C332.183 179.271 331.315 180.102 330.26 180.914H334.04V182.86H327.012V181.082Z" fill="#43484B"/>
<path d="M296.878 196.006V193.78H300.756V204H298.264V196.006H296.878ZM308.148 196.538C308.073 196.193 307.942 195.936 307.756 195.768C307.569 195.591 307.303 195.502 306.958 195.502C306.426 195.502 306.043 195.735 305.81 196.202C305.576 196.659 305.455 197.387 305.446 198.386C305.651 198.059 305.945 197.803 306.328 197.616C306.72 197.429 307.149 197.336 307.616 197.336C308.53 197.336 309.263 197.625 309.814 198.204C310.374 198.783 310.654 199.59 310.654 200.626C310.654 201.307 310.514 201.905 310.234 202.418C309.963 202.931 309.562 203.333 309.03 203.622C308.507 203.911 307.886 204.056 307.168 204.056C305.73 204.056 304.732 203.608 304.172 202.712C303.612 201.807 303.332 200.509 303.332 198.82C303.332 197.047 303.626 195.731 304.214 194.872C304.811 194.004 305.763 193.57 307.07 193.57C307.77 193.57 308.358 193.71 308.834 193.99C309.319 194.261 309.683 194.62 309.926 195.068C310.178 195.516 310.327 196.006 310.374 196.538H308.148ZM307.042 199.226C306.64 199.226 306.304 199.347 306.034 199.59C305.772 199.823 305.642 200.159 305.642 200.598C305.642 201.046 305.763 201.396 306.006 201.648C306.258 201.9 306.612 202.026 307.07 202.026C307.48 202.026 307.802 201.905 308.036 201.662C308.278 201.41 308.4 201.069 308.4 200.64C308.4 200.201 308.283 199.856 308.05 199.604C307.816 199.352 307.48 199.226 307.042 199.226ZM314.066 204.112C313.646 204.112 313.3 203.991 313.03 203.748C312.768 203.496 312.638 203.188 312.638 202.824C312.638 202.451 312.768 202.138 313.03 201.886C313.3 201.634 313.646 201.508 314.066 201.508C314.476 201.508 314.812 201.634 315.074 201.886C315.344 202.138 315.48 202.451 315.48 202.824C315.48 203.188 315.344 203.496 315.074 203.748C314.812 203.991 314.476 204.112 314.066 204.112ZM314.066 198.414C313.646 198.414 313.3 198.293 313.03 198.05C312.768 197.798 312.638 197.49 312.638 197.126C312.638 196.753 312.768 196.44 313.03 196.188C313.3 195.936 313.646 195.81 314.066 195.81C314.476 195.81 314.812 195.936 315.074 196.188C315.344 196.44 315.48 196.753 315.48 197.126C315.48 197.49 315.344 197.798 315.074 198.05C314.812 198.293 314.476 198.414 314.066 198.414ZM317.47 196.664C317.508 195.665 317.834 194.895 318.45 194.354C319.066 193.813 319.902 193.542 320.956 193.542C321.656 193.542 322.254 193.663 322.748 193.906C323.252 194.149 323.63 194.48 323.882 194.9C324.144 195.32 324.274 195.791 324.274 196.314C324.274 196.93 324.12 197.434 323.812 197.826C323.504 198.209 323.145 198.47 322.734 198.61V198.666C323.266 198.843 323.686 199.137 323.994 199.548C324.302 199.959 324.456 200.486 324.456 201.13C324.456 201.709 324.321 202.222 324.05 202.67C323.789 203.109 323.402 203.454 322.888 203.706C322.384 203.958 321.782 204.084 321.082 204.084C319.962 204.084 319.066 203.809 318.394 203.258C317.732 202.707 317.382 201.877 317.344 200.766H319.668C319.678 201.177 319.794 201.503 320.018 201.746C320.242 201.979 320.569 202.096 320.998 202.096C321.362 202.096 321.642 201.993 321.838 201.788C322.044 201.573 322.146 201.293 322.146 200.948C322.146 200.5 322.002 200.178 321.712 199.982C321.432 199.777 320.98 199.674 320.354 199.674H319.906V197.728H320.354C320.83 197.728 321.213 197.649 321.502 197.49C321.801 197.322 321.95 197.028 321.95 196.608C321.95 196.272 321.857 196.011 321.67 195.824C321.484 195.637 321.227 195.544 320.9 195.544C320.546 195.544 320.28 195.651 320.102 195.866C319.934 196.081 319.836 196.347 319.808 196.664H317.47ZM326.479 202.082C326.796 201.83 326.941 201.713 326.913 201.732C327.827 200.976 328.546 200.355 329.069 199.87C329.601 199.385 330.049 198.876 330.413 198.344C330.777 197.812 330.959 197.294 330.959 196.79C330.959 196.407 330.87 196.109 330.693 195.894C330.515 195.679 330.249 195.572 329.895 195.572C329.54 195.572 329.26 195.707 329.055 195.978C328.859 196.239 328.761 196.613 328.761 197.098H326.451C326.469 196.305 326.637 195.642 326.955 195.11C327.281 194.578 327.706 194.186 328.229 193.934C328.761 193.682 329.349 193.556 329.993 193.556C331.103 193.556 331.939 193.841 332.499 194.41C333.068 194.979 333.353 195.721 333.353 196.636C333.353 197.635 333.012 198.563 332.331 199.422C331.649 200.271 330.781 201.102 329.727 201.914H333.507V203.86H326.479V202.082Z" fill="#43484B"/>
<path d="M297.046 223.082C297.363 222.83 297.508 222.713 297.48 222.732C298.395 221.976 299.113 221.355 299.636 220.87C300.168 220.385 300.616 219.876 300.98 219.344C301.344 218.812 301.526 218.294 301.526 217.79C301.526 217.407 301.437 217.109 301.26 216.894C301.083 216.679 300.817 216.572 300.462 216.572C300.107 216.572 299.827 216.707 299.622 216.978C299.426 217.239 299.328 217.613 299.328 218.098H297.018C297.037 217.305 297.205 216.642 297.522 216.11C297.849 215.578 298.273 215.186 298.796 214.934C299.328 214.682 299.916 214.556 300.56 214.556C301.671 214.556 302.506 214.841 303.066 215.41C303.635 215.979 303.92 216.721 303.92 217.636C303.92 218.635 303.579 219.563 302.898 220.422C302.217 221.271 301.349 222.102 300.294 222.914H304.074V224.86H297.046V223.082ZM305.828 219.75C305.828 218.145 306.136 216.88 306.752 215.956C307.377 215.032 308.381 214.57 309.762 214.57C311.143 214.57 312.142 215.032 312.758 215.956C313.383 216.88 313.696 218.145 313.696 219.75C313.696 221.374 313.383 222.648 312.758 223.572C312.142 224.496 311.143 224.958 309.762 224.958C308.381 224.958 307.377 224.496 306.752 223.572C306.136 222.648 305.828 221.374 305.828 219.75ZM311.344 219.75C311.344 218.807 311.241 218.084 311.036 217.58C310.831 217.067 310.406 216.81 309.762 216.81C309.118 216.81 308.693 217.067 308.488 217.58C308.283 218.084 308.18 218.807 308.18 219.75C308.18 220.385 308.217 220.912 308.292 221.332C308.367 221.743 308.516 222.079 308.74 222.34C308.973 222.592 309.314 222.718 309.762 222.718C310.21 222.718 310.546 222.592 310.77 222.34C311.003 222.079 311.157 221.743 311.232 221.332C311.307 220.912 311.344 220.385 311.344 219.75ZM317.019 225.112C316.599 225.112 316.254 224.991 315.983 224.748C315.722 224.496 315.591 224.188 315.591 223.824C315.591 223.451 315.722 223.138 315.983 222.886C316.254 222.634 316.599 222.508 317.019 222.508C317.43 222.508 317.766 222.634 318.027 222.886C318.298 223.138 318.433 223.451 318.433 223.824C318.433 224.188 318.298 224.496 318.027 224.748C317.766 224.991 317.43 225.112 317.019 225.112ZM320.396 217.664C320.433 216.665 320.76 215.895 321.376 215.354C321.992 214.813 322.827 214.542 323.882 214.542C324.582 214.542 325.179 214.663 325.674 214.906C326.178 215.149 326.556 215.48 326.808 215.9C327.069 216.32 327.2 216.791 327.2 217.314C327.2 217.93 327.046 218.434 326.738 218.826C326.43 219.209 326.071 219.47 325.66 219.61V219.666C326.192 219.843 326.612 220.137 326.92 220.548C327.228 220.959 327.382 221.486 327.382 222.13C327.382 222.709 327.247 223.222 326.976 223.67C326.715 224.109 326.327 224.454 325.814 224.706C325.31 224.958 324.708 225.084 324.008 225.084C322.888 225.084 321.992 224.809 321.32 224.258C320.657 223.707 320.307 222.877 320.27 221.766H322.594C322.603 222.177 322.72 222.503 322.944 222.746C323.168 222.979 323.495 223.096 323.924 223.096C324.288 223.096 324.568 222.993 324.764 222.788C324.969 222.573 325.072 222.293 325.072 221.948C325.072 221.5 324.927 221.178 324.638 220.982C324.358 220.777 323.905 220.674 323.28 220.674H322.832V218.728H323.28C323.756 218.728 324.139 218.649 324.428 218.49C324.727 218.322 324.876 218.028 324.876 217.608C324.876 217.272 324.783 217.011 324.596 216.824C324.409 216.637 324.153 216.544 323.826 216.544C323.471 216.544 323.205 216.651 323.028 216.866C322.86 217.081 322.762 217.347 322.734 217.664H320.396ZM329.405 223.082C329.722 222.83 329.867 222.713 329.839 222.732C330.753 221.976 331.472 221.355 331.995 220.87C332.527 220.385 332.975 219.876 333.339 219.344C333.703 218.812 333.885 218.294 333.885 217.79C333.885 217.407 333.796 217.109 333.619 216.894C333.441 216.679 333.175 216.572 332.821 216.572C332.466 216.572 332.186 216.707 331.981 216.978C331.785 217.239 331.687 217.613 331.687 218.098H329.377C329.395 217.305 329.563 216.642 329.881 216.11C330.207 215.578 330.632 215.186 331.155 214.934C331.687 214.682 332.275 214.556 332.919 214.556C334.029 214.556 334.865 214.841 335.425 215.41C335.994 215.979 336.279 216.721 336.279 217.636C336.279 218.635 335.938 219.563 335.257 220.422C334.575 221.271 333.707 222.102 332.653 222.914H336.433V224.86H329.405V223.082Z" fill="#43484B"/>
<path d="M297.046 244.082C297.363 243.83 297.508 243.713 297.48 243.732C298.395 242.976 299.113 242.355 299.636 241.87C300.168 241.385 300.616 240.876 300.98 240.344C301.344 239.812 301.526 239.294 301.526 238.79C301.526 238.407 301.437 238.109 301.26 237.894C301.083 237.679 300.817 237.572 300.462 237.572C300.107 237.572 299.827 237.707 299.622 237.978C299.426 238.239 299.328 238.613 299.328 239.098H297.018C297.037 238.305 297.205 237.642 297.522 237.11C297.849 236.578 298.273 236.186 298.796 235.934C299.328 235.682 299.916 235.556 300.56 235.556C301.671 235.556 302.506 235.841 303.066 236.41C303.635 236.979 303.92 237.721 303.92 238.636C303.92 239.635 303.579 240.563 302.898 241.422C302.217 242.271 301.349 243.102 300.294 243.914H304.074V245.86H297.046V244.082ZM305.744 244.082C306.061 243.83 306.206 243.713 306.178 243.732C307.093 242.976 307.811 242.355 308.334 241.87C308.866 241.385 309.314 240.876 309.678 240.344C310.042 239.812 310.224 239.294 310.224 238.79C310.224 238.407 310.135 238.109 309.958 237.894C309.781 237.679 309.515 237.572 309.16 237.572C308.805 237.572 308.525 237.707 308.32 237.978C308.124 238.239 308.026 238.613 308.026 239.098H305.716C305.735 238.305 305.903 237.642 306.22 237.11C306.547 236.578 306.971 236.186 307.494 235.934C308.026 235.682 308.614 235.556 309.258 235.556C310.369 235.556 311.204 235.841 311.764 236.41C312.333 236.979 312.618 237.721 312.618 238.636C312.618 239.635 312.277 240.563 311.596 241.422C310.915 242.271 310.047 243.102 308.992 243.914H312.772V245.86H305.744V244.082ZM315.884 246.112C315.464 246.112 315.119 245.991 314.848 245.748C314.587 245.496 314.456 245.188 314.456 244.824C314.456 244.451 314.587 244.138 314.848 243.886C315.119 243.634 315.464 243.508 315.884 243.508C316.295 243.508 316.631 243.634 316.892 243.886C317.163 244.138 317.298 244.451 317.298 244.824C317.298 245.188 317.163 245.496 316.892 245.748C316.631 245.991 316.295 246.112 315.884 246.112ZM319.261 238.664C319.299 237.665 319.625 236.895 320.241 236.354C320.857 235.813 321.693 235.542 322.747 235.542C323.447 235.542 324.045 235.663 324.539 235.906C325.043 236.149 325.421 236.48 325.673 236.9C325.935 237.32 326.065 237.791 326.065 238.314C326.065 238.93 325.911 239.434 325.603 239.826C325.295 240.209 324.936 240.47 324.525 240.61V240.666C325.057 240.843 325.477 241.137 325.785 241.548C326.093 241.959 326.247 242.486 326.247 243.13C326.247 243.709 326.112 244.222 325.841 244.67C325.58 245.109 325.193 245.454 324.679 245.706C324.175 245.958 323.573 246.084 322.873 246.084C321.753 246.084 320.857 245.809 320.185 245.258C319.523 244.707 319.173 243.877 319.135 242.766H321.459C321.469 243.177 321.585 243.503 321.809 243.746C322.033 243.979 322.36 244.096 322.789 244.096C323.153 244.096 323.433 243.993 323.629 243.788C323.835 243.573 323.937 243.293 323.937 242.948C323.937 242.5 323.793 242.178 323.503 241.982C323.223 241.777 322.771 241.674 322.145 241.674H321.697V239.728H322.145C322.621 239.728 323.004 239.649 323.293 239.49C323.592 239.322 323.741 239.028 323.741 238.608C323.741 238.272 323.648 238.011 323.461 237.824C323.275 237.637 323.018 237.544 322.691 237.544C322.337 237.544 322.071 237.651 321.893 237.866C321.725 238.081 321.627 238.347 321.599 238.664H319.261ZM328.27 244.082C328.587 243.83 328.732 243.713 328.704 243.732C329.618 242.976 330.337 242.355 330.86 241.87C331.392 241.385 331.84 240.876 332.204 240.344C332.568 239.812 332.75 239.294 332.75 238.79C332.75 238.407 332.661 238.109 332.484 237.894C332.306 237.679 332.04 237.572 331.686 237.572C331.331 237.572 331.051 237.707 330.846 237.978C330.65 238.239 330.552 238.613 330.552 239.098H328.242C328.26 238.305 328.428 237.642 328.746 237.11C329.072 236.578 329.497 236.186 330.02 235.934C330.552 235.682 331.14 235.556 331.784 235.556C332.894 235.556 333.73 235.841 334.29 236.41C334.859 236.979 335.144 237.721 335.144 238.636C335.144 239.635 334.803 240.563 334.122 241.422C333.44 242.271 332.572 243.102 331.518 243.914H335.298V245.86H328.27V244.082Z" fill="#43484B"/>
<path d="M392.05 96.172C393.086 96.172 393.991 96.3773 394.766 96.788C395.541 97.1987 396.138 97.7773 396.558 98.524C396.987 99.2613 397.202 100.115 397.202 101.086C397.202 102.047 396.987 102.901 396.558 103.648C396.138 104.395 395.536 104.973 394.752 105.384C393.977 105.795 393.077 106 392.05 106H388.368V96.172H392.05ZM391.896 103.928C392.801 103.928 393.506 103.681 394.01 103.186C394.514 102.691 394.766 101.991 394.766 101.086C394.766 100.181 394.514 99.476 394.01 98.972C393.506 98.468 392.801 98.216 391.896 98.216H390.762V103.928H391.896ZM401.634 98.09V100.078H404.84V101.926H401.634V104.082H405.26V106H399.24V96.172H405.26V98.09H401.634ZM411.07 106.098C410.351 106.098 409.707 105.981 409.138 105.748C408.569 105.515 408.111 105.169 407.766 104.712C407.43 104.255 407.253 103.704 407.234 103.06H409.782C409.819 103.424 409.945 103.704 410.16 103.9C410.375 104.087 410.655 104.18 411 104.18C411.355 104.18 411.635 104.101 411.84 103.942C412.045 103.774 412.148 103.545 412.148 103.256C412.148 103.013 412.064 102.813 411.896 102.654C411.737 102.495 411.537 102.365 411.294 102.262C411.061 102.159 410.725 102.043 410.286 101.912C409.651 101.716 409.133 101.52 408.732 101.324C408.331 101.128 407.985 100.839 407.696 100.456C407.407 100.073 407.262 99.574 407.262 98.958C407.262 98.0433 407.593 97.3293 408.256 96.816C408.919 96.2933 409.782 96.032 410.846 96.032C411.929 96.032 412.801 96.2933 413.464 96.816C414.127 97.3293 414.481 98.048 414.528 98.972H411.938C411.919 98.6547 411.803 98.4073 411.588 98.23C411.373 98.0433 411.098 97.95 410.762 97.95C410.473 97.95 410.239 98.0293 410.062 98.188C409.885 98.3373 409.796 98.5567 409.796 98.846C409.796 99.1633 409.945 99.4107 410.244 99.588C410.543 99.7653 411.009 99.9567 411.644 100.162C412.279 100.377 412.792 100.582 413.184 100.778C413.585 100.974 413.931 101.259 414.22 101.632C414.509 102.005 414.654 102.486 414.654 103.074C414.654 103.634 414.509 104.143 414.22 104.6C413.94 105.057 413.529 105.421 412.988 105.692C412.447 105.963 411.807 106.098 411.07 106.098ZM423.897 96.172V98.09H421.293V106H418.899V98.09H416.295V96.172H423.897ZM428.193 96.172V106H425.799V96.172H428.193ZM439.42 106H437.026L433.022 99.938V106H430.628V96.172H433.022L437.026 102.262V96.172H439.42V106ZM447.973 104.264H444.305L443.717 106H441.211L444.767 96.172H447.539L451.095 106H448.561L447.973 104.264ZM447.357 102.416L446.139 98.818L444.935 102.416H447.357ZM459.947 96.172V98.09H457.343V106H454.949V98.09H452.345V96.172H459.947ZM464.243 96.172V106H461.849V96.172H464.243ZM471.326 106.098C470.402 106.098 469.552 105.883 468.778 105.454C468.012 105.025 467.401 104.427 466.944 103.662C466.496 102.887 466.272 102.019 466.272 101.058C466.272 100.097 466.496 99.2333 466.944 98.468C467.401 97.7027 468.012 97.1053 468.778 96.676C469.552 96.2467 470.402 96.032 471.326 96.032C472.25 96.032 473.094 96.2467 473.86 96.676C474.634 97.1053 475.241 97.7027 475.68 98.468C476.128 99.2333 476.352 100.097 476.352 101.058C476.352 102.019 476.128 102.887 475.68 103.662C475.232 104.427 474.625 105.025 473.86 105.454C473.094 105.883 472.25 106.098 471.326 106.098ZM471.326 103.914C472.11 103.914 472.735 103.653 473.202 103.13C473.678 102.607 473.916 101.917 473.916 101.058C473.916 100.19 473.678 99.4993 473.202 98.986C472.735 98.4633 472.11 98.202 471.326 98.202C470.532 98.202 469.898 98.4587 469.422 98.972C468.955 99.4853 468.722 100.181 468.722 101.058C468.722 101.926 468.955 102.621 469.422 103.144C469.898 103.657 470.532 103.914 471.326 103.914ZM487.176 106H484.782L480.778 99.938V106H478.384V96.172H480.778L484.782 102.262V96.172H487.176V106Z" fill="#080B0D"/>
<path d="M555.766 96.172V98.09H551.762V100.162H554.758V102.024H551.762V106H549.368V96.172H555.766ZM560.118 104.152H563.254V106H557.724V96.172H560.118V104.152ZM567.49 96.172V106H565.096V96.172H567.49ZM576.449 99.28C576.272 98.9533 576.015 98.706 575.679 98.538C575.352 98.3607 574.965 98.272 574.517 98.272C573.742 98.272 573.122 98.5287 572.655 99.042C572.188 99.546 571.955 100.223 571.955 101.072C571.955 101.977 572.198 102.687 572.683 103.2C573.178 103.704 573.854 103.956 574.713 103.956C575.301 103.956 575.796 103.807 576.197 103.508C576.608 103.209 576.906 102.78 577.093 102.22H574.055V100.456H579.263V102.682C579.086 103.279 578.782 103.835 578.353 104.348C577.933 104.861 577.396 105.277 576.743 105.594C576.09 105.911 575.352 106.07 574.531 106.07C573.56 106.07 572.692 105.86 571.927 105.44C571.171 105.011 570.578 104.418 570.149 103.662C569.729 102.906 569.519 102.043 569.519 101.072C569.519 100.101 569.729 99.238 570.149 98.482C570.578 97.7167 571.171 97.124 571.927 96.704C572.683 96.2747 573.546 96.06 574.517 96.06C575.693 96.06 576.682 96.3447 577.485 96.914C578.297 97.4833 578.834 98.272 579.095 99.28H576.449ZM589.801 96.172V106H587.407V101.954H583.683V106H581.289V96.172H583.683V100.022H587.407V96.172H589.801ZM599.299 96.172V98.09H596.695V106H594.301V98.09H591.697V96.172H599.299Z" fill="#080B0D"/>
<path d="M663.892 99.28C663.715 98.9533 663.458 98.706 663.122 98.538C662.795 98.3607 662.408 98.272 661.96 98.272C661.185 98.272 660.565 98.5287 660.098 99.042C659.631 99.546 659.398 100.223 659.398 101.072C659.398 101.977 659.641 102.687 660.126 103.2C660.621 103.704 661.297 103.956 662.156 103.956C662.744 103.956 663.239 103.807 663.64 103.508C664.051 103.209 664.349 102.78 664.536 102.22H661.498V100.456H666.706V102.682C666.529 103.279 666.225 103.835 665.796 104.348C665.376 104.861 664.839 105.277 664.186 105.594C663.533 105.911 662.795 106.07 661.974 106.07C661.003 106.07 660.135 105.86 659.37 105.44C658.614 105.011 658.021 104.418 657.592 103.662C657.172 102.906 656.962 102.043 656.962 101.072C656.962 100.101 657.172 99.238 657.592 98.482C658.021 97.7167 658.614 97.124 659.37 96.704C660.126 96.2747 660.989 96.06 661.96 96.06C663.136 96.06 664.125 96.3447 664.928 96.914C665.74 97.4833 666.277 98.272 666.538 99.28H663.892ZM674.85 104.264H671.182L670.594 106H668.088L671.644 96.172H674.416L677.972 106H675.438L674.85 104.264ZM674.234 102.416L673.016 98.818L671.812 102.416H674.234ZM686.824 96.172V98.09H684.22V106H681.826V98.09H679.222V96.172H686.824ZM691.12 98.09V100.078H694.326V101.926H691.12V104.082H694.746V106H688.726V96.172H694.746V98.09H691.12Z" fill="#080B0D"/>
<rect x="255" y="72.5" width="484" height="200" stroke="#878787"/>
</g>
<path d="M368.003 142H331.503C327.917 165.828 329.909 172.093 336.503 178L335.503 191H353.003V177H361.503C371.435 170.935 371.852 162.245 368.003 142Z" fill="#EAD1D4" stroke="#878787"/>
<path d="M752 217.5L751 228L741 221.5V209.5L740.5 205.5L739 195.5H760V203L763.5 209.5H760V217.5H752Z" fill="#D9C9CB"/>
<path d="M752 217.5L751 228L741 221.5V209.5L740.5 205.5L739 195.5H760V203L763.5 209.5H760V217.5H752ZM752 217.5L747.5 216L746 214.5" stroke="#878787"/>
<path d="M717 325.5V336L714.5 336.5L714 330.5H711L712 336.5L708 337.5L703.5 330L710.5 321L714 276L729.5 235L740.5 221.5L752 228.5C757.812 231.823 757.642 247.48 756.351 271C756.329 271.4 758.775 284.5 760 291L770 317.5L776 328.5L764 335.5L763 321L750.5 294.645L724 295.5L723.621 291L717 325.5Z" fill="#D9C9CB"/>
<path d="M746.5 240.5L726.5 276L723.621 291M723.621 291L717 325.5V336L714.5 336.5L714 330.5H711L712 336.5L708 337.5L703.5 330L710.5 321L714 276L729.5 235L740.5 221.5L752 228.5C757.812 231.823 757.642 247.48 756.351 271M723.621 291L724 295.5L750.5 294.645M756.351 271C755.959 278.149 755.463 286.024 755 294.5L750.5 294.645M756.351 271C756.329 271.4 758.775 284.5 760 291L770 317.5L776 328.5L764 335.5L763 321L750.5 294.645" stroke="#878787"/>
<path d="M568.5 556.5C535.661 541.773 516.66 545.07 482.5 556.5L463 621L478.5 638H583L596.5 617.5L568.5 556.5Z" fill="#C4C4C4" stroke="#878787"/>
<path d="M724.5 314.5V296H750V306.5L781 495H755.5L724.5 314.5Z" fill="#32373A" stroke="#878787"/>
<path d="M683.5 489.5L665 473.5L714 398.5L725.5 314.5L738 386L736 406.5L683.5 489.5Z" fill="#32373A" stroke="#878787"/>
<path d="M665 481L669 477L680.5 487L686.5 502L665 481Z" fill="#C4C4C4" stroke="#32373A"/>
<path d="M759 502.967L759.534 495.4L774.773 495.495L789.097 502.967L759 502.967Z" fill="#C4C4C4" stroke="#32373A"/>
<circle cx="712.5" cy="333" r="4" fill="white"/>
<circle cx="625.5" cy="495" r="6" fill="#C4C4C4"/>
<circle cx="712.5" cy="333" r="4" fill="#878787"/>
<rect x="667.855" y="391.673" width="17" height="107.916" transform="rotate(27.1818 667.855 391.673)" fill="#767676"/>
<rect x="667.855" y="391.673" width="17" height="107.916" transform="rotate(27.1818 667.855 391.673)" stroke="#878787"/>
<rect width="2.7933" height="69.9288" transform="translate(710.781 334.946) rotate(27.1818)" fill="#878787"/>
<path d="M550.5 550C533.034 521.162 515.985 526.686 505 550L512 548.5C524.209 528.6 535.61 535.168 543.5 548.5L550.5 550Z" fill="#C4C4C4" stroke="#878787"/>
<path d="M373.493 141.999H363.493C366.373 147.604 366.593 149.922 365.5 153C360.127 160.612 357.969 164.818 359 172C369.513 199.426 367.249 205.701 361.5 215H333L329 205L328 215H318.494C317.103 203.929 316.637 198.293 318.494 193C325.195 179.939 326.686 175.45 326.493 170.999C323.621 132.615 331.122 124.504 357.493 128.999C369.801 127.05 371.744 131.693 373.493 141.999Z" fill="#5AC4B7" stroke="#878787"/>
<path d="M378 259H333L339 274L318 310.5V635H365.5L362 404L396.5 632H407.5H444.5L376.5 268.5L378 259Z" fill="#32373A" stroke="#878787"/>
<path d="M407 632V639.5H450.5L441.5 632H407Z" fill="#C4C4C4" stroke="#32373A"/>
<path d="M325.5 631V638.5H369L360 631H325.5Z" fill="#C4C4C4" stroke="#32373A"/>
<path d="M438.5 204L411.5 187.5L421 173L449 190L438.5 204Z" fill="#C4C4C4" stroke="#878787"/>
<path d="M382 199.5L350.5 187L323 195.5L296 265L302 324H300V329H319V322L310 321L314 267.5L327.5 245L332 258.5H379L380.5 242L406 271H411L417.5 266L441.5 212.5L448.5 198.5L445 195.5L436.5 193V199L434.5 202V209.5L409 245L382 199.5Z" fill="#D9C9CB" stroke="#878787"/>
<path d="M382 199.5L350.5 187L323 195.5L296 265L297.475 279.5L312.953 281.5L314 267.5L327.5 245L332 258.5H379L380.5 242L406 271H411L417.5 266L425.575 248L413.5 238.735L409 245L382 199.5Z" fill="white" stroke="#878787"/>
<rect x="301" y="64.5" width="51" height="7" fill="#737373"/>
<rect x="301" y="64.5" width="51" height="7" stroke="#878787"/>
<rect x="314" y="50.5" width="24" height="13" fill="#737373"/>
<rect x="314" y="50.5" width="24" height="13" stroke="#878787"/>
<rect x="323" y="0.5" width="6" height="49" fill="#737373"/>
<rect x="323" y="0.5" width="6" height="49" stroke="#878787"/>
<rect x="650" y="64.5" width="51" height="7" fill="#737373"/>
<rect x="650" y="64.5" width="51" height="7" stroke="#878787"/>
<rect x="663" y="50.5" width="24" height="13" fill="#737373"/>
<rect x="663" y="50.5" width="24" height="13" stroke="#878787"/>
<rect x="672" y="0.5" width="6" height="49" fill="#737373"/>
<rect x="672" y="0.5" width="6" height="49" stroke="#878787"/>
<path d="M743.506 214.5H740.506C734.4 200.227 732.466 193.577 742.506 194C742.931 185.899 752.349 189.111 764.006 190.5C763.278 194.796 762.236 195.883 759.506 196H749.506V202L752.006 205V207.5H747.006L747.506 204L745.506 201.5L742.506 202L742.006 206L746.006 210.5L743.506 214.5Z" fill="#5AC4B7" stroke="#878787"/>
<path d="M714.001 276L729.501 235L740.501 221.5L752.001 228.5C757.813 231.823 757.643 247.48 756.352 271C756.33 271.4 758.775 284.5 760.001 291L755.09 292.884C755.06 293.42 755.03 293.959 755.001 294.5L750.501 294.645L724.001 295.5L723.622 291H712.834L714.001 276Z" fill="white"/>
<path d="M746.501 240.5L726.501 276L723.622 291M723.622 291L724.001 295.5L750.501 294.645M723.622 291H712.834L714.001 276L729.501 235L740.501 221.5L752.001 228.5C757.813 231.823 757.643 247.48 756.352 271M756.352 271C755.96 278.149 755.464 286.024 755.001 294.5L750.501 294.645M756.352 271C756.33 271.4 758.775 284.5 760.001 291L750.501 294.645" stroke="#878787"/>
<path d="M710.5 293.5V288.5L725 289.5V293.5H710.5Z" fill="#C4C4C4" stroke="#878787"/>
<path d="M762.5 292V287L755.5 288V292H762.5Z" fill="#C4C4C4" stroke="#878787"/>
<path d="M736.5 221.5H741L751 228.5L755.5 232.5L754.625 232.625C759.457 245.3 759.415 259.152 758.5 286L755.5 293.5L751 286C757.058 266.086 758.138 254.519 753.75 232.75L752 233L751 228.5L747.5 234.5L736.5 221.5Z" fill="#C4C4C4"/>
<path d="M751 228.5L747.5 234.5L736.5 221.5H741L751 228.5ZM751 228.5L752 233L753.75 232.75M751 228.5L755.5 232.5L754.625 232.625M753.75 232.75C758.138 254.519 757.058 266.086 751 286L755.5 293.5L758.5 286C759.415 259.152 759.457 245.3 754.625 232.625M753.75 232.75L754.625 232.625" stroke="#878787"/>
<defs>
<clipPath id="clip0_52_1156">
<rect x="248.5" y="455" width="115" height="173" fill="white"/>
</clipPath>
</defs>
</svg>
