<svg width="30" height="31" viewBox="0 0 30 31" fill="none" xmlns="http://www.w3.org/2000/svg">
<path fill-rule="evenodd" clip-rule="evenodd" d="M3.95898 0.59082C2.30213 0.59082 0.958984 1.93397 0.958984 3.59082V27.0108C0.958984 28.6676 2.30213 30.0108 3.95898 30.0108H26.6434C28.3003 30.0108 29.6434 28.6676 29.6434 27.0108V3.59082C29.6434 1.93397 28.3003 0.59082 26.6434 0.59082H3.95898ZM20.534 14.4865L21.3195 13.6405C21.715 13.3575 22.0905 13.0966 22.4439 12.8511C23.7973 11.9107 24.8279 11.1946 25.4282 10.3173C25.7295 9.87469 25.6882 9.7614 25.1865 9.83395L24.4614 9.95479L23.7364 9.77352C23.1719 9.60355 21.4963 10.7952 19.409 12.2796C18.7134 12.7744 17.972 13.3016 17.2108 13.8218L12.3166 13.8822L10.6248 13.4593L11.9541 14.426L15.4585 14.9698L11.6519 17.6284L7.60366 16.4199L6.75775 17.0846L8.75168 19.0181H7.7245L7.36197 19.3202L8.93295 19.6223L8.20788 20.4078L8.38915 20.7703L9.53717 20.4078L9.8997 20.8912L10.5039 20.6495L10.806 19.9849C14.1837 18.6851 15.8894 17.8481 18.4192 16.0574H18.963L18.7818 16.5408L19.6881 17.3867L20.6548 16.9033V15.9366L20.8361 15.8157L21.3195 15.9366L22.9509 14.7886L22.0446 13.8218L20.534 14.7886V14.4865Z" fill="url(#paint0_linear_83_1745)"/>
<defs>
<linearGradient id="paint0_linear_83_1745" x1="-2.74268" y1="15.2573" x2="34.7572" y2="15.7573" gradientUnits="userSpaceOnUse">
<stop stop-color="#22C4B8"/>
<stop offset="1" stop-color="#47A0BE"/>
</linearGradient>
</defs>
</svg>
