<svg width="40" height="39" viewBox="0 0 40 39" fill="none" xmlns="http://www.w3.org/2000/svg">
<path fill-rule="evenodd" clip-rule="evenodd" d="M1.63609 16.919C0.464518 18.0906 0.46452 19.99 1.63609 21.1616L18.1965 37.722C19.3681 38.8936 21.2676 38.8936 22.4391 37.722L38.4794 21.6817C39.651 20.5101 39.651 18.6106 38.4794 17.4391L21.9191 0.878659C20.7475 -0.292913 18.848 -0.292914 17.6764 0.878659L1.63609 16.919ZM26.1544 17.6832L26.8065 16.9809C27.1348 16.746 27.4465 16.5295 27.7398 16.3256L27.7399 16.3256C28.8634 15.5449 29.719 14.9504 30.2173 14.2222C30.4675 13.8547 30.4332 13.7607 30.0167 13.8209L29.4148 13.9212L28.8129 13.7708C28.3443 13.6297 26.9533 14.6189 25.2205 15.8512C24.6431 16.2619 24.0276 16.6996 23.3957 17.1314L19.3328 17.1816L17.9284 16.8304L19.0319 17.633L21.9411 18.0844L18.7811 20.2914L15.4204 19.2882L14.7182 19.84L16.3734 21.4451H15.5207L15.2198 21.6959L16.5239 21.9467L15.922 22.5987V23.3112L17.0255 22.5987L17.3265 23L17.8281 22.7994L18.0789 22.2476C20.8828 21.1687 22.2988 20.4738 24.3989 18.9873H24.8503L24.6998 19.3886L25.4522 20.0908L26.2548 19.6895V18.887L26.4052 18.7866L26.8065 18.887L28.1608 17.9339L27.4084 17.1314L26.1544 17.9339V17.6832ZM15.2573 23.5C14.1131 24.0253 13.1245 24.2846 9.25727 24.5C12.7159 24.1417 14.3318 23.752 15.2198 23L15.2573 23.5Z" fill="url(#paint0_linear_20_2002)"/>
<defs>
<linearGradient id="paint0_linear_20_2002" x1="2.01464" y1="19.2573" x2="39.5145" y2="19.7573" gradientUnits="userSpaceOnUse">
<stop stop-color="#22C4B8"/>
<stop offset="1" stop-color="#47A0BE"/>
</linearGradient>
</defs>
</svg>
