<svg width="885" height="397" viewBox="0 0 885 397" fill="none" xmlns="http://www.w3.org/2000/svg">
<path d="M64.716 87.2284C113.452 58.5329 194.386 38.6533 286.965 30.1464C379.529 21.6408 483.668 24.5098 578.775 41.2653C673.893 58.023 759.917 88.6604 816.303 135.647C844.49 159.135 865.258 186.698 876.068 218.646C886.853 250.521 887.736 286.797 876.136 327.803C493.818 434.24 242.207 402.607 110.599 330.101C44.7757 293.838 9.02718 247.387 1.85413 202.923C-5.3132 158.493 16.0266 115.897 64.716 87.2284Z" fill="#161A1E" stroke="#1C2126"/>
<g opacity="0.5">
<rect x="189.5" y="72.5" width="484" height="200" fill="#A8A8A8"/>
<path d="M238.938 96.172V98.09H236.334V106H233.94V98.09H231.336V96.172H238.938ZM243.233 96.172V106H240.839V96.172H243.233ZM256.798 96.172V106H254.404V100.106L252.206 106H250.274L248.062 100.092V106H245.668V96.172H248.496L251.254 102.976L253.984 96.172H256.798ZM261.614 98.09V100.078H264.82V101.926H261.614V104.082H265.24V106H259.22V96.172H265.24V98.09H261.614Z" fill="#080B0D"/>
<path d="M231.378 133.006V130.78H235.256V141H232.764V133.006H231.378ZM237.51 139.082C237.827 138.83 237.972 138.713 237.944 138.732C238.858 137.976 239.577 137.355 240.1 136.87C240.632 136.385 241.08 135.876 241.444 135.344C241.808 134.812 241.99 134.294 241.99 133.79C241.99 133.407 241.901 133.109 241.724 132.894C241.546 132.679 241.28 132.572 240.926 132.572C240.571 132.572 240.291 132.707 240.086 132.978C239.89 133.239 239.792 133.613 239.792 134.098H237.482C237.5 133.305 237.668 132.642 237.986 132.11C238.312 131.578 238.737 131.186 239.26 130.934C239.792 130.682 240.38 130.556 241.024 130.556C242.134 130.556 242.97 130.841 243.53 131.41C244.099 131.979 244.384 132.721 244.384 133.636C244.384 134.635 244.043 135.563 243.362 136.422C242.68 137.271 241.812 138.102 240.758 138.914H244.538V140.86H237.51V139.082ZM247.65 141.112C247.23 141.112 246.884 140.991 246.614 140.748C246.352 140.496 246.222 140.188 246.222 139.824C246.222 139.451 246.352 139.138 246.614 138.886C246.884 138.634 247.23 138.508 247.65 138.508C248.06 138.508 248.396 138.634 248.658 138.886C248.928 139.138 249.064 139.451 249.064 139.824C249.064 140.188 248.928 140.496 248.658 140.748C248.396 140.991 248.06 141.112 247.65 141.112ZM251.027 133.664C251.064 132.665 251.391 131.895 252.007 131.354C252.623 130.813 253.458 130.542 254.513 130.542C255.213 130.542 255.81 130.663 256.305 130.906C256.809 131.149 257.187 131.48 257.439 131.9C257.7 132.32 257.831 132.791 257.831 133.314C257.831 133.93 257.677 134.434 257.369 134.826C257.061 135.209 256.702 135.47 256.291 135.61V135.666C256.823 135.843 257.243 136.137 257.551 136.548C257.859 136.959 258.013 137.486 258.013 138.13C258.013 138.709 257.878 139.222 257.607 139.67C257.346 140.109 256.958 140.454 256.445 140.706C255.941 140.958 255.339 141.084 254.639 141.084C253.519 141.084 252.623 140.809 251.951 140.258C251.288 139.707 250.938 138.877 250.901 137.766H253.225C253.234 138.177 253.351 138.503 253.575 138.746C253.799 138.979 254.126 139.096 254.555 139.096C254.919 139.096 255.199 138.993 255.395 138.788C255.6 138.573 255.703 138.293 255.703 137.948C255.703 137.5 255.558 137.178 255.269 136.982C254.989 136.777 254.536 136.674 253.911 136.674H253.463V134.728H253.911C254.387 134.728 254.77 134.649 255.059 134.49C255.358 134.322 255.507 134.028 255.507 133.608C255.507 133.272 255.414 133.011 255.227 132.824C255.04 132.637 254.784 132.544 254.457 132.544C254.102 132.544 253.836 132.651 253.659 132.866C253.491 133.081 253.393 133.347 253.365 133.664H251.027ZM260.035 139.082C260.353 138.83 260.497 138.713 260.469 138.732C261.384 137.976 262.103 137.355 262.625 136.87C263.157 136.385 263.605 135.876 263.969 135.344C264.333 134.812 264.515 134.294 264.515 133.79C264.515 133.407 264.427 133.109 264.249 132.894C264.072 132.679 263.806 132.572 263.451 132.572C263.097 132.572 262.817 132.707 262.611 132.978C262.415 133.239 262.317 133.613 262.317 134.098H260.007C260.026 133.305 260.194 132.642 260.511 132.11C260.838 131.578 261.263 131.186 261.785 130.934C262.317 130.682 262.905 130.556 263.549 130.556C264.66 130.556 265.495 130.841 266.055 131.41C266.625 131.979 266.909 132.721 266.909 133.636C266.909 134.635 266.569 135.563 265.887 136.422C265.206 137.271 264.338 138.102 263.283 138.914H267.063V140.86H260.035V139.082Z" fill="#43484B"/>
<path d="M330.516 139.098C329.592 139.098 328.743 138.883 327.968 138.454C327.203 138.025 326.591 137.427 326.134 136.662C325.686 135.887 325.462 135.019 325.462 134.058C325.462 133.097 325.686 132.233 326.134 131.468C326.591 130.703 327.203 130.105 327.968 129.676C328.743 129.247 329.592 129.032 330.516 129.032C331.44 129.032 332.285 129.247 333.05 129.676C333.825 130.105 334.431 130.703 334.87 131.468C335.318 132.233 335.542 133.097 335.542 134.058C335.542 135.019 335.318 135.887 334.87 136.662C334.422 137.427 333.815 138.025 333.05 138.454C332.285 138.883 331.44 139.098 330.516 139.098ZM330.516 136.914C331.3 136.914 331.925 136.653 332.392 136.13C332.868 135.607 333.106 134.917 333.106 134.058C333.106 133.19 332.868 132.499 332.392 131.986C331.925 131.463 331.3 131.202 330.516 131.202C329.723 131.202 329.088 131.459 328.612 131.972C328.145 132.485 327.912 133.181 327.912 134.058C327.912 134.926 328.145 135.621 328.612 136.144C329.088 136.657 329.723 136.914 330.516 136.914ZM341.13 139.098C340.411 139.098 339.767 138.981 339.198 138.748C338.629 138.515 338.171 138.169 337.826 137.712C337.49 137.255 337.313 136.704 337.294 136.06H339.842C339.879 136.424 340.005 136.704 340.22 136.9C340.435 137.087 340.715 137.18 341.06 137.18C341.415 137.18 341.695 137.101 341.9 136.942C342.105 136.774 342.208 136.545 342.208 136.256C342.208 136.013 342.124 135.813 341.956 135.654C341.797 135.495 341.597 135.365 341.354 135.262C341.121 135.159 340.785 135.043 340.346 134.912C339.711 134.716 339.193 134.52 338.792 134.324C338.391 134.128 338.045 133.839 337.756 133.456C337.467 133.073 337.322 132.574 337.322 131.958C337.322 131.043 337.653 130.329 338.316 129.816C338.979 129.293 339.842 129.032 340.906 129.032C341.989 129.032 342.861 129.293 343.524 129.816C344.187 130.329 344.541 131.048 344.588 131.972H341.998C341.979 131.655 341.863 131.407 341.648 131.23C341.433 131.043 341.158 130.95 340.822 130.95C340.533 130.95 340.299 131.029 340.122 131.188C339.945 131.337 339.856 131.557 339.856 131.846C339.856 132.163 340.005 132.411 340.304 132.588C340.603 132.765 341.069 132.957 341.704 133.162C342.339 133.377 342.852 133.582 343.244 133.778C343.645 133.974 343.991 134.259 344.28 134.632C344.569 135.005 344.714 135.486 344.714 136.074C344.714 136.634 344.569 137.143 344.28 137.6C344 138.057 343.589 138.421 343.048 138.692C342.507 138.963 341.867 139.098 341.13 139.098ZM349.281 137.152H352.417V139H346.887V129.172H349.281V137.152ZM358.907 139.098C357.983 139.098 357.134 138.883 356.359 138.454C355.594 138.025 354.982 137.427 354.525 136.662C354.077 135.887 353.853 135.019 353.853 134.058C353.853 133.097 354.077 132.233 354.525 131.468C354.982 130.703 355.594 130.105 356.359 129.676C357.134 129.247 357.983 129.032 358.907 129.032C359.831 129.032 360.676 129.247 361.441 129.676C362.216 130.105 362.822 130.703 363.261 131.468C363.709 132.233 363.933 133.097 363.933 134.058C363.933 135.019 363.709 135.887 363.261 136.662C362.813 137.427 362.206 138.025 361.441 138.454C360.676 138.883 359.831 139.098 358.907 139.098ZM358.907 136.914C359.691 136.914 360.316 136.653 360.783 136.13C361.259 135.607 361.497 134.917 361.497 134.058C361.497 133.19 361.259 132.499 360.783 131.986C360.316 131.463 359.691 131.202 358.907 131.202C358.114 131.202 357.479 131.459 357.003 131.972C356.536 132.485 356.303 133.181 356.303 134.058C356.303 134.926 356.536 135.621 357.003 136.144C357.479 136.657 358.114 136.914 358.907 136.914Z" fill="#43484B"/>
<path d="M330.516 160.098C329.592 160.098 328.743 159.883 327.968 159.454C327.203 159.025 326.591 158.427 326.134 157.662C325.686 156.887 325.462 156.019 325.462 155.058C325.462 154.097 325.686 153.233 326.134 152.468C326.591 151.703 327.203 151.105 327.968 150.676C328.743 150.247 329.592 150.032 330.516 150.032C331.44 150.032 332.285 150.247 333.05 150.676C333.825 151.105 334.431 151.703 334.87 152.468C335.318 153.233 335.542 154.097 335.542 155.058C335.542 156.019 335.318 156.887 334.87 157.662C334.422 158.427 333.815 159.025 333.05 159.454C332.285 159.883 331.44 160.098 330.516 160.098ZM330.516 157.914C331.3 157.914 331.925 157.653 332.392 157.13C332.868 156.607 333.106 155.917 333.106 155.058C333.106 154.19 332.868 153.499 332.392 152.986C331.925 152.463 331.3 152.202 330.516 152.202C329.723 152.202 329.088 152.459 328.612 152.972C328.145 153.485 327.912 154.181 327.912 155.058C327.912 155.926 328.145 156.621 328.612 157.144C329.088 157.657 329.723 157.914 330.516 157.914ZM341.13 160.098C340.411 160.098 339.767 159.981 339.198 159.748C338.629 159.515 338.171 159.169 337.826 158.712C337.49 158.255 337.313 157.704 337.294 157.06H339.842C339.879 157.424 340.005 157.704 340.22 157.9C340.435 158.087 340.715 158.18 341.06 158.18C341.415 158.18 341.695 158.101 341.9 157.942C342.105 157.774 342.208 157.545 342.208 157.256C342.208 157.013 342.124 156.813 341.956 156.654C341.797 156.495 341.597 156.365 341.354 156.262C341.121 156.159 340.785 156.043 340.346 155.912C339.711 155.716 339.193 155.52 338.792 155.324C338.391 155.128 338.045 154.839 337.756 154.456C337.467 154.073 337.322 153.574 337.322 152.958C337.322 152.043 337.653 151.329 338.316 150.816C338.979 150.293 339.842 150.032 340.906 150.032C341.989 150.032 342.861 150.293 343.524 150.816C344.187 151.329 344.541 152.048 344.588 152.972H341.998C341.979 152.655 341.863 152.407 341.648 152.23C341.433 152.043 341.158 151.95 340.822 151.95C340.533 151.95 340.299 152.029 340.122 152.188C339.945 152.337 339.856 152.557 339.856 152.846C339.856 153.163 340.005 153.411 340.304 153.588C340.603 153.765 341.069 153.957 341.704 154.162C342.339 154.377 342.852 154.582 343.244 154.778C343.645 154.974 343.991 155.259 344.28 155.632C344.569 156.005 344.714 156.486 344.714 157.074C344.714 157.634 344.569 158.143 344.28 158.6C344 159.057 343.589 159.421 343.048 159.692C342.507 159.963 341.867 160.098 341.13 160.098ZM349.281 158.152H352.417V160H346.887V150.172H349.281V158.152ZM358.907 160.098C357.983 160.098 357.134 159.883 356.359 159.454C355.594 159.025 354.982 158.427 354.525 157.662C354.077 156.887 353.853 156.019 353.853 155.058C353.853 154.097 354.077 153.233 354.525 152.468C354.982 151.703 355.594 151.105 356.359 150.676C357.134 150.247 357.983 150.032 358.907 150.032C359.831 150.032 360.676 150.247 361.441 150.676C362.216 151.105 362.822 151.703 363.261 152.468C363.709 153.233 363.933 154.097 363.933 155.058C363.933 156.019 363.709 156.887 363.261 157.662C362.813 158.427 362.206 159.025 361.441 159.454C360.676 159.883 359.831 160.098 358.907 160.098ZM358.907 157.914C359.691 157.914 360.316 157.653 360.783 157.13C361.259 156.607 361.497 155.917 361.497 155.058C361.497 154.19 361.259 153.499 360.783 152.986C360.316 152.463 359.691 152.202 358.907 152.202C358.114 152.202 357.479 152.459 357.003 152.972C356.536 153.485 356.303 154.181 356.303 155.058C356.303 155.926 356.536 156.621 357.003 157.144C357.479 157.657 358.114 157.914 358.907 157.914Z" fill="#43484B"/>
<path d="M330.516 181.098C329.592 181.098 328.743 180.883 327.968 180.454C327.203 180.025 326.591 179.427 326.134 178.662C325.686 177.887 325.462 177.019 325.462 176.058C325.462 175.097 325.686 174.233 326.134 173.468C326.591 172.703 327.203 172.105 327.968 171.676C328.743 171.247 329.592 171.032 330.516 171.032C331.44 171.032 332.285 171.247 333.05 171.676C333.825 172.105 334.431 172.703 334.87 173.468C335.318 174.233 335.542 175.097 335.542 176.058C335.542 177.019 335.318 177.887 334.87 178.662C334.422 179.427 333.815 180.025 333.05 180.454C332.285 180.883 331.44 181.098 330.516 181.098ZM330.516 178.914C331.3 178.914 331.925 178.653 332.392 178.13C332.868 177.607 333.106 176.917 333.106 176.058C333.106 175.19 332.868 174.499 332.392 173.986C331.925 173.463 331.3 173.202 330.516 173.202C329.723 173.202 329.088 173.459 328.612 173.972C328.145 174.485 327.912 175.181 327.912 176.058C327.912 176.926 328.145 177.621 328.612 178.144C329.088 178.657 329.723 178.914 330.516 178.914ZM341.13 181.098C340.411 181.098 339.767 180.981 339.198 180.748C338.629 180.515 338.171 180.169 337.826 179.712C337.49 179.255 337.313 178.704 337.294 178.06H339.842C339.879 178.424 340.005 178.704 340.22 178.9C340.435 179.087 340.715 179.18 341.06 179.18C341.415 179.18 341.695 179.101 341.9 178.942C342.105 178.774 342.208 178.545 342.208 178.256C342.208 178.013 342.124 177.813 341.956 177.654C341.797 177.495 341.597 177.365 341.354 177.262C341.121 177.159 340.785 177.043 340.346 176.912C339.711 176.716 339.193 176.52 338.792 176.324C338.391 176.128 338.045 175.839 337.756 175.456C337.467 175.073 337.322 174.574 337.322 173.958C337.322 173.043 337.653 172.329 338.316 171.816C338.979 171.293 339.842 171.032 340.906 171.032C341.989 171.032 342.861 171.293 343.524 171.816C344.187 172.329 344.541 173.048 344.588 173.972H341.998C341.979 173.655 341.863 173.407 341.648 173.23C341.433 173.043 341.158 172.95 340.822 172.95C340.533 172.95 340.299 173.029 340.122 173.188C339.945 173.337 339.856 173.557 339.856 173.846C339.856 174.163 340.005 174.411 340.304 174.588C340.603 174.765 341.069 174.957 341.704 175.162C342.339 175.377 342.852 175.582 343.244 175.778C343.645 175.974 343.991 176.259 344.28 176.632C344.569 177.005 344.714 177.486 344.714 178.074C344.714 178.634 344.569 179.143 344.28 179.6C344 180.057 343.589 180.421 343.048 180.692C342.507 180.963 341.867 181.098 341.13 181.098ZM349.281 179.152H352.417V181H346.887V171.172H349.281V179.152ZM358.907 181.098C357.983 181.098 357.134 180.883 356.359 180.454C355.594 180.025 354.982 179.427 354.525 178.662C354.077 177.887 353.853 177.019 353.853 176.058C353.853 175.097 354.077 174.233 354.525 173.468C354.982 172.703 355.594 172.105 356.359 171.676C357.134 171.247 357.983 171.032 358.907 171.032C359.831 171.032 360.676 171.247 361.441 171.676C362.216 172.105 362.822 172.703 363.261 173.468C363.709 174.233 363.933 175.097 363.933 176.058C363.933 177.019 363.709 177.887 363.261 178.662C362.813 179.427 362.206 180.025 361.441 180.454C360.676 180.883 359.831 181.098 358.907 181.098ZM358.907 178.914C359.691 178.914 360.316 178.653 360.783 178.13C361.259 177.607 361.497 176.917 361.497 176.058C361.497 175.19 361.259 174.499 360.783 173.986C360.316 173.463 359.691 173.202 358.907 173.202C358.114 173.202 357.479 173.459 357.003 173.972C356.536 174.485 356.303 175.181 356.303 176.058C356.303 176.926 356.536 177.621 357.003 178.144C357.479 178.657 358.114 178.914 358.907 178.914Z" fill="#43484B"/>
<path d="M330.516 202.098C329.592 202.098 328.743 201.883 327.968 201.454C327.203 201.025 326.591 200.427 326.134 199.662C325.686 198.887 325.462 198.019 325.462 197.058C325.462 196.097 325.686 195.233 326.134 194.468C326.591 193.703 327.203 193.105 327.968 192.676C328.743 192.247 329.592 192.032 330.516 192.032C331.44 192.032 332.285 192.247 333.05 192.676C333.825 193.105 334.431 193.703 334.87 194.468C335.318 195.233 335.542 196.097 335.542 197.058C335.542 198.019 335.318 198.887 334.87 199.662C334.422 200.427 333.815 201.025 333.05 201.454C332.285 201.883 331.44 202.098 330.516 202.098ZM330.516 199.914C331.3 199.914 331.925 199.653 332.392 199.13C332.868 198.607 333.106 197.917 333.106 197.058C333.106 196.19 332.868 195.499 332.392 194.986C331.925 194.463 331.3 194.202 330.516 194.202C329.723 194.202 329.088 194.459 328.612 194.972C328.145 195.485 327.912 196.181 327.912 197.058C327.912 197.926 328.145 198.621 328.612 199.144C329.088 199.657 329.723 199.914 330.516 199.914ZM341.13 202.098C340.411 202.098 339.767 201.981 339.198 201.748C338.629 201.515 338.171 201.169 337.826 200.712C337.49 200.255 337.313 199.704 337.294 199.06H339.842C339.879 199.424 340.005 199.704 340.22 199.9C340.435 200.087 340.715 200.18 341.06 200.18C341.415 200.18 341.695 200.101 341.9 199.942C342.105 199.774 342.208 199.545 342.208 199.256C342.208 199.013 342.124 198.813 341.956 198.654C341.797 198.495 341.597 198.365 341.354 198.262C341.121 198.159 340.785 198.043 340.346 197.912C339.711 197.716 339.193 197.52 338.792 197.324C338.391 197.128 338.045 196.839 337.756 196.456C337.467 196.073 337.322 195.574 337.322 194.958C337.322 194.043 337.653 193.329 338.316 192.816C338.979 192.293 339.842 192.032 340.906 192.032C341.989 192.032 342.861 192.293 343.524 192.816C344.187 193.329 344.541 194.048 344.588 194.972H341.998C341.979 194.655 341.863 194.407 341.648 194.23C341.433 194.043 341.158 193.95 340.822 193.95C340.533 193.95 340.299 194.029 340.122 194.188C339.945 194.337 339.856 194.557 339.856 194.846C339.856 195.163 340.005 195.411 340.304 195.588C340.603 195.765 341.069 195.957 341.704 196.162C342.339 196.377 342.852 196.582 343.244 196.778C343.645 196.974 343.991 197.259 344.28 197.632C344.569 198.005 344.714 198.486 344.714 199.074C344.714 199.634 344.569 200.143 344.28 200.6C344 201.057 343.589 201.421 343.048 201.692C342.507 201.963 341.867 202.098 341.13 202.098ZM349.281 200.152H352.417V202H346.887V192.172H349.281V200.152ZM358.907 202.098C357.983 202.098 357.134 201.883 356.359 201.454C355.594 201.025 354.982 200.427 354.525 199.662C354.077 198.887 353.853 198.019 353.853 197.058C353.853 196.097 354.077 195.233 354.525 194.468C354.982 193.703 355.594 193.105 356.359 192.676C357.134 192.247 357.983 192.032 358.907 192.032C359.831 192.032 360.676 192.247 361.441 192.676C362.216 193.105 362.822 193.703 363.261 194.468C363.709 195.233 363.933 196.097 363.933 197.058C363.933 198.019 363.709 198.887 363.261 199.662C362.813 200.427 362.206 201.025 361.441 201.454C360.676 201.883 359.831 202.098 358.907 202.098ZM358.907 199.914C359.691 199.914 360.316 199.653 360.783 199.13C361.259 198.607 361.497 197.917 361.497 197.058C361.497 196.19 361.259 195.499 360.783 194.986C360.316 194.463 359.691 194.202 358.907 194.202C358.114 194.202 357.479 194.459 357.003 194.972C356.536 195.485 356.303 196.181 356.303 197.058C356.303 197.926 356.536 198.621 357.003 199.144C357.479 199.657 358.114 199.914 358.907 199.914Z" fill="#43484B"/>
<path d="M330.516 223.098C329.592 223.098 328.743 222.883 327.968 222.454C327.203 222.025 326.591 221.427 326.134 220.662C325.686 219.887 325.462 219.019 325.462 218.058C325.462 217.097 325.686 216.233 326.134 215.468C326.591 214.703 327.203 214.105 327.968 213.676C328.743 213.247 329.592 213.032 330.516 213.032C331.44 213.032 332.285 213.247 333.05 213.676C333.825 214.105 334.431 214.703 334.87 215.468C335.318 216.233 335.542 217.097 335.542 218.058C335.542 219.019 335.318 219.887 334.87 220.662C334.422 221.427 333.815 222.025 333.05 222.454C332.285 222.883 331.44 223.098 330.516 223.098ZM330.516 220.914C331.3 220.914 331.925 220.653 332.392 220.13C332.868 219.607 333.106 218.917 333.106 218.058C333.106 217.19 332.868 216.499 332.392 215.986C331.925 215.463 331.3 215.202 330.516 215.202C329.723 215.202 329.088 215.459 328.612 215.972C328.145 216.485 327.912 217.181 327.912 218.058C327.912 218.926 328.145 219.621 328.612 220.144C329.088 220.657 329.723 220.914 330.516 220.914ZM341.13 223.098C340.411 223.098 339.767 222.981 339.198 222.748C338.629 222.515 338.171 222.169 337.826 221.712C337.49 221.255 337.313 220.704 337.294 220.06H339.842C339.879 220.424 340.005 220.704 340.22 220.9C340.435 221.087 340.715 221.18 341.06 221.18C341.415 221.18 341.695 221.101 341.9 220.942C342.105 220.774 342.208 220.545 342.208 220.256C342.208 220.013 342.124 219.813 341.956 219.654C341.797 219.495 341.597 219.365 341.354 219.262C341.121 219.159 340.785 219.043 340.346 218.912C339.711 218.716 339.193 218.52 338.792 218.324C338.391 218.128 338.045 217.839 337.756 217.456C337.467 217.073 337.322 216.574 337.322 215.958C337.322 215.043 337.653 214.329 338.316 213.816C338.979 213.293 339.842 213.032 340.906 213.032C341.989 213.032 342.861 213.293 343.524 213.816C344.187 214.329 344.541 215.048 344.588 215.972H341.998C341.979 215.655 341.863 215.407 341.648 215.23C341.433 215.043 341.158 214.95 340.822 214.95C340.533 214.95 340.299 215.029 340.122 215.188C339.945 215.337 339.856 215.557 339.856 215.846C339.856 216.163 340.005 216.411 340.304 216.588C340.603 216.765 341.069 216.957 341.704 217.162C342.339 217.377 342.852 217.582 343.244 217.778C343.645 217.974 343.991 218.259 344.28 218.632C344.569 219.005 344.714 219.486 344.714 220.074C344.714 220.634 344.569 221.143 344.28 221.6C344 222.057 343.589 222.421 343.048 222.692C342.507 222.963 341.867 223.098 341.13 223.098ZM349.281 221.152H352.417V223H346.887V213.172H349.281V221.152ZM358.907 223.098C357.983 223.098 357.134 222.883 356.359 222.454C355.594 222.025 354.982 221.427 354.525 220.662C354.077 219.887 353.853 219.019 353.853 218.058C353.853 217.097 354.077 216.233 354.525 215.468C354.982 214.703 355.594 214.105 356.359 213.676C357.134 213.247 357.983 213.032 358.907 213.032C359.831 213.032 360.676 213.247 361.441 213.676C362.216 214.105 362.822 214.703 363.261 215.468C363.709 216.233 363.933 217.097 363.933 218.058C363.933 219.019 363.709 219.887 363.261 220.662C362.813 221.427 362.206 222.025 361.441 222.454C360.676 222.883 359.831 223.098 358.907 223.098ZM358.907 220.914C359.691 220.914 360.316 220.653 360.783 220.13C361.259 219.607 361.497 218.917 361.497 218.058C361.497 217.19 361.259 216.499 360.783 215.986C360.316 215.463 359.691 215.202 358.907 215.202C358.114 215.202 357.479 215.459 357.003 215.972C356.536 216.485 356.303 217.181 356.303 218.058C356.303 218.926 356.536 219.621 357.003 220.144C357.479 220.657 358.114 220.914 358.907 220.914Z" fill="#43484B"/>
<path d="M330.516 244.098C329.592 244.098 328.743 243.883 327.968 243.454C327.203 243.025 326.591 242.427 326.134 241.662C325.686 240.887 325.462 240.019 325.462 239.058C325.462 238.097 325.686 237.233 326.134 236.468C326.591 235.703 327.203 235.105 327.968 234.676C328.743 234.247 329.592 234.032 330.516 234.032C331.44 234.032 332.285 234.247 333.05 234.676C333.825 235.105 334.431 235.703 334.87 236.468C335.318 237.233 335.542 238.097 335.542 239.058C335.542 240.019 335.318 240.887 334.87 241.662C334.422 242.427 333.815 243.025 333.05 243.454C332.285 243.883 331.44 244.098 330.516 244.098ZM330.516 241.914C331.3 241.914 331.925 241.653 332.392 241.13C332.868 240.607 333.106 239.917 333.106 239.058C333.106 238.19 332.868 237.499 332.392 236.986C331.925 236.463 331.3 236.202 330.516 236.202C329.723 236.202 329.088 236.459 328.612 236.972C328.145 237.485 327.912 238.181 327.912 239.058C327.912 239.926 328.145 240.621 328.612 241.144C329.088 241.657 329.723 241.914 330.516 241.914ZM341.13 244.098C340.411 244.098 339.767 243.981 339.198 243.748C338.629 243.515 338.171 243.169 337.826 242.712C337.49 242.255 337.313 241.704 337.294 241.06H339.842C339.879 241.424 340.005 241.704 340.22 241.9C340.435 242.087 340.715 242.18 341.06 242.18C341.415 242.18 341.695 242.101 341.9 241.942C342.105 241.774 342.208 241.545 342.208 241.256C342.208 241.013 342.124 240.813 341.956 240.654C341.797 240.495 341.597 240.365 341.354 240.262C341.121 240.159 340.785 240.043 340.346 239.912C339.711 239.716 339.193 239.52 338.792 239.324C338.391 239.128 338.045 238.839 337.756 238.456C337.467 238.073 337.322 237.574 337.322 236.958C337.322 236.043 337.653 235.329 338.316 234.816C338.979 234.293 339.842 234.032 340.906 234.032C341.989 234.032 342.861 234.293 343.524 234.816C344.187 235.329 344.541 236.048 344.588 236.972H341.998C341.979 236.655 341.863 236.407 341.648 236.23C341.433 236.043 341.158 235.95 340.822 235.95C340.533 235.95 340.299 236.029 340.122 236.188C339.945 236.337 339.856 236.557 339.856 236.846C339.856 237.163 340.005 237.411 340.304 237.588C340.603 237.765 341.069 237.957 341.704 238.162C342.339 238.377 342.852 238.582 343.244 238.778C343.645 238.974 343.991 239.259 344.28 239.632C344.569 240.005 344.714 240.486 344.714 241.074C344.714 241.634 344.569 242.143 344.28 242.6C344 243.057 343.589 243.421 343.048 243.692C342.507 243.963 341.867 244.098 341.13 244.098ZM349.281 242.152H352.417V244H346.887V234.172H349.281V242.152ZM358.907 244.098C357.983 244.098 357.134 243.883 356.359 243.454C355.594 243.025 354.982 242.427 354.525 241.662C354.077 240.887 353.853 240.019 353.853 239.058C353.853 238.097 354.077 237.233 354.525 236.468C354.982 235.703 355.594 235.105 356.359 234.676C357.134 234.247 357.983 234.032 358.907 234.032C359.831 234.032 360.676 234.247 361.441 234.676C362.216 235.105 362.822 235.703 363.261 236.468C363.709 237.233 363.933 238.097 363.933 239.058C363.933 240.019 363.709 240.887 363.261 241.662C362.813 242.427 362.206 243.025 361.441 243.454C360.676 243.883 359.831 244.098 358.907 244.098ZM358.907 241.914C359.691 241.914 360.316 241.653 360.783 241.13C361.259 240.607 361.497 239.917 361.497 239.058C361.497 238.19 361.259 237.499 360.783 236.986C360.316 236.463 359.691 236.202 358.907 236.202C358.114 236.202 357.479 236.459 357.003 236.972C356.536 237.485 356.303 238.181 356.303 239.058C356.303 239.926 356.536 240.621 357.003 241.144C357.479 241.657 358.114 241.914 358.907 241.914Z" fill="#43484B"/>
<path d="M491.516 139.098C490.592 139.098 489.743 138.883 488.968 138.454C488.203 138.025 487.591 137.427 487.134 136.662C486.686 135.887 486.462 135.019 486.462 134.058C486.462 133.097 486.686 132.233 487.134 131.468C487.591 130.703 488.203 130.105 488.968 129.676C489.743 129.247 490.592 129.032 491.516 129.032C492.44 129.032 493.285 129.247 494.05 129.676C494.825 130.105 495.431 130.703 495.87 131.468C496.318 132.233 496.542 133.097 496.542 134.058C496.542 135.019 496.318 135.887 495.87 136.662C495.422 137.427 494.815 138.025 494.05 138.454C493.285 138.883 492.44 139.098 491.516 139.098ZM491.516 136.914C492.3 136.914 492.925 136.653 493.392 136.13C493.868 135.607 494.106 134.917 494.106 134.058C494.106 133.19 493.868 132.499 493.392 131.986C492.925 131.463 492.3 131.202 491.516 131.202C490.723 131.202 490.088 131.459 489.612 131.972C489.145 132.485 488.912 133.181 488.912 134.058C488.912 134.926 489.145 135.621 489.612 136.144C490.088 136.657 490.723 136.914 491.516 136.914ZM502.13 139.098C501.411 139.098 500.767 138.981 500.198 138.748C499.629 138.515 499.171 138.169 498.826 137.712C498.49 137.255 498.313 136.704 498.294 136.06H500.842C500.879 136.424 501.005 136.704 501.22 136.9C501.435 137.087 501.715 137.18 502.06 137.18C502.415 137.18 502.695 137.101 502.9 136.942C503.105 136.774 503.208 136.545 503.208 136.256C503.208 136.013 503.124 135.813 502.956 135.654C502.797 135.495 502.597 135.365 502.354 135.262C502.121 135.159 501.785 135.043 501.346 134.912C500.711 134.716 500.193 134.52 499.792 134.324C499.391 134.128 499.045 133.839 498.756 133.456C498.467 133.073 498.322 132.574 498.322 131.958C498.322 131.043 498.653 130.329 499.316 129.816C499.979 129.293 500.842 129.032 501.906 129.032C502.989 129.032 503.861 129.293 504.524 129.816C505.187 130.329 505.541 131.048 505.588 131.972H502.998C502.979 131.655 502.863 131.407 502.648 131.23C502.433 131.043 502.158 130.95 501.822 130.95C501.533 130.95 501.299 131.029 501.122 131.188C500.945 131.337 500.856 131.557 500.856 131.846C500.856 132.163 501.005 132.411 501.304 132.588C501.603 132.765 502.069 132.957 502.704 133.162C503.339 133.377 503.852 133.582 504.244 133.778C504.645 133.974 504.991 134.259 505.28 134.632C505.569 135.005 505.714 135.486 505.714 136.074C505.714 136.634 505.569 137.143 505.28 137.6C505 138.057 504.589 138.421 504.048 138.692C503.507 138.963 502.867 139.098 502.13 139.098ZM510.281 137.152H513.417V139H507.887V129.172H510.281V137.152ZM519.907 139.098C518.983 139.098 518.134 138.883 517.359 138.454C516.594 138.025 515.982 137.427 515.525 136.662C515.077 135.887 514.853 135.019 514.853 134.058C514.853 133.097 515.077 132.233 515.525 131.468C515.982 130.703 516.594 130.105 517.359 129.676C518.134 129.247 518.983 129.032 519.907 129.032C520.831 129.032 521.676 129.247 522.441 129.676C523.216 130.105 523.822 130.703 524.261 131.468C524.709 132.233 524.933 133.097 524.933 134.058C524.933 135.019 524.709 135.887 524.261 136.662C523.813 137.427 523.206 138.025 522.441 138.454C521.676 138.883 520.831 139.098 519.907 139.098ZM519.907 136.914C520.691 136.914 521.316 136.653 521.783 136.13C522.259 135.607 522.497 134.917 522.497 134.058C522.497 133.19 522.259 132.499 521.783 131.986C521.316 131.463 520.691 131.202 519.907 131.202C519.114 131.202 518.479 131.459 518.003 131.972C517.536 132.485 517.303 133.181 517.303 134.058C517.303 134.926 517.536 135.621 518.003 136.144C518.479 136.657 519.114 136.914 519.907 136.914Z" fill="#43484B"/>
<path d="M491.516 160.098C490.592 160.098 489.743 159.883 488.968 159.454C488.203 159.025 487.591 158.427 487.134 157.662C486.686 156.887 486.462 156.019 486.462 155.058C486.462 154.097 486.686 153.233 487.134 152.468C487.591 151.703 488.203 151.105 488.968 150.676C489.743 150.247 490.592 150.032 491.516 150.032C492.44 150.032 493.285 150.247 494.05 150.676C494.825 151.105 495.431 151.703 495.87 152.468C496.318 153.233 496.542 154.097 496.542 155.058C496.542 156.019 496.318 156.887 495.87 157.662C495.422 158.427 494.815 159.025 494.05 159.454C493.285 159.883 492.44 160.098 491.516 160.098ZM491.516 157.914C492.3 157.914 492.925 157.653 493.392 157.13C493.868 156.607 494.106 155.917 494.106 155.058C494.106 154.19 493.868 153.499 493.392 152.986C492.925 152.463 492.3 152.202 491.516 152.202C490.723 152.202 490.088 152.459 489.612 152.972C489.145 153.485 488.912 154.181 488.912 155.058C488.912 155.926 489.145 156.621 489.612 157.144C490.088 157.657 490.723 157.914 491.516 157.914ZM502.13 160.098C501.411 160.098 500.767 159.981 500.198 159.748C499.629 159.515 499.171 159.169 498.826 158.712C498.49 158.255 498.313 157.704 498.294 157.06H500.842C500.879 157.424 501.005 157.704 501.22 157.9C501.435 158.087 501.715 158.18 502.06 158.18C502.415 158.18 502.695 158.101 502.9 157.942C503.105 157.774 503.208 157.545 503.208 157.256C503.208 157.013 503.124 156.813 502.956 156.654C502.797 156.495 502.597 156.365 502.354 156.262C502.121 156.159 501.785 156.043 501.346 155.912C500.711 155.716 500.193 155.52 499.792 155.324C499.391 155.128 499.045 154.839 498.756 154.456C498.467 154.073 498.322 153.574 498.322 152.958C498.322 152.043 498.653 151.329 499.316 150.816C499.979 150.293 500.842 150.032 501.906 150.032C502.989 150.032 503.861 150.293 504.524 150.816C505.187 151.329 505.541 152.048 505.588 152.972H502.998C502.979 152.655 502.863 152.407 502.648 152.23C502.433 152.043 502.158 151.95 501.822 151.95C501.533 151.95 501.299 152.029 501.122 152.188C500.945 152.337 500.856 152.557 500.856 152.846C500.856 153.163 501.005 153.411 501.304 153.588C501.603 153.765 502.069 153.957 502.704 154.162C503.339 154.377 503.852 154.582 504.244 154.778C504.645 154.974 504.991 155.259 505.28 155.632C505.569 156.005 505.714 156.486 505.714 157.074C505.714 157.634 505.569 158.143 505.28 158.6C505 159.057 504.589 159.421 504.048 159.692C503.507 159.963 502.867 160.098 502.13 160.098ZM510.281 158.152H513.417V160H507.887V150.172H510.281V158.152ZM519.907 160.098C518.983 160.098 518.134 159.883 517.359 159.454C516.594 159.025 515.982 158.427 515.525 157.662C515.077 156.887 514.853 156.019 514.853 155.058C514.853 154.097 515.077 153.233 515.525 152.468C515.982 151.703 516.594 151.105 517.359 150.676C518.134 150.247 518.983 150.032 519.907 150.032C520.831 150.032 521.676 150.247 522.441 150.676C523.216 151.105 523.822 151.703 524.261 152.468C524.709 153.233 524.933 154.097 524.933 155.058C524.933 156.019 524.709 156.887 524.261 157.662C523.813 158.427 523.206 159.025 522.441 159.454C521.676 159.883 520.831 160.098 519.907 160.098ZM519.907 157.914C520.691 157.914 521.316 157.653 521.783 157.13C522.259 156.607 522.497 155.917 522.497 155.058C522.497 154.19 522.259 153.499 521.783 152.986C521.316 152.463 520.691 152.202 519.907 152.202C519.114 152.202 518.479 152.459 518.003 152.972C517.536 153.485 517.303 154.181 517.303 155.058C517.303 155.926 517.536 156.621 518.003 157.144C518.479 157.657 519.114 157.914 519.907 157.914Z" fill="#43484B"/>
<path d="M491.516 181.098C490.592 181.098 489.743 180.883 488.968 180.454C488.203 180.025 487.591 179.427 487.134 178.662C486.686 177.887 486.462 177.019 486.462 176.058C486.462 175.097 486.686 174.233 487.134 173.468C487.591 172.703 488.203 172.105 488.968 171.676C489.743 171.247 490.592 171.032 491.516 171.032C492.44 171.032 493.285 171.247 494.05 171.676C494.825 172.105 495.431 172.703 495.87 173.468C496.318 174.233 496.542 175.097 496.542 176.058C496.542 177.019 496.318 177.887 495.87 178.662C495.422 179.427 494.815 180.025 494.05 180.454C493.285 180.883 492.44 181.098 491.516 181.098ZM491.516 178.914C492.3 178.914 492.925 178.653 493.392 178.13C493.868 177.607 494.106 176.917 494.106 176.058C494.106 175.19 493.868 174.499 493.392 173.986C492.925 173.463 492.3 173.202 491.516 173.202C490.723 173.202 490.088 173.459 489.612 173.972C489.145 174.485 488.912 175.181 488.912 176.058C488.912 176.926 489.145 177.621 489.612 178.144C490.088 178.657 490.723 178.914 491.516 178.914ZM502.13 181.098C501.411 181.098 500.767 180.981 500.198 180.748C499.629 180.515 499.171 180.169 498.826 179.712C498.49 179.255 498.313 178.704 498.294 178.06H500.842C500.879 178.424 501.005 178.704 501.22 178.9C501.435 179.087 501.715 179.18 502.06 179.18C502.415 179.18 502.695 179.101 502.9 178.942C503.105 178.774 503.208 178.545 503.208 178.256C503.208 178.013 503.124 177.813 502.956 177.654C502.797 177.495 502.597 177.365 502.354 177.262C502.121 177.159 501.785 177.043 501.346 176.912C500.711 176.716 500.193 176.52 499.792 176.324C499.391 176.128 499.045 175.839 498.756 175.456C498.467 175.073 498.322 174.574 498.322 173.958C498.322 173.043 498.653 172.329 499.316 171.816C499.979 171.293 500.842 171.032 501.906 171.032C502.989 171.032 503.861 171.293 504.524 171.816C505.187 172.329 505.541 173.048 505.588 173.972H502.998C502.979 173.655 502.863 173.407 502.648 173.23C502.433 173.043 502.158 172.95 501.822 172.95C501.533 172.95 501.299 173.029 501.122 173.188C500.945 173.337 500.856 173.557 500.856 173.846C500.856 174.163 501.005 174.411 501.304 174.588C501.603 174.765 502.069 174.957 502.704 175.162C503.339 175.377 503.852 175.582 504.244 175.778C504.645 175.974 504.991 176.259 505.28 176.632C505.569 177.005 505.714 177.486 505.714 178.074C505.714 178.634 505.569 179.143 505.28 179.6C505 180.057 504.589 180.421 504.048 180.692C503.507 180.963 502.867 181.098 502.13 181.098ZM510.281 179.152H513.417V181H507.887V171.172H510.281V179.152ZM519.907 181.098C518.983 181.098 518.134 180.883 517.359 180.454C516.594 180.025 515.982 179.427 515.525 178.662C515.077 177.887 514.853 177.019 514.853 176.058C514.853 175.097 515.077 174.233 515.525 173.468C515.982 172.703 516.594 172.105 517.359 171.676C518.134 171.247 518.983 171.032 519.907 171.032C520.831 171.032 521.676 171.247 522.441 171.676C523.216 172.105 523.822 172.703 524.261 173.468C524.709 174.233 524.933 175.097 524.933 176.058C524.933 177.019 524.709 177.887 524.261 178.662C523.813 179.427 523.206 180.025 522.441 180.454C521.676 180.883 520.831 181.098 519.907 181.098ZM519.907 178.914C520.691 178.914 521.316 178.653 521.783 178.13C522.259 177.607 522.497 176.917 522.497 176.058C522.497 175.19 522.259 174.499 521.783 173.986C521.316 173.463 520.691 173.202 519.907 173.202C519.114 173.202 518.479 173.459 518.003 173.972C517.536 174.485 517.303 175.181 517.303 176.058C517.303 176.926 517.536 177.621 518.003 178.144C518.479 178.657 519.114 178.914 519.907 178.914Z" fill="#43484B"/>
<path d="M491.516 202.098C490.592 202.098 489.743 201.883 488.968 201.454C488.203 201.025 487.591 200.427 487.134 199.662C486.686 198.887 486.462 198.019 486.462 197.058C486.462 196.097 486.686 195.233 487.134 194.468C487.591 193.703 488.203 193.105 488.968 192.676C489.743 192.247 490.592 192.032 491.516 192.032C492.44 192.032 493.285 192.247 494.05 192.676C494.825 193.105 495.431 193.703 495.87 194.468C496.318 195.233 496.542 196.097 496.542 197.058C496.542 198.019 496.318 198.887 495.87 199.662C495.422 200.427 494.815 201.025 494.05 201.454C493.285 201.883 492.44 202.098 491.516 202.098ZM491.516 199.914C492.3 199.914 492.925 199.653 493.392 199.13C493.868 198.607 494.106 197.917 494.106 197.058C494.106 196.19 493.868 195.499 493.392 194.986C492.925 194.463 492.3 194.202 491.516 194.202C490.723 194.202 490.088 194.459 489.612 194.972C489.145 195.485 488.912 196.181 488.912 197.058C488.912 197.926 489.145 198.621 489.612 199.144C490.088 199.657 490.723 199.914 491.516 199.914ZM502.13 202.098C501.411 202.098 500.767 201.981 500.198 201.748C499.629 201.515 499.171 201.169 498.826 200.712C498.49 200.255 498.313 199.704 498.294 199.06H500.842C500.879 199.424 501.005 199.704 501.22 199.9C501.435 200.087 501.715 200.18 502.06 200.18C502.415 200.18 502.695 200.101 502.9 199.942C503.105 199.774 503.208 199.545 503.208 199.256C503.208 199.013 503.124 198.813 502.956 198.654C502.797 198.495 502.597 198.365 502.354 198.262C502.121 198.159 501.785 198.043 501.346 197.912C500.711 197.716 500.193 197.52 499.792 197.324C499.391 197.128 499.045 196.839 498.756 196.456C498.467 196.073 498.322 195.574 498.322 194.958C498.322 194.043 498.653 193.329 499.316 192.816C499.979 192.293 500.842 192.032 501.906 192.032C502.989 192.032 503.861 192.293 504.524 192.816C505.187 193.329 505.541 194.048 505.588 194.972H502.998C502.979 194.655 502.863 194.407 502.648 194.23C502.433 194.043 502.158 193.95 501.822 193.95C501.533 193.95 501.299 194.029 501.122 194.188C500.945 194.337 500.856 194.557 500.856 194.846C500.856 195.163 501.005 195.411 501.304 195.588C501.603 195.765 502.069 195.957 502.704 196.162C503.339 196.377 503.852 196.582 504.244 196.778C504.645 196.974 504.991 197.259 505.28 197.632C505.569 198.005 505.714 198.486 505.714 199.074C505.714 199.634 505.569 200.143 505.28 200.6C505 201.057 504.589 201.421 504.048 201.692C503.507 201.963 502.867 202.098 502.13 202.098ZM510.281 200.152H513.417V202H507.887V192.172H510.281V200.152ZM519.907 202.098C518.983 202.098 518.134 201.883 517.359 201.454C516.594 201.025 515.982 200.427 515.525 199.662C515.077 198.887 514.853 198.019 514.853 197.058C514.853 196.097 515.077 195.233 515.525 194.468C515.982 193.703 516.594 193.105 517.359 192.676C518.134 192.247 518.983 192.032 519.907 192.032C520.831 192.032 521.676 192.247 522.441 192.676C523.216 193.105 523.822 193.703 524.261 194.468C524.709 195.233 524.933 196.097 524.933 197.058C524.933 198.019 524.709 198.887 524.261 199.662C523.813 200.427 523.206 201.025 522.441 201.454C521.676 201.883 520.831 202.098 519.907 202.098ZM519.907 199.914C520.691 199.914 521.316 199.653 521.783 199.13C522.259 198.607 522.497 197.917 522.497 197.058C522.497 196.19 522.259 195.499 521.783 194.986C521.316 194.463 520.691 194.202 519.907 194.202C519.114 194.202 518.479 194.459 518.003 194.972C517.536 195.485 517.303 196.181 517.303 197.058C517.303 197.926 517.536 198.621 518.003 199.144C518.479 199.657 519.114 199.914 519.907 199.914Z" fill="#43484B"/>
<path d="M491.516 223.098C490.592 223.098 489.743 222.883 488.968 222.454C488.203 222.025 487.591 221.427 487.134 220.662C486.686 219.887 486.462 219.019 486.462 218.058C486.462 217.097 486.686 216.233 487.134 215.468C487.591 214.703 488.203 214.105 488.968 213.676C489.743 213.247 490.592 213.032 491.516 213.032C492.44 213.032 493.285 213.247 494.05 213.676C494.825 214.105 495.431 214.703 495.87 215.468C496.318 216.233 496.542 217.097 496.542 218.058C496.542 219.019 496.318 219.887 495.87 220.662C495.422 221.427 494.815 222.025 494.05 222.454C493.285 222.883 492.44 223.098 491.516 223.098ZM491.516 220.914C492.3 220.914 492.925 220.653 493.392 220.13C493.868 219.607 494.106 218.917 494.106 218.058C494.106 217.19 493.868 216.499 493.392 215.986C492.925 215.463 492.3 215.202 491.516 215.202C490.723 215.202 490.088 215.459 489.612 215.972C489.145 216.485 488.912 217.181 488.912 218.058C488.912 218.926 489.145 219.621 489.612 220.144C490.088 220.657 490.723 220.914 491.516 220.914ZM502.13 223.098C501.411 223.098 500.767 222.981 500.198 222.748C499.629 222.515 499.171 222.169 498.826 221.712C498.49 221.255 498.313 220.704 498.294 220.06H500.842C500.879 220.424 501.005 220.704 501.22 220.9C501.435 221.087 501.715 221.18 502.06 221.18C502.415 221.18 502.695 221.101 502.9 220.942C503.105 220.774 503.208 220.545 503.208 220.256C503.208 220.013 503.124 219.813 502.956 219.654C502.797 219.495 502.597 219.365 502.354 219.262C502.121 219.159 501.785 219.043 501.346 218.912C500.711 218.716 500.193 218.52 499.792 218.324C499.391 218.128 499.045 217.839 498.756 217.456C498.467 217.073 498.322 216.574 498.322 215.958C498.322 215.043 498.653 214.329 499.316 213.816C499.979 213.293 500.842 213.032 501.906 213.032C502.989 213.032 503.861 213.293 504.524 213.816C505.187 214.329 505.541 215.048 505.588 215.972H502.998C502.979 215.655 502.863 215.407 502.648 215.23C502.433 215.043 502.158 214.95 501.822 214.95C501.533 214.95 501.299 215.029 501.122 215.188C500.945 215.337 500.856 215.557 500.856 215.846C500.856 216.163 501.005 216.411 501.304 216.588C501.603 216.765 502.069 216.957 502.704 217.162C503.339 217.377 503.852 217.582 504.244 217.778C504.645 217.974 504.991 218.259 505.28 218.632C505.569 219.005 505.714 219.486 505.714 220.074C505.714 220.634 505.569 221.143 505.28 221.6C505 222.057 504.589 222.421 504.048 222.692C503.507 222.963 502.867 223.098 502.13 223.098ZM510.281 221.152H513.417V223H507.887V213.172H510.281V221.152ZM519.907 223.098C518.983 223.098 518.134 222.883 517.359 222.454C516.594 222.025 515.982 221.427 515.525 220.662C515.077 219.887 514.853 219.019 514.853 218.058C514.853 217.097 515.077 216.233 515.525 215.468C515.982 214.703 516.594 214.105 517.359 213.676C518.134 213.247 518.983 213.032 519.907 213.032C520.831 213.032 521.676 213.247 522.441 213.676C523.216 214.105 523.822 214.703 524.261 215.468C524.709 216.233 524.933 217.097 524.933 218.058C524.933 219.019 524.709 219.887 524.261 220.662C523.813 221.427 523.206 222.025 522.441 222.454C521.676 222.883 520.831 223.098 519.907 223.098ZM519.907 220.914C520.691 220.914 521.316 220.653 521.783 220.13C522.259 219.607 522.497 218.917 522.497 218.058C522.497 217.19 522.259 216.499 521.783 215.986C521.316 215.463 520.691 215.202 519.907 215.202C519.114 215.202 518.479 215.459 518.003 215.972C517.536 216.485 517.303 217.181 517.303 218.058C517.303 218.926 517.536 219.621 518.003 220.144C518.479 220.657 519.114 220.914 519.907 220.914Z" fill="#43484B"/>
<path d="M491.516 244.098C490.592 244.098 489.743 243.883 488.968 243.454C488.203 243.025 487.591 242.427 487.134 241.662C486.686 240.887 486.462 240.019 486.462 239.058C486.462 238.097 486.686 237.233 487.134 236.468C487.591 235.703 488.203 235.105 488.968 234.676C489.743 234.247 490.592 234.032 491.516 234.032C492.44 234.032 493.285 234.247 494.05 234.676C494.825 235.105 495.431 235.703 495.87 236.468C496.318 237.233 496.542 238.097 496.542 239.058C496.542 240.019 496.318 240.887 495.87 241.662C495.422 242.427 494.815 243.025 494.05 243.454C493.285 243.883 492.44 244.098 491.516 244.098ZM491.516 241.914C492.3 241.914 492.925 241.653 493.392 241.13C493.868 240.607 494.106 239.917 494.106 239.058C494.106 238.19 493.868 237.499 493.392 236.986C492.925 236.463 492.3 236.202 491.516 236.202C490.723 236.202 490.088 236.459 489.612 236.972C489.145 237.485 488.912 238.181 488.912 239.058C488.912 239.926 489.145 240.621 489.612 241.144C490.088 241.657 490.723 241.914 491.516 241.914ZM502.13 244.098C501.411 244.098 500.767 243.981 500.198 243.748C499.629 243.515 499.171 243.169 498.826 242.712C498.49 242.255 498.313 241.704 498.294 241.06H500.842C500.879 241.424 501.005 241.704 501.22 241.9C501.435 242.087 501.715 242.18 502.06 242.18C502.415 242.18 502.695 242.101 502.9 241.942C503.105 241.774 503.208 241.545 503.208 241.256C503.208 241.013 503.124 240.813 502.956 240.654C502.797 240.495 502.597 240.365 502.354 240.262C502.121 240.159 501.785 240.043 501.346 239.912C500.711 239.716 500.193 239.52 499.792 239.324C499.391 239.128 499.045 238.839 498.756 238.456C498.467 238.073 498.322 237.574 498.322 236.958C498.322 236.043 498.653 235.329 499.316 234.816C499.979 234.293 500.842 234.032 501.906 234.032C502.989 234.032 503.861 234.293 504.524 234.816C505.187 235.329 505.541 236.048 505.588 236.972H502.998C502.979 236.655 502.863 236.407 502.648 236.23C502.433 236.043 502.158 235.95 501.822 235.95C501.533 235.95 501.299 236.029 501.122 236.188C500.945 236.337 500.856 236.557 500.856 236.846C500.856 237.163 501.005 237.411 501.304 237.588C501.603 237.765 502.069 237.957 502.704 238.162C503.339 238.377 503.852 238.582 504.244 238.778C504.645 238.974 504.991 239.259 505.28 239.632C505.569 240.005 505.714 240.486 505.714 241.074C505.714 241.634 505.569 242.143 505.28 242.6C505 243.057 504.589 243.421 504.048 243.692C503.507 243.963 502.867 244.098 502.13 244.098ZM510.281 242.152H513.417V244H507.887V234.172H510.281V242.152ZM519.907 244.098C518.983 244.098 518.134 243.883 517.359 243.454C516.594 243.025 515.982 242.427 515.525 241.662C515.077 240.887 514.853 240.019 514.853 239.058C514.853 238.097 515.077 237.233 515.525 236.468C515.982 235.703 516.594 235.105 517.359 234.676C518.134 234.247 518.983 234.032 519.907 234.032C520.831 234.032 521.676 234.247 522.441 234.676C523.216 235.105 523.822 235.703 524.261 236.468C524.709 237.233 524.933 238.097 524.933 239.058C524.933 240.019 524.709 240.887 524.261 241.662C523.813 242.427 523.206 243.025 522.441 243.454C521.676 243.883 520.831 244.098 519.907 244.098ZM519.907 241.914C520.691 241.914 521.316 241.653 521.783 241.13C522.259 240.607 522.497 239.917 522.497 239.058C522.497 238.19 522.259 237.499 521.783 236.986C521.316 236.463 520.691 236.202 519.907 236.202C519.114 236.202 518.479 236.459 518.003 236.972C517.536 237.485 517.303 238.181 517.303 239.058C517.303 239.926 517.536 240.621 518.003 241.144C518.479 241.657 519.114 241.914 519.907 241.914Z" fill="#43484B"/>
<path d="M602.516 139.098C601.592 139.098 600.743 138.883 599.968 138.454C599.203 138.025 598.591 137.427 598.134 136.662C597.686 135.887 597.462 135.019 597.462 134.058C597.462 133.097 597.686 132.233 598.134 131.468C598.591 130.703 599.203 130.105 599.968 129.676C600.743 129.247 601.592 129.032 602.516 129.032C603.44 129.032 604.285 129.247 605.05 129.676C605.825 130.105 606.431 130.703 606.87 131.468C607.318 132.233 607.542 133.097 607.542 134.058C607.542 135.019 607.318 135.887 606.87 136.662C606.422 137.427 605.815 138.025 605.05 138.454C604.285 138.883 603.44 139.098 602.516 139.098ZM602.516 136.914C603.3 136.914 603.925 136.653 604.392 136.13C604.868 135.607 605.106 134.917 605.106 134.058C605.106 133.19 604.868 132.499 604.392 131.986C603.925 131.463 603.3 131.202 602.516 131.202C601.723 131.202 601.088 131.459 600.612 131.972C600.145 132.485 599.912 133.181 599.912 134.058C599.912 134.926 600.145 135.621 600.612 136.144C601.088 136.657 601.723 136.914 602.516 136.914ZM613.13 139.098C612.411 139.098 611.767 138.981 611.198 138.748C610.629 138.515 610.171 138.169 609.826 137.712C609.49 137.255 609.313 136.704 609.294 136.06H611.842C611.879 136.424 612.005 136.704 612.22 136.9C612.435 137.087 612.715 137.18 613.06 137.18C613.415 137.18 613.695 137.101 613.9 136.942C614.105 136.774 614.208 136.545 614.208 136.256C614.208 136.013 614.124 135.813 613.956 135.654C613.797 135.495 613.597 135.365 613.354 135.262C613.121 135.159 612.785 135.043 612.346 134.912C611.711 134.716 611.193 134.52 610.792 134.324C610.391 134.128 610.045 133.839 609.756 133.456C609.467 133.073 609.322 132.574 609.322 131.958C609.322 131.043 609.653 130.329 610.316 129.816C610.979 129.293 611.842 129.032 612.906 129.032C613.989 129.032 614.861 129.293 615.524 129.816C616.187 130.329 616.541 131.048 616.588 131.972H613.998C613.979 131.655 613.863 131.407 613.648 131.23C613.433 131.043 613.158 130.95 612.822 130.95C612.533 130.95 612.299 131.029 612.122 131.188C611.945 131.337 611.856 131.557 611.856 131.846C611.856 132.163 612.005 132.411 612.304 132.588C612.603 132.765 613.069 132.957 613.704 133.162C614.339 133.377 614.852 133.582 615.244 133.778C615.645 133.974 615.991 134.259 616.28 134.632C616.569 135.005 616.714 135.486 616.714 136.074C616.714 136.634 616.569 137.143 616.28 137.6C616 138.057 615.589 138.421 615.048 138.692C614.507 138.963 613.867 139.098 613.13 139.098ZM621.281 137.152H624.417V139H618.887V129.172H621.281V137.152ZM630.907 139.098C629.983 139.098 629.134 138.883 628.359 138.454C627.594 138.025 626.982 137.427 626.525 136.662C626.077 135.887 625.853 135.019 625.853 134.058C625.853 133.097 626.077 132.233 626.525 131.468C626.982 130.703 627.594 130.105 628.359 129.676C629.134 129.247 629.983 129.032 630.907 129.032C631.831 129.032 632.676 129.247 633.441 129.676C634.216 130.105 634.822 130.703 635.261 131.468C635.709 132.233 635.933 133.097 635.933 134.058C635.933 135.019 635.709 135.887 635.261 136.662C634.813 137.427 634.206 138.025 633.441 138.454C632.676 138.883 631.831 139.098 630.907 139.098ZM630.907 136.914C631.691 136.914 632.316 136.653 632.783 136.13C633.259 135.607 633.497 134.917 633.497 134.058C633.497 133.19 633.259 132.499 632.783 131.986C632.316 131.463 631.691 131.202 630.907 131.202C630.114 131.202 629.479 131.459 629.003 131.972C628.536 132.485 628.303 133.181 628.303 134.058C628.303 134.926 628.536 135.621 629.003 136.144C629.479 136.657 630.114 136.914 630.907 136.914Z" fill="#43484B"/>
<path d="M602.516 160.098C601.592 160.098 600.743 159.883 599.968 159.454C599.203 159.025 598.591 158.427 598.134 157.662C597.686 156.887 597.462 156.019 597.462 155.058C597.462 154.097 597.686 153.233 598.134 152.468C598.591 151.703 599.203 151.105 599.968 150.676C600.743 150.247 601.592 150.032 602.516 150.032C603.44 150.032 604.285 150.247 605.05 150.676C605.825 151.105 606.431 151.703 606.87 152.468C607.318 153.233 607.542 154.097 607.542 155.058C607.542 156.019 607.318 156.887 606.87 157.662C606.422 158.427 605.815 159.025 605.05 159.454C604.285 159.883 603.44 160.098 602.516 160.098ZM602.516 157.914C603.3 157.914 603.925 157.653 604.392 157.13C604.868 156.607 605.106 155.917 605.106 155.058C605.106 154.19 604.868 153.499 604.392 152.986C603.925 152.463 603.3 152.202 602.516 152.202C601.723 152.202 601.088 152.459 600.612 152.972C600.145 153.485 599.912 154.181 599.912 155.058C599.912 155.926 600.145 156.621 600.612 157.144C601.088 157.657 601.723 157.914 602.516 157.914ZM613.13 160.098C612.411 160.098 611.767 159.981 611.198 159.748C610.629 159.515 610.171 159.169 609.826 158.712C609.49 158.255 609.313 157.704 609.294 157.06H611.842C611.879 157.424 612.005 157.704 612.22 157.9C612.435 158.087 612.715 158.18 613.06 158.18C613.415 158.18 613.695 158.101 613.9 157.942C614.105 157.774 614.208 157.545 614.208 157.256C614.208 157.013 614.124 156.813 613.956 156.654C613.797 156.495 613.597 156.365 613.354 156.262C613.121 156.159 612.785 156.043 612.346 155.912C611.711 155.716 611.193 155.52 610.792 155.324C610.391 155.128 610.045 154.839 609.756 154.456C609.467 154.073 609.322 153.574 609.322 152.958C609.322 152.043 609.653 151.329 610.316 150.816C610.979 150.293 611.842 150.032 612.906 150.032C613.989 150.032 614.861 150.293 615.524 150.816C616.187 151.329 616.541 152.048 616.588 152.972H613.998C613.979 152.655 613.863 152.407 613.648 152.23C613.433 152.043 613.158 151.95 612.822 151.95C612.533 151.95 612.299 152.029 612.122 152.188C611.945 152.337 611.856 152.557 611.856 152.846C611.856 153.163 612.005 153.411 612.304 153.588C612.603 153.765 613.069 153.957 613.704 154.162C614.339 154.377 614.852 154.582 615.244 154.778C615.645 154.974 615.991 155.259 616.28 155.632C616.569 156.005 616.714 156.486 616.714 157.074C616.714 157.634 616.569 158.143 616.28 158.6C616 159.057 615.589 159.421 615.048 159.692C614.507 159.963 613.867 160.098 613.13 160.098ZM621.281 158.152H624.417V160H618.887V150.172H621.281V158.152ZM630.907 160.098C629.983 160.098 629.134 159.883 628.359 159.454C627.594 159.025 626.982 158.427 626.525 157.662C626.077 156.887 625.853 156.019 625.853 155.058C625.853 154.097 626.077 153.233 626.525 152.468C626.982 151.703 627.594 151.105 628.359 150.676C629.134 150.247 629.983 150.032 630.907 150.032C631.831 150.032 632.676 150.247 633.441 150.676C634.216 151.105 634.822 151.703 635.261 152.468C635.709 153.233 635.933 154.097 635.933 155.058C635.933 156.019 635.709 156.887 635.261 157.662C634.813 158.427 634.206 159.025 633.441 159.454C632.676 159.883 631.831 160.098 630.907 160.098ZM630.907 157.914C631.691 157.914 632.316 157.653 632.783 157.13C633.259 156.607 633.497 155.917 633.497 155.058C633.497 154.19 633.259 153.499 632.783 152.986C632.316 152.463 631.691 152.202 630.907 152.202C630.114 152.202 629.479 152.459 629.003 152.972C628.536 153.485 628.303 154.181 628.303 155.058C628.303 155.926 628.536 156.621 629.003 157.144C629.479 157.657 630.114 157.914 630.907 157.914Z" fill="#43484B"/>
<path d="M602.516 181.098C601.592 181.098 600.743 180.883 599.968 180.454C599.203 180.025 598.591 179.427 598.134 178.662C597.686 177.887 597.462 177.019 597.462 176.058C597.462 175.097 597.686 174.233 598.134 173.468C598.591 172.703 599.203 172.105 599.968 171.676C600.743 171.247 601.592 171.032 602.516 171.032C603.44 171.032 604.285 171.247 605.05 171.676C605.825 172.105 606.431 172.703 606.87 173.468C607.318 174.233 607.542 175.097 607.542 176.058C607.542 177.019 607.318 177.887 606.87 178.662C606.422 179.427 605.815 180.025 605.05 180.454C604.285 180.883 603.44 181.098 602.516 181.098ZM602.516 178.914C603.3 178.914 603.925 178.653 604.392 178.13C604.868 177.607 605.106 176.917 605.106 176.058C605.106 175.19 604.868 174.499 604.392 173.986C603.925 173.463 603.3 173.202 602.516 173.202C601.723 173.202 601.088 173.459 600.612 173.972C600.145 174.485 599.912 175.181 599.912 176.058C599.912 176.926 600.145 177.621 600.612 178.144C601.088 178.657 601.723 178.914 602.516 178.914ZM613.13 181.098C612.411 181.098 611.767 180.981 611.198 180.748C610.629 180.515 610.171 180.169 609.826 179.712C609.49 179.255 609.313 178.704 609.294 178.06H611.842C611.879 178.424 612.005 178.704 612.22 178.9C612.435 179.087 612.715 179.18 613.06 179.18C613.415 179.18 613.695 179.101 613.9 178.942C614.105 178.774 614.208 178.545 614.208 178.256C614.208 178.013 614.124 177.813 613.956 177.654C613.797 177.495 613.597 177.365 613.354 177.262C613.121 177.159 612.785 177.043 612.346 176.912C611.711 176.716 611.193 176.52 610.792 176.324C610.391 176.128 610.045 175.839 609.756 175.456C609.467 175.073 609.322 174.574 609.322 173.958C609.322 173.043 609.653 172.329 610.316 171.816C610.979 171.293 611.842 171.032 612.906 171.032C613.989 171.032 614.861 171.293 615.524 171.816C616.187 172.329 616.541 173.048 616.588 173.972H613.998C613.979 173.655 613.863 173.407 613.648 173.23C613.433 173.043 613.158 172.95 612.822 172.95C612.533 172.95 612.299 173.029 612.122 173.188C611.945 173.337 611.856 173.557 611.856 173.846C611.856 174.163 612.005 174.411 612.304 174.588C612.603 174.765 613.069 174.957 613.704 175.162C614.339 175.377 614.852 175.582 615.244 175.778C615.645 175.974 615.991 176.259 616.28 176.632C616.569 177.005 616.714 177.486 616.714 178.074C616.714 178.634 616.569 179.143 616.28 179.6C616 180.057 615.589 180.421 615.048 180.692C614.507 180.963 613.867 181.098 613.13 181.098ZM621.281 179.152H624.417V181H618.887V171.172H621.281V179.152ZM630.907 181.098C629.983 181.098 629.134 180.883 628.359 180.454C627.594 180.025 626.982 179.427 626.525 178.662C626.077 177.887 625.853 177.019 625.853 176.058C625.853 175.097 626.077 174.233 626.525 173.468C626.982 172.703 627.594 172.105 628.359 171.676C629.134 171.247 629.983 171.032 630.907 171.032C631.831 171.032 632.676 171.247 633.441 171.676C634.216 172.105 634.822 172.703 635.261 173.468C635.709 174.233 635.933 175.097 635.933 176.058C635.933 177.019 635.709 177.887 635.261 178.662C634.813 179.427 634.206 180.025 633.441 180.454C632.676 180.883 631.831 181.098 630.907 181.098ZM630.907 178.914C631.691 178.914 632.316 178.653 632.783 178.13C633.259 177.607 633.497 176.917 633.497 176.058C633.497 175.19 633.259 174.499 632.783 173.986C632.316 173.463 631.691 173.202 630.907 173.202C630.114 173.202 629.479 173.459 629.003 173.972C628.536 174.485 628.303 175.181 628.303 176.058C628.303 176.926 628.536 177.621 629.003 178.144C629.479 178.657 630.114 178.914 630.907 178.914Z" fill="#43484B"/>
<path d="M602.516 202.098C601.592 202.098 600.743 201.883 599.968 201.454C599.203 201.025 598.591 200.427 598.134 199.662C597.686 198.887 597.462 198.019 597.462 197.058C597.462 196.097 597.686 195.233 598.134 194.468C598.591 193.703 599.203 193.105 599.968 192.676C600.743 192.247 601.592 192.032 602.516 192.032C603.44 192.032 604.285 192.247 605.05 192.676C605.825 193.105 606.431 193.703 606.87 194.468C607.318 195.233 607.542 196.097 607.542 197.058C607.542 198.019 607.318 198.887 606.87 199.662C606.422 200.427 605.815 201.025 605.05 201.454C604.285 201.883 603.44 202.098 602.516 202.098ZM602.516 199.914C603.3 199.914 603.925 199.653 604.392 199.13C604.868 198.607 605.106 197.917 605.106 197.058C605.106 196.19 604.868 195.499 604.392 194.986C603.925 194.463 603.3 194.202 602.516 194.202C601.723 194.202 601.088 194.459 600.612 194.972C600.145 195.485 599.912 196.181 599.912 197.058C599.912 197.926 600.145 198.621 600.612 199.144C601.088 199.657 601.723 199.914 602.516 199.914ZM613.13 202.098C612.411 202.098 611.767 201.981 611.198 201.748C610.629 201.515 610.171 201.169 609.826 200.712C609.49 200.255 609.313 199.704 609.294 199.06H611.842C611.879 199.424 612.005 199.704 612.22 199.9C612.435 200.087 612.715 200.18 613.06 200.18C613.415 200.18 613.695 200.101 613.9 199.942C614.105 199.774 614.208 199.545 614.208 199.256C614.208 199.013 614.124 198.813 613.956 198.654C613.797 198.495 613.597 198.365 613.354 198.262C613.121 198.159 612.785 198.043 612.346 197.912C611.711 197.716 611.193 197.52 610.792 197.324C610.391 197.128 610.045 196.839 609.756 196.456C609.467 196.073 609.322 195.574 609.322 194.958C609.322 194.043 609.653 193.329 610.316 192.816C610.979 192.293 611.842 192.032 612.906 192.032C613.989 192.032 614.861 192.293 615.524 192.816C616.187 193.329 616.541 194.048 616.588 194.972H613.998C613.979 194.655 613.863 194.407 613.648 194.23C613.433 194.043 613.158 193.95 612.822 193.95C612.533 193.95 612.299 194.029 612.122 194.188C611.945 194.337 611.856 194.557 611.856 194.846C611.856 195.163 612.005 195.411 612.304 195.588C612.603 195.765 613.069 195.957 613.704 196.162C614.339 196.377 614.852 196.582 615.244 196.778C615.645 196.974 615.991 197.259 616.28 197.632C616.569 198.005 616.714 198.486 616.714 199.074C616.714 199.634 616.569 200.143 616.28 200.6C616 201.057 615.589 201.421 615.048 201.692C614.507 201.963 613.867 202.098 613.13 202.098ZM621.281 200.152H624.417V202H618.887V192.172H621.281V200.152ZM630.907 202.098C629.983 202.098 629.134 201.883 628.359 201.454C627.594 201.025 626.982 200.427 626.525 199.662C626.077 198.887 625.853 198.019 625.853 197.058C625.853 196.097 626.077 195.233 626.525 194.468C626.982 193.703 627.594 193.105 628.359 192.676C629.134 192.247 629.983 192.032 630.907 192.032C631.831 192.032 632.676 192.247 633.441 192.676C634.216 193.105 634.822 193.703 635.261 194.468C635.709 195.233 635.933 196.097 635.933 197.058C635.933 198.019 635.709 198.887 635.261 199.662C634.813 200.427 634.206 201.025 633.441 201.454C632.676 201.883 631.831 202.098 630.907 202.098ZM630.907 199.914C631.691 199.914 632.316 199.653 632.783 199.13C633.259 198.607 633.497 197.917 633.497 197.058C633.497 196.19 633.259 195.499 632.783 194.986C632.316 194.463 631.691 194.202 630.907 194.202C630.114 194.202 629.479 194.459 629.003 194.972C628.536 195.485 628.303 196.181 628.303 197.058C628.303 197.926 628.536 198.621 629.003 199.144C629.479 199.657 630.114 199.914 630.907 199.914Z" fill="#43484B"/>
<path d="M602.516 223.098C601.592 223.098 600.743 222.883 599.968 222.454C599.203 222.025 598.591 221.427 598.134 220.662C597.686 219.887 597.462 219.019 597.462 218.058C597.462 217.097 597.686 216.233 598.134 215.468C598.591 214.703 599.203 214.105 599.968 213.676C600.743 213.247 601.592 213.032 602.516 213.032C603.44 213.032 604.285 213.247 605.05 213.676C605.825 214.105 606.431 214.703 606.87 215.468C607.318 216.233 607.542 217.097 607.542 218.058C607.542 219.019 607.318 219.887 606.87 220.662C606.422 221.427 605.815 222.025 605.05 222.454C604.285 222.883 603.44 223.098 602.516 223.098ZM602.516 220.914C603.3 220.914 603.925 220.653 604.392 220.13C604.868 219.607 605.106 218.917 605.106 218.058C605.106 217.19 604.868 216.499 604.392 215.986C603.925 215.463 603.3 215.202 602.516 215.202C601.723 215.202 601.088 215.459 600.612 215.972C600.145 216.485 599.912 217.181 599.912 218.058C599.912 218.926 600.145 219.621 600.612 220.144C601.088 220.657 601.723 220.914 602.516 220.914ZM613.13 223.098C612.411 223.098 611.767 222.981 611.198 222.748C610.629 222.515 610.171 222.169 609.826 221.712C609.49 221.255 609.313 220.704 609.294 220.06H611.842C611.879 220.424 612.005 220.704 612.22 220.9C612.435 221.087 612.715 221.18 613.06 221.18C613.415 221.18 613.695 221.101 613.9 220.942C614.105 220.774 614.208 220.545 614.208 220.256C614.208 220.013 614.124 219.813 613.956 219.654C613.797 219.495 613.597 219.365 613.354 219.262C613.121 219.159 612.785 219.043 612.346 218.912C611.711 218.716 611.193 218.52 610.792 218.324C610.391 218.128 610.045 217.839 609.756 217.456C609.467 217.073 609.322 216.574 609.322 215.958C609.322 215.043 609.653 214.329 610.316 213.816C610.979 213.293 611.842 213.032 612.906 213.032C613.989 213.032 614.861 213.293 615.524 213.816C616.187 214.329 616.541 215.048 616.588 215.972H613.998C613.979 215.655 613.863 215.407 613.648 215.23C613.433 215.043 613.158 214.95 612.822 214.95C612.533 214.95 612.299 215.029 612.122 215.188C611.945 215.337 611.856 215.557 611.856 215.846C611.856 216.163 612.005 216.411 612.304 216.588C612.603 216.765 613.069 216.957 613.704 217.162C614.339 217.377 614.852 217.582 615.244 217.778C615.645 217.974 615.991 218.259 616.28 218.632C616.569 219.005 616.714 219.486 616.714 220.074C616.714 220.634 616.569 221.143 616.28 221.6C616 222.057 615.589 222.421 615.048 222.692C614.507 222.963 613.867 223.098 613.13 223.098ZM621.281 221.152H624.417V223H618.887V213.172H621.281V221.152ZM630.907 223.098C629.983 223.098 629.134 222.883 628.359 222.454C627.594 222.025 626.982 221.427 626.525 220.662C626.077 219.887 625.853 219.019 625.853 218.058C625.853 217.097 626.077 216.233 626.525 215.468C626.982 214.703 627.594 214.105 628.359 213.676C629.134 213.247 629.983 213.032 630.907 213.032C631.831 213.032 632.676 213.247 633.441 213.676C634.216 214.105 634.822 214.703 635.261 215.468C635.709 216.233 635.933 217.097 635.933 218.058C635.933 219.019 635.709 219.887 635.261 220.662C634.813 221.427 634.206 222.025 633.441 222.454C632.676 222.883 631.831 223.098 630.907 223.098ZM630.907 220.914C631.691 220.914 632.316 220.653 632.783 220.13C633.259 219.607 633.497 218.917 633.497 218.058C633.497 217.19 633.259 216.499 632.783 215.986C632.316 215.463 631.691 215.202 630.907 215.202C630.114 215.202 629.479 215.459 629.003 215.972C628.536 216.485 628.303 217.181 628.303 218.058C628.303 218.926 628.536 219.621 629.003 220.144C629.479 220.657 630.114 220.914 630.907 220.914Z" fill="#43484B"/>
<path d="M602.516 244.098C601.592 244.098 600.743 243.883 599.968 243.454C599.203 243.025 598.591 242.427 598.134 241.662C597.686 240.887 597.462 240.019 597.462 239.058C597.462 238.097 597.686 237.233 598.134 236.468C598.591 235.703 599.203 235.105 599.968 234.676C600.743 234.247 601.592 234.032 602.516 234.032C603.44 234.032 604.285 234.247 605.05 234.676C605.825 235.105 606.431 235.703 606.87 236.468C607.318 237.233 607.542 238.097 607.542 239.058C607.542 240.019 607.318 240.887 606.87 241.662C606.422 242.427 605.815 243.025 605.05 243.454C604.285 243.883 603.44 244.098 602.516 244.098ZM602.516 241.914C603.3 241.914 603.925 241.653 604.392 241.13C604.868 240.607 605.106 239.917 605.106 239.058C605.106 238.19 604.868 237.499 604.392 236.986C603.925 236.463 603.3 236.202 602.516 236.202C601.723 236.202 601.088 236.459 600.612 236.972C600.145 237.485 599.912 238.181 599.912 239.058C599.912 239.926 600.145 240.621 600.612 241.144C601.088 241.657 601.723 241.914 602.516 241.914ZM613.13 244.098C612.411 244.098 611.767 243.981 611.198 243.748C610.629 243.515 610.171 243.169 609.826 242.712C609.49 242.255 609.313 241.704 609.294 241.06H611.842C611.879 241.424 612.005 241.704 612.22 241.9C612.435 242.087 612.715 242.18 613.06 242.18C613.415 242.18 613.695 242.101 613.9 241.942C614.105 241.774 614.208 241.545 614.208 241.256C614.208 241.013 614.124 240.813 613.956 240.654C613.797 240.495 613.597 240.365 613.354 240.262C613.121 240.159 612.785 240.043 612.346 239.912C611.711 239.716 611.193 239.52 610.792 239.324C610.391 239.128 610.045 238.839 609.756 238.456C609.467 238.073 609.322 237.574 609.322 236.958C609.322 236.043 609.653 235.329 610.316 234.816C610.979 234.293 611.842 234.032 612.906 234.032C613.989 234.032 614.861 234.293 615.524 234.816C616.187 235.329 616.541 236.048 616.588 236.972H613.998C613.979 236.655 613.863 236.407 613.648 236.23C613.433 236.043 613.158 235.95 612.822 235.95C612.533 235.95 612.299 236.029 612.122 236.188C611.945 236.337 611.856 236.557 611.856 236.846C611.856 237.163 612.005 237.411 612.304 237.588C612.603 237.765 613.069 237.957 613.704 238.162C614.339 238.377 614.852 238.582 615.244 238.778C615.645 238.974 615.991 239.259 616.28 239.632C616.569 240.005 616.714 240.486 616.714 241.074C616.714 241.634 616.569 242.143 616.28 242.6C616 243.057 615.589 243.421 615.048 243.692C614.507 243.963 613.867 244.098 613.13 244.098ZM621.281 242.152H624.417V244H618.887V234.172H621.281V242.152ZM630.907 244.098C629.983 244.098 629.134 243.883 628.359 243.454C627.594 243.025 626.982 242.427 626.525 241.662C626.077 240.887 625.853 240.019 625.853 239.058C625.853 238.097 626.077 237.233 626.525 236.468C626.982 235.703 627.594 235.105 628.359 234.676C629.134 234.247 629.983 234.032 630.907 234.032C631.831 234.032 632.676 234.247 633.441 234.676C634.216 235.105 634.822 235.703 635.261 236.468C635.709 237.233 635.933 238.097 635.933 239.058C635.933 240.019 635.709 240.887 635.261 241.662C634.813 242.427 634.206 243.025 633.441 243.454C632.676 243.883 631.831 244.098 630.907 244.098ZM630.907 241.914C631.691 241.914 632.316 241.653 632.783 241.13C633.259 240.607 633.497 239.917 633.497 239.058C633.497 238.19 633.259 237.499 632.783 236.986C632.316 236.463 631.691 236.202 630.907 236.202C630.114 236.202 629.479 236.459 629.003 236.972C628.536 237.485 628.303 238.181 628.303 239.058C628.303 239.926 628.536 240.621 629.003 241.144C629.479 241.657 630.114 241.914 630.907 241.914Z" fill="#43484B"/>
<path d="M231.378 154.006V151.78H235.256V162H232.764V154.006H231.378ZM237.51 160.082C237.827 159.83 237.972 159.713 237.944 159.732C238.858 158.976 239.577 158.355 240.1 157.87C240.632 157.385 241.08 156.876 241.444 156.344C241.808 155.812 241.99 155.294 241.99 154.79C241.99 154.407 241.901 154.109 241.724 153.894C241.546 153.679 241.28 153.572 240.926 153.572C240.571 153.572 240.291 153.707 240.086 153.978C239.89 154.239 239.792 154.613 239.792 155.098H237.482C237.5 154.305 237.668 153.642 237.986 153.11C238.312 152.578 238.737 152.186 239.26 151.934C239.792 151.682 240.38 151.556 241.024 151.556C242.134 151.556 242.97 151.841 243.53 152.41C244.099 152.979 244.384 153.721 244.384 154.636C244.384 155.635 244.043 156.563 243.362 157.422C242.68 158.271 241.812 159.102 240.758 159.914H244.538V161.86H237.51V160.082ZM247.65 162.112C247.23 162.112 246.884 161.991 246.614 161.748C246.352 161.496 246.222 161.188 246.222 160.824C246.222 160.451 246.352 160.138 246.614 159.886C246.884 159.634 247.23 159.508 247.65 159.508C248.06 159.508 248.396 159.634 248.658 159.886C248.928 160.138 249.064 160.451 249.064 160.824C249.064 161.188 248.928 161.496 248.658 161.748C248.396 161.991 248.06 162.112 247.65 162.112ZM251.027 154.664C251.064 153.665 251.391 152.895 252.007 152.354C252.623 151.813 253.458 151.542 254.513 151.542C255.213 151.542 255.81 151.663 256.305 151.906C256.809 152.149 257.187 152.48 257.439 152.9C257.7 153.32 257.831 153.791 257.831 154.314C257.831 154.93 257.677 155.434 257.369 155.826C257.061 156.209 256.702 156.47 256.291 156.61V156.666C256.823 156.843 257.243 157.137 257.551 157.548C257.859 157.959 258.013 158.486 258.013 159.13C258.013 159.709 257.878 160.222 257.607 160.67C257.346 161.109 256.958 161.454 256.445 161.706C255.941 161.958 255.339 162.084 254.639 162.084C253.519 162.084 252.623 161.809 251.951 161.258C251.288 160.707 250.938 159.877 250.901 158.766H253.225C253.234 159.177 253.351 159.503 253.575 159.746C253.799 159.979 254.126 160.096 254.555 160.096C254.919 160.096 255.199 159.993 255.395 159.788C255.6 159.573 255.703 159.293 255.703 158.948C255.703 158.5 255.558 158.178 255.269 157.982C254.989 157.777 254.536 157.674 253.911 157.674H253.463V155.728H253.911C254.387 155.728 254.77 155.649 255.059 155.49C255.358 155.322 255.507 155.028 255.507 154.608C255.507 154.272 255.414 154.011 255.227 153.824C255.04 153.637 254.784 153.544 254.457 153.544C254.102 153.544 253.836 153.651 253.659 153.866C253.491 154.081 253.393 154.347 253.365 154.664H251.027ZM260.035 160.082C260.353 159.83 260.497 159.713 260.469 159.732C261.384 158.976 262.103 158.355 262.625 157.87C263.157 157.385 263.605 156.876 263.969 156.344C264.333 155.812 264.515 155.294 264.515 154.79C264.515 154.407 264.427 154.109 264.249 153.894C264.072 153.679 263.806 153.572 263.451 153.572C263.097 153.572 262.817 153.707 262.611 153.978C262.415 154.239 262.317 154.613 262.317 155.098H260.007C260.026 154.305 260.194 153.642 260.511 153.11C260.838 152.578 261.263 152.186 261.785 151.934C262.317 151.682 262.905 151.556 263.549 151.556C264.66 151.556 265.495 151.841 266.055 152.41C266.625 152.979 266.909 153.721 266.909 154.636C266.909 155.635 266.569 156.563 265.887 157.422C265.206 158.271 264.338 159.102 263.283 159.914H267.063V161.86H260.035V160.082Z" fill="#43484B"/>
<path d="M231.378 175.006V172.78H235.256V183H232.764V175.006H231.378ZM237.51 181.082C237.827 180.83 237.972 180.713 237.944 180.732C238.858 179.976 239.577 179.355 240.1 178.87C240.632 178.385 241.08 177.876 241.444 177.344C241.808 176.812 241.99 176.294 241.99 175.79C241.99 175.407 241.901 175.109 241.724 174.894C241.546 174.679 241.28 174.572 240.926 174.572C240.571 174.572 240.291 174.707 240.086 174.978C239.89 175.239 239.792 175.613 239.792 176.098H237.482C237.5 175.305 237.668 174.642 237.986 174.11C238.312 173.578 238.737 173.186 239.26 172.934C239.792 172.682 240.38 172.556 241.024 172.556C242.134 172.556 242.97 172.841 243.53 173.41C244.099 173.979 244.384 174.721 244.384 175.636C244.384 176.635 244.043 177.563 243.362 178.422C242.68 179.271 241.812 180.102 240.758 180.914H244.538V182.86H237.51V181.082ZM247.65 183.112C247.23 183.112 246.884 182.991 246.614 182.748C246.352 182.496 246.222 182.188 246.222 181.824C246.222 181.451 246.352 181.138 246.614 180.886C246.884 180.634 247.23 180.508 247.65 180.508C248.06 180.508 248.396 180.634 248.658 180.886C248.928 181.138 249.064 181.451 249.064 181.824C249.064 182.188 248.928 182.496 248.658 182.748C248.396 182.991 248.06 183.112 247.65 183.112ZM251.027 175.664C251.064 174.665 251.391 173.895 252.007 173.354C252.623 172.813 253.458 172.542 254.513 172.542C255.213 172.542 255.81 172.663 256.305 172.906C256.809 173.149 257.187 173.48 257.439 173.9C257.7 174.32 257.831 174.791 257.831 175.314C257.831 175.93 257.677 176.434 257.369 176.826C257.061 177.209 256.702 177.47 256.291 177.61V177.666C256.823 177.843 257.243 178.137 257.551 178.548C257.859 178.959 258.013 179.486 258.013 180.13C258.013 180.709 257.878 181.222 257.607 181.67C257.346 182.109 256.958 182.454 256.445 182.706C255.941 182.958 255.339 183.084 254.639 183.084C253.519 183.084 252.623 182.809 251.951 182.258C251.288 181.707 250.938 180.877 250.901 179.766H253.225C253.234 180.177 253.351 180.503 253.575 180.746C253.799 180.979 254.126 181.096 254.555 181.096C254.919 181.096 255.199 180.993 255.395 180.788C255.6 180.573 255.703 180.293 255.703 179.948C255.703 179.5 255.558 179.178 255.269 178.982C254.989 178.777 254.536 178.674 253.911 178.674H253.463V176.728H253.911C254.387 176.728 254.77 176.649 255.059 176.49C255.358 176.322 255.507 176.028 255.507 175.608C255.507 175.272 255.414 175.011 255.227 174.824C255.04 174.637 254.784 174.544 254.457 174.544C254.102 174.544 253.836 174.651 253.659 174.866C253.491 175.081 253.393 175.347 253.365 175.664H251.027ZM260.035 181.082C260.353 180.83 260.497 180.713 260.469 180.732C261.384 179.976 262.103 179.355 262.625 178.87C263.157 178.385 263.605 177.876 263.969 177.344C264.333 176.812 264.515 176.294 264.515 175.79C264.515 175.407 264.427 175.109 264.249 174.894C264.072 174.679 263.806 174.572 263.451 174.572C263.097 174.572 262.817 174.707 262.611 174.978C262.415 175.239 262.317 175.613 262.317 176.098H260.007C260.026 175.305 260.194 174.642 260.511 174.11C260.838 173.578 261.263 173.186 261.785 172.934C262.317 172.682 262.905 172.556 263.549 172.556C264.66 172.556 265.495 172.841 266.055 173.41C266.625 173.979 266.909 174.721 266.909 175.636C266.909 176.635 266.569 177.563 265.887 178.422C265.206 179.271 264.338 180.102 263.283 180.914H267.063V182.86H260.035V181.082Z" fill="#43484B"/>
<path d="M231.378 196.006V193.78H235.256V204H232.764V196.006H231.378ZM237.51 202.082C237.827 201.83 237.972 201.713 237.944 201.732C238.858 200.976 239.577 200.355 240.1 199.87C240.632 199.385 241.08 198.876 241.444 198.344C241.808 197.812 241.99 197.294 241.99 196.79C241.99 196.407 241.901 196.109 241.724 195.894C241.546 195.679 241.28 195.572 240.926 195.572C240.571 195.572 240.291 195.707 240.086 195.978C239.89 196.239 239.792 196.613 239.792 197.098H237.482C237.5 196.305 237.668 195.642 237.986 195.11C238.312 194.578 238.737 194.186 239.26 193.934C239.792 193.682 240.38 193.556 241.024 193.556C242.134 193.556 242.97 193.841 243.53 194.41C244.099 194.979 244.384 195.721 244.384 196.636C244.384 197.635 244.043 198.563 243.362 199.422C242.68 200.271 241.812 201.102 240.758 201.914H244.538V203.86H237.51V202.082ZM247.65 204.112C247.23 204.112 246.884 203.991 246.614 203.748C246.352 203.496 246.222 203.188 246.222 202.824C246.222 202.451 246.352 202.138 246.614 201.886C246.884 201.634 247.23 201.508 247.65 201.508C248.06 201.508 248.396 201.634 248.658 201.886C248.928 202.138 249.064 202.451 249.064 202.824C249.064 203.188 248.928 203.496 248.658 203.748C248.396 203.991 248.06 204.112 247.65 204.112ZM251.027 196.664C251.064 195.665 251.391 194.895 252.007 194.354C252.623 193.813 253.458 193.542 254.513 193.542C255.213 193.542 255.81 193.663 256.305 193.906C256.809 194.149 257.187 194.48 257.439 194.9C257.7 195.32 257.831 195.791 257.831 196.314C257.831 196.93 257.677 197.434 257.369 197.826C257.061 198.209 256.702 198.47 256.291 198.61V198.666C256.823 198.843 257.243 199.137 257.551 199.548C257.859 199.959 258.013 200.486 258.013 201.13C258.013 201.709 257.878 202.222 257.607 202.67C257.346 203.109 256.958 203.454 256.445 203.706C255.941 203.958 255.339 204.084 254.639 204.084C253.519 204.084 252.623 203.809 251.951 203.258C251.288 202.707 250.938 201.877 250.901 200.766H253.225C253.234 201.177 253.351 201.503 253.575 201.746C253.799 201.979 254.126 202.096 254.555 202.096C254.919 202.096 255.199 201.993 255.395 201.788C255.6 201.573 255.703 201.293 255.703 200.948C255.703 200.5 255.558 200.178 255.269 199.982C254.989 199.777 254.536 199.674 253.911 199.674H253.463V197.728H253.911C254.387 197.728 254.77 197.649 255.059 197.49C255.358 197.322 255.507 197.028 255.507 196.608C255.507 196.272 255.414 196.011 255.227 195.824C255.04 195.637 254.784 195.544 254.457 195.544C254.102 195.544 253.836 195.651 253.659 195.866C253.491 196.081 253.393 196.347 253.365 196.664H251.027ZM260.035 202.082C260.353 201.83 260.497 201.713 260.469 201.732C261.384 200.976 262.103 200.355 262.625 199.87C263.157 199.385 263.605 198.876 263.969 198.344C264.333 197.812 264.515 197.294 264.515 196.79C264.515 196.407 264.427 196.109 264.249 195.894C264.072 195.679 263.806 195.572 263.451 195.572C263.097 195.572 262.817 195.707 262.611 195.978C262.415 196.239 262.317 196.613 262.317 197.098H260.007C260.026 196.305 260.194 195.642 260.511 195.11C260.838 194.578 261.263 194.186 261.785 193.934C262.317 193.682 262.905 193.556 263.549 193.556C264.66 193.556 265.495 193.841 266.055 194.41C266.625 194.979 266.909 195.721 266.909 196.636C266.909 197.635 266.569 198.563 265.887 199.422C265.206 200.271 264.338 201.102 263.283 201.914H267.063V203.86H260.035V202.082Z" fill="#43484B"/>
<path d="M231.378 217.006V214.78H235.256V225H232.764V217.006H231.378ZM237.51 223.082C237.827 222.83 237.972 222.713 237.944 222.732C238.858 221.976 239.577 221.355 240.1 220.87C240.632 220.385 241.08 219.876 241.444 219.344C241.808 218.812 241.99 218.294 241.99 217.79C241.99 217.407 241.901 217.109 241.724 216.894C241.546 216.679 241.28 216.572 240.926 216.572C240.571 216.572 240.291 216.707 240.086 216.978C239.89 217.239 239.792 217.613 239.792 218.098H237.482C237.5 217.305 237.668 216.642 237.986 216.11C238.312 215.578 238.737 215.186 239.26 214.934C239.792 214.682 240.38 214.556 241.024 214.556C242.134 214.556 242.97 214.841 243.53 215.41C244.099 215.979 244.384 216.721 244.384 217.636C244.384 218.635 244.043 219.563 243.362 220.422C242.68 221.271 241.812 222.102 240.758 222.914H244.538V224.86H237.51V223.082ZM247.65 225.112C247.23 225.112 246.884 224.991 246.614 224.748C246.352 224.496 246.222 224.188 246.222 223.824C246.222 223.451 246.352 223.138 246.614 222.886C246.884 222.634 247.23 222.508 247.65 222.508C248.06 222.508 248.396 222.634 248.658 222.886C248.928 223.138 249.064 223.451 249.064 223.824C249.064 224.188 248.928 224.496 248.658 224.748C248.396 224.991 248.06 225.112 247.65 225.112ZM251.027 217.664C251.064 216.665 251.391 215.895 252.007 215.354C252.623 214.813 253.458 214.542 254.513 214.542C255.213 214.542 255.81 214.663 256.305 214.906C256.809 215.149 257.187 215.48 257.439 215.9C257.7 216.32 257.831 216.791 257.831 217.314C257.831 217.93 257.677 218.434 257.369 218.826C257.061 219.209 256.702 219.47 256.291 219.61V219.666C256.823 219.843 257.243 220.137 257.551 220.548C257.859 220.959 258.013 221.486 258.013 222.13C258.013 222.709 257.878 223.222 257.607 223.67C257.346 224.109 256.958 224.454 256.445 224.706C255.941 224.958 255.339 225.084 254.639 225.084C253.519 225.084 252.623 224.809 251.951 224.258C251.288 223.707 250.938 222.877 250.901 221.766H253.225C253.234 222.177 253.351 222.503 253.575 222.746C253.799 222.979 254.126 223.096 254.555 223.096C254.919 223.096 255.199 222.993 255.395 222.788C255.6 222.573 255.703 222.293 255.703 221.948C255.703 221.5 255.558 221.178 255.269 220.982C254.989 220.777 254.536 220.674 253.911 220.674H253.463V218.728H253.911C254.387 218.728 254.77 218.649 255.059 218.49C255.358 218.322 255.507 218.028 255.507 217.608C255.507 217.272 255.414 217.011 255.227 216.824C255.04 216.637 254.784 216.544 254.457 216.544C254.102 216.544 253.836 216.651 253.659 216.866C253.491 217.081 253.393 217.347 253.365 217.664H251.027ZM260.035 223.082C260.353 222.83 260.497 222.713 260.469 222.732C261.384 221.976 262.103 221.355 262.625 220.87C263.157 220.385 263.605 219.876 263.969 219.344C264.333 218.812 264.515 218.294 264.515 217.79C264.515 217.407 264.427 217.109 264.249 216.894C264.072 216.679 263.806 216.572 263.451 216.572C263.097 216.572 262.817 216.707 262.611 216.978C262.415 217.239 262.317 217.613 262.317 218.098H260.007C260.026 217.305 260.194 216.642 260.511 216.11C260.838 215.578 261.263 215.186 261.785 214.934C262.317 214.682 262.905 214.556 263.549 214.556C264.66 214.556 265.495 214.841 266.055 215.41C266.625 215.979 266.909 216.721 266.909 217.636C266.909 218.635 266.569 219.563 265.887 220.422C265.206 221.271 264.338 222.102 263.283 222.914H267.063V224.86H260.035V223.082Z" fill="#43484B"/>
<path d="M231.378 238.006V235.78H235.256V246H232.764V238.006H231.378ZM237.51 244.082C237.827 243.83 237.972 243.713 237.944 243.732C238.858 242.976 239.577 242.355 240.1 241.87C240.632 241.385 241.08 240.876 241.444 240.344C241.808 239.812 241.99 239.294 241.99 238.79C241.99 238.407 241.901 238.109 241.724 237.894C241.546 237.679 241.28 237.572 240.926 237.572C240.571 237.572 240.291 237.707 240.086 237.978C239.89 238.239 239.792 238.613 239.792 239.098H237.482C237.5 238.305 237.668 237.642 237.986 237.11C238.312 236.578 238.737 236.186 239.26 235.934C239.792 235.682 240.38 235.556 241.024 235.556C242.134 235.556 242.97 235.841 243.53 236.41C244.099 236.979 244.384 237.721 244.384 238.636C244.384 239.635 244.043 240.563 243.362 241.422C242.68 242.271 241.812 243.102 240.758 243.914H244.538V245.86H237.51V244.082ZM247.65 246.112C247.23 246.112 246.884 245.991 246.614 245.748C246.352 245.496 246.222 245.188 246.222 244.824C246.222 244.451 246.352 244.138 246.614 243.886C246.884 243.634 247.23 243.508 247.65 243.508C248.06 243.508 248.396 243.634 248.658 243.886C248.928 244.138 249.064 244.451 249.064 244.824C249.064 245.188 248.928 245.496 248.658 245.748C248.396 245.991 248.06 246.112 247.65 246.112ZM251.027 238.664C251.064 237.665 251.391 236.895 252.007 236.354C252.623 235.813 253.458 235.542 254.513 235.542C255.213 235.542 255.81 235.663 256.305 235.906C256.809 236.149 257.187 236.48 257.439 236.9C257.7 237.32 257.831 237.791 257.831 238.314C257.831 238.93 257.677 239.434 257.369 239.826C257.061 240.209 256.702 240.47 256.291 240.61V240.666C256.823 240.843 257.243 241.137 257.551 241.548C257.859 241.959 258.013 242.486 258.013 243.13C258.013 243.709 257.878 244.222 257.607 244.67C257.346 245.109 256.958 245.454 256.445 245.706C255.941 245.958 255.339 246.084 254.639 246.084C253.519 246.084 252.623 245.809 251.951 245.258C251.288 244.707 250.938 243.877 250.901 242.766H253.225C253.234 243.177 253.351 243.503 253.575 243.746C253.799 243.979 254.126 244.096 254.555 244.096C254.919 244.096 255.199 243.993 255.395 243.788C255.6 243.573 255.703 243.293 255.703 242.948C255.703 242.5 255.558 242.178 255.269 241.982C254.989 241.777 254.536 241.674 253.911 241.674H253.463V239.728H253.911C254.387 239.728 254.77 239.649 255.059 239.49C255.358 239.322 255.507 239.028 255.507 238.608C255.507 238.272 255.414 238.011 255.227 237.824C255.04 237.637 254.784 237.544 254.457 237.544C254.102 237.544 253.836 237.651 253.659 237.866C253.491 238.081 253.393 238.347 253.365 238.664H251.027ZM260.035 244.082C260.353 243.83 260.497 243.713 260.469 243.732C261.384 242.976 262.103 242.355 262.625 241.87C263.157 241.385 263.605 240.876 263.969 240.344C264.333 239.812 264.515 239.294 264.515 238.79C264.515 238.407 264.427 238.109 264.249 237.894C264.072 237.679 263.806 237.572 263.451 237.572C263.097 237.572 262.817 237.707 262.611 237.978C262.415 238.239 262.317 238.613 262.317 239.098H260.007C260.026 238.305 260.194 237.642 260.511 237.11C260.838 236.578 261.263 236.186 261.785 235.934C262.317 235.682 262.905 235.556 263.549 235.556C264.66 235.556 265.495 235.841 266.055 236.41C266.625 236.979 266.909 237.721 266.909 238.636C266.909 239.635 266.569 240.563 265.887 241.422C265.206 242.271 264.338 243.102 263.283 243.914H267.063V245.86H260.035V244.082Z" fill="#43484B"/>
<path d="M326.55 96.172C327.586 96.172 328.491 96.3773 329.266 96.788C330.041 97.1987 330.638 97.7773 331.058 98.524C331.487 99.2613 331.702 100.115 331.702 101.086C331.702 102.047 331.487 102.901 331.058 103.648C330.638 104.395 330.036 104.973 329.252 105.384C328.477 105.795 327.577 106 326.55 106H322.868V96.172H326.55ZM326.396 103.928C327.301 103.928 328.006 103.681 328.51 103.186C329.014 102.691 329.266 101.991 329.266 101.086C329.266 100.181 329.014 99.476 328.51 98.972C328.006 98.468 327.301 98.216 326.396 98.216H325.262V103.928H326.396ZM336.134 98.09V100.078H339.34V101.926H336.134V104.082H339.76V106H333.74V96.172H339.76V98.09H336.134ZM345.57 106.098C344.851 106.098 344.207 105.981 343.638 105.748C343.069 105.515 342.611 105.169 342.266 104.712C341.93 104.255 341.753 103.704 341.734 103.06H344.282C344.319 103.424 344.445 103.704 344.66 103.9C344.875 104.087 345.155 104.18 345.5 104.18C345.855 104.18 346.135 104.101 346.34 103.942C346.545 103.774 346.648 103.545 346.648 103.256C346.648 103.013 346.564 102.813 346.396 102.654C346.237 102.495 346.037 102.365 345.794 102.262C345.561 102.159 345.225 102.043 344.786 101.912C344.151 101.716 343.633 101.52 343.232 101.324C342.831 101.128 342.485 100.839 342.196 100.456C341.907 100.073 341.762 99.574 341.762 98.958C341.762 98.0433 342.093 97.3293 342.756 96.816C343.419 96.2933 344.282 96.032 345.346 96.032C346.429 96.032 347.301 96.2933 347.964 96.816C348.627 97.3293 348.981 98.048 349.028 98.972H346.438C346.419 98.6547 346.303 98.4073 346.088 98.23C345.873 98.0433 345.598 97.95 345.262 97.95C344.973 97.95 344.739 98.0293 344.562 98.188C344.385 98.3373 344.296 98.5567 344.296 98.846C344.296 99.1633 344.445 99.4107 344.744 99.588C345.043 99.7653 345.509 99.9567 346.144 100.162C346.779 100.377 347.292 100.582 347.684 100.778C348.085 100.974 348.431 101.259 348.72 101.632C349.009 102.005 349.154 102.486 349.154 103.074C349.154 103.634 349.009 104.143 348.72 104.6C348.44 105.057 348.029 105.421 347.488 105.692C346.947 105.963 346.307 106.098 345.57 106.098ZM358.397 96.172V98.09H355.793V106H353.399V98.09H350.795V96.172H358.397ZM362.693 96.172V106H360.299V96.172H362.693ZM373.92 106H371.526L367.522 99.938V106H365.128V96.172H367.522L371.526 102.262V96.172H373.92V106ZM382.473 104.264H378.805L378.217 106H375.711L379.267 96.172H382.039L385.595 106H383.061L382.473 104.264ZM381.857 102.416L380.639 98.818L379.435 102.416H381.857ZM394.447 96.172V98.09H391.843V106H389.449V98.09H386.845V96.172H394.447ZM398.743 96.172V106H396.349V96.172H398.743ZM405.826 106.098C404.902 106.098 404.052 105.883 403.278 105.454C402.512 105.025 401.901 104.427 401.444 103.662C400.996 102.887 400.772 102.019 400.772 101.058C400.772 100.097 400.996 99.2333 401.444 98.468C401.901 97.7027 402.512 97.1053 403.278 96.676C404.052 96.2467 404.902 96.032 405.826 96.032C406.75 96.032 407.594 96.2467 408.36 96.676C409.134 97.1053 409.741 97.7027 410.18 98.468C410.628 99.2333 410.852 100.097 410.852 101.058C410.852 102.019 410.628 102.887 410.18 103.662C409.732 104.427 409.125 105.025 408.36 105.454C407.594 105.883 406.75 106.098 405.826 106.098ZM405.826 103.914C406.61 103.914 407.235 103.653 407.702 103.13C408.178 102.607 408.416 101.917 408.416 101.058C408.416 100.19 408.178 99.4993 407.702 98.986C407.235 98.4633 406.61 98.202 405.826 98.202C405.032 98.202 404.398 98.4587 403.922 98.972C403.455 99.4853 403.222 100.181 403.222 101.058C403.222 101.926 403.455 102.621 403.922 103.144C404.398 103.657 405.032 103.914 405.826 103.914ZM421.676 106H419.282L415.278 99.938V106H412.884V96.172H415.278L419.282 102.262V96.172H421.676V106Z" fill="#080B0D"/>
<path d="M490.266 96.172V98.09H486.262V100.162H489.258V102.024H486.262V106H483.868V96.172H490.266ZM494.618 104.152H497.754V106H492.224V96.172H494.618V104.152ZM501.99 96.172V106H499.596V96.172H501.99ZM510.949 99.28C510.772 98.9533 510.515 98.706 510.179 98.538C509.852 98.3607 509.465 98.272 509.017 98.272C508.242 98.272 507.622 98.5287 507.155 99.042C506.688 99.546 506.455 100.223 506.455 101.072C506.455 101.977 506.698 102.687 507.183 103.2C507.678 103.704 508.354 103.956 509.213 103.956C509.801 103.956 510.296 103.807 510.697 103.508C511.108 103.209 511.406 102.78 511.593 102.22H508.555V100.456H513.763V102.682C513.586 103.279 513.282 103.835 512.853 104.348C512.433 104.861 511.896 105.277 511.243 105.594C510.59 105.911 509.852 106.07 509.031 106.07C508.06 106.07 507.192 105.86 506.427 105.44C505.671 105.011 505.078 104.418 504.649 103.662C504.229 102.906 504.019 102.043 504.019 101.072C504.019 100.101 504.229 99.238 504.649 98.482C505.078 97.7167 505.671 97.124 506.427 96.704C507.183 96.2747 508.046 96.06 509.017 96.06C510.193 96.06 511.182 96.3447 511.985 96.914C512.797 97.4833 513.334 98.272 513.595 99.28H510.949ZM524.301 96.172V106H521.907V101.954H518.183V106H515.789V96.172H518.183V100.022H521.907V96.172H524.301ZM533.799 96.172V98.09H531.195V106H528.801V98.09H526.197V96.172H533.799Z" fill="#080B0D"/>
<path d="M598.392 99.28C598.215 98.9533 597.958 98.706 597.622 98.538C597.295 98.3607 596.908 98.272 596.46 98.272C595.685 98.272 595.065 98.5287 594.598 99.042C594.131 99.546 593.898 100.223 593.898 101.072C593.898 101.977 594.141 102.687 594.626 103.2C595.121 103.704 595.797 103.956 596.656 103.956C597.244 103.956 597.739 103.807 598.14 103.508C598.551 103.209 598.849 102.78 599.036 102.22H595.998V100.456H601.206V102.682C601.029 103.279 600.725 103.835 600.296 104.348C599.876 104.861 599.339 105.277 598.686 105.594C598.033 105.911 597.295 106.07 596.474 106.07C595.503 106.07 594.635 105.86 593.87 105.44C593.114 105.011 592.521 104.418 592.092 103.662C591.672 102.906 591.462 102.043 591.462 101.072C591.462 100.101 591.672 99.238 592.092 98.482C592.521 97.7167 593.114 97.124 593.87 96.704C594.626 96.2747 595.489 96.06 596.46 96.06C597.636 96.06 598.625 96.3447 599.428 96.914C600.24 97.4833 600.777 98.272 601.038 99.28H598.392ZM609.35 104.264H605.682L605.094 106H602.588L606.144 96.172H608.916L612.472 106H609.938L609.35 104.264ZM608.734 102.416L607.516 98.818L606.312 102.416H608.734ZM621.324 96.172V98.09H618.72V106H616.326V98.09H613.722V96.172H621.324ZM625.62 98.09V100.078H628.826V101.926H625.62V104.082H629.246V106H623.226V96.172H629.246V98.09H625.62Z" fill="#080B0D"/>
<rect x="189.5" y="72.5" width="484" height="200" stroke="#878787"/>
</g>
<path d="M302.503 142H266.003C262.417 165.828 264.409 172.093 271.003 178L270.003 191H287.503V177H296.003C305.935 170.935 306.352 162.245 302.503 142Z" fill="#EAD1D4" stroke="#878787"/>
<path d="M307.993 141.999H297.993C300.873 147.604 301.093 149.922 300 153C294.627 160.612 292.469 164.818 293.5 172C304.013 199.426 301.749 205.701 296 215H267.5L263.5 205L262.5 215H252.994C251.603 203.929 251.137 198.293 252.994 193C259.695 179.939 261.186 175.45 260.993 170.999C258.121 132.615 265.622 124.504 291.993 128.999C304.301 127.05 306.244 131.693 307.993 141.999Z" fill="#5AC4B7" stroke="#878787"/>
<path d="M312.5 259H267.5L273.5 274L252.5 310.5H318.857L311 268.5L312.5 259Z" fill="#32373A" stroke="#878787"/>
<path d="M373 204L346 187.5L355.5 173L383.5 190L373 204Z" fill="#C4C4C4" stroke="#878787"/>
<path d="M316.5 199.5L285 187L257.5 195.5L230.5 265L235.127 310.5H245.285L248.5 267.5L262 245L266.5 258.5H313.5L315 242L340.5 271H345.5L352 266L376 212.5L383 198.5L379.5 195.5L371 193V199L369 202V209.5L343.5 245L316.5 199.5Z" fill="#D9C9CB" stroke="#878787"/>
<path d="M316.5 199.5L285 187L257.5 195.5L230.5 265L231.975 279.5L247.453 281.5L248.5 267.5L262 245L266.5 258.5H313.5L315 242L340.5 271H345.5L352 266L360.075 248L348 238.735L343.5 245L316.5 199.5Z" fill="white" stroke="#878787"/>
<rect x="235.5" y="64.5" width="51" height="7" fill="#737373"/>
<rect x="235.5" y="64.5" width="51" height="7" stroke="#878787"/>
<rect x="248.5" y="50.5" width="24" height="13" fill="#737373"/>
<rect x="248.5" y="50.5" width="24" height="13" stroke="#878787"/>
<rect x="257.5" y="0.5" width="6" height="49" fill="#737373"/>
<rect x="257.5" y="0.5" width="6" height="49" stroke="#878787"/>
<rect x="584.5" y="64.5" width="51" height="7" fill="#737373"/>
<rect x="584.5" y="64.5" width="51" height="7" stroke="#878787"/>
<rect x="597.5" y="50.5" width="24" height="13" fill="#737373"/>
<rect x="597.5" y="50.5" width="24" height="13" stroke="#878787"/>
<rect x="606.5" y="0.5" width="6" height="49" fill="#737373"/>
<rect x="606.5" y="0.5" width="6" height="49" stroke="#878787"/>
</svg>
