<svg width="495" height="263" viewBox="0 0 495 263" fill="none" xmlns="http://www.w3.org/2000/svg">
<path d="M441.586 155.597V141.655H471.315L460.047 155.597H441.586Z" stroke="#DBD9D9" stroke-width="0.127321"/>
<path d="M89.7344 50.1191C88.8811 50.1191 74.0195 50.1191 66.6954 50.1191C64.44 45.0638 63.1386 42.324 57.3091 46.0517C49.2094 38.0055 45.6208 38.0761 41.5231 49.0487C35.4732 49.0446 33.8307 50.571 34.4834 56.5413H68.6153" stroke="#DBD9D9" stroke-width="0.127321"/>
<path d="M276.26 30.1293C275.406 30.1293 260.545 30.1293 253.221 30.1293C250.965 25.074 249.664 22.3343 243.834 26.0619C235.735 18.0157 232.146 18.0864 228.048 29.059C221.999 29.0549 220.356 30.5813 221.009 36.5516H255.141" stroke="#DBD9D9" stroke-width="0.127321"/>
<path d="M407.4 15.743C408.744 15.743 432.147 15.743 443.68 15.743C447.232 7.78187 449.281 3.46733 458.461 9.3376C471.216 -3.33355 476.867 -3.22231 483.319 14.0574C492.846 14.0509 495.433 16.4547 494.405 25.8568H440.657" stroke="#DBD9D9" stroke-width="0.127321"/>
<path d="M328.844 96.0104L320.887 76.021H371.751L363.539 96.0104H328.844Z" stroke="#DBD9D9" stroke-width="0.127321"/>
<path d="M344.249 63.7984V28.4668H345.777V63.7984H353.225V68.6366H337.564V63.7984H344.249Z" fill="#C4C4C4" stroke="#DBD9D9" stroke-width="0.127321"/>
<path d="M408.291 262.355H468.641" stroke="#DBD9D9" stroke-width="0.127321"/>
<path d="M18.9453 253.188H28.0488" stroke="#DBD9D9" stroke-width="0.127321"/>
<path d="M43.1348 252.743H106.222" stroke="#DBD9D9" stroke-width="0.127321"/>
<path d="M194.393 158.589L206.934 140.891" stroke="#DBD9D9" stroke-width="0.127321"/>
<path d="M149.959 159.48L162.5 141.783" stroke="#DBD9D9" stroke-width="0.127321"/>
<path d="M100.176 159.48L112.717 141.783" stroke="#DBD9D9" stroke-width="0.127321"/>
<path d="M239.846 159.48L252.387 141.783" stroke="#DBD9D9" stroke-width="0.127321"/>
<path d="M212.281 139.937L203.178 153.242" stroke="#DBD9D9" stroke-width="0.127321"/>
<path d="M167.846 140.828L158.742 154.133" stroke="#DBD9D9" stroke-width="0.127321"/>
<path d="M118.062 140.828L108.959 154.133" stroke="#DBD9D9" stroke-width="0.127321"/>
<path d="M257.736 140.828L248.633 154.133" stroke="#DBD9D9" stroke-width="0.127321"/>
<path d="M195.348 164.891L200.886 156.488" stroke="#DBD9D9" stroke-width="0.127321"/>
<path d="M150.912 165.783L156.451 157.379" stroke="#DBD9D9" stroke-width="0.127321"/>
<path d="M101.131 165.783L106.669 157.379" stroke="#DBD9D9" stroke-width="0.127321"/>
<path d="M240.801 165.783L246.339 157.379" stroke="#DBD9D9" stroke-width="0.127321"/>
<path opacity="0.5" fill-rule="evenodd" clip-rule="evenodd" d="M81.5859 111.671H331.39V182.079H81.5859V111.671ZM94.1895 123.766H130.094V182.079H94.1895V123.766ZM174.656 123.766H138.752V182.079H174.656V123.766ZM183.314 123.766H219.219V182.079H183.314V123.766ZM263.781 123.766H227.877V182.079H263.781V123.766Z" fill="#C4C4C4"/>
<path d="M230.043 261.91H272.123" stroke="#DBD9D9" stroke-width="0.127321"/>
<path d="M475.963 261.464H485.512" stroke="#DBD9D9" stroke-width="0.127321"/>
<path d="M389.576 217.539H469.534" stroke="#DBD9D9" stroke-width="0.127321"/>
<path d="M107.113 204.297H206.742" stroke="#DBD9D9" stroke-width="0.127321"/>
<rect x="0.228516" y="182.08" width="488.531" height="3.94695" fill="#C4C4C4"/>
<path d="M23.8464 136.562L16.8438 131.024V127.523L23.9101 121.539" stroke="#DBD9D9" stroke-width="0.127321"/>
<path d="M49.5017 132.552C53.8942 131.597 53.5759 126.822 49.5017 125.422L39.507 125.04C30.9957 122.149 28.1799 121.759 23.9102 121.539C25.9703 127.753 25.606 130.981 23.9102 136.562C29.2097 136.56 32.6102 135.663 39.507 132.552H49.5017Z" fill="#C4C4C4" stroke="#DBD9D9" stroke-width="0.127321"/>
<rect x="14.1074" y="123.385" width="2.92838" height="58.695" fill="#C4C4C4"/>
<ellipse cx="15.6343" cy="122.175" rx="2.54642" ry="2.48276" fill="#C4C4C4"/>
<path d="M44.7745 155.313L40.5586 151.978V149.87L44.8128 146.268" stroke="#DBD9D9" stroke-width="0.0766524"/>
<path d="M60.2196 152.898C62.8641 152.323 62.6725 149.449 60.2196 148.605L54.2024 148.376C49.0783 146.635 47.3831 146.4 44.8125 146.268C46.0528 150.009 45.8335 151.952 44.8125 155.313C48.003 155.311 50.0503 154.771 54.2024 152.898H60.2196Z" fill="#C4C4C4" stroke="#DBD9D9" stroke-width="0.0766524"/>
<rect x="38.9102" y="147.379" width="1.76301" height="35.3368" fill="#C4C4C4"/>
<ellipse cx="39.8299" cy="146.651" rx="1.53305" ry="1.49472" fill="#C4C4C4"/>
<rect x="329.863" y="101.613" width="31.0663" height="80.4669" fill="#C4C4C4"/>
<rect x="341.384" y="101.676" width="8.02122" height="80.3395" fill="#C4C4C4" stroke="#DBD9D9" stroke-width="0.127321"/>
<rect x="322.732" y="94.8647" width="46.2175" height="6.74801" fill="#C4C4C4"/>
<path d="M343.422 75.7664V95.0556H347.751V75.7664H373.597V68.8911H318.785V75.7664H343.422Z" stroke="#DBD9D9" stroke-width="0.127321"/>
<circle cx="345.269" cy="22.8013" r="3.0557" fill="#C4C4C4"/>
<rect x="366.531" y="140.828" width="30.0478" height="33.6127" fill="#C4C4C4"/>
<rect x="404.217" y="140.828" width="29.9204" height="33.6127" fill="#C4C4C4"/>
<path d="M441.84 174.249V160.817H457.628L444.959 174.249H441.84Z" stroke="#DBD9D9" stroke-width="0.127321"/>
<rect x="362.457" y="122.239" width="95.2361" height="10.5676" fill="#C4C4C4"/>
<rect x="385.502" y="113.835" width="38.3236" height="10.5676" fill="#C4C4C4"/>
<rect x="391.23" y="96.2656" width="28.0106" height="7.2573" fill="#C4C4C4"/>
<rect x="404.217" y="99.8306" width="2.16446" height="14.0053" fill="#C4C4C4"/>
</svg>
